<svg width="889" height="500" viewBox="0 0 889 500" fill="none" xmlns="http://www.w3.org/2000/svg">
<rect width="888.889" height="500" fill="#0E0411"/>
<path d="M220.122 306.869V275.244H227.423V268.737H207.907V275.244H215.207V306.869H220.122ZM92.7261 268.753H82.0679V306.869H87.1618V293.058H93.1317C95.6462 293.058 97.6254 291.952 99.0692 289.755C100.513 287.559 101.243 284.631 101.243 281.003C101.243 277.375 100.513 274.658 99.0692 272.316C97.5929 269.941 95.484 268.737 92.7261 268.737V268.753ZM95.1595 285.249C94.4782 286.258 93.5048 286.762 92.2395 286.762H87.1618V275.456H92.3206C93.5373 275.456 94.4944 275.944 95.1758 276.92C95.8571 277.896 96.1978 279.279 96.1978 281.052C96.1978 282.825 95.8571 284.224 95.1758 285.233L95.1595 285.249ZM184.092 300.411H171.065V290.129H182.389V283.785H171.065V275.26H183.995V268.753H166.15V306.869H184.092V300.411ZM142.513 300.411H129.487V290.129H140.81V283.785H129.487V275.26H142.416V268.753H124.571V306.869H142.513V300.411ZM318.594 300.411H305.567V290.129H316.89V283.785H305.567V275.26H318.497V268.753H300.652V306.869H318.594V300.411ZM326.17 291.561H330.144C333.113 291.561 334.687 293.725 334.898 298.068C334.914 298.491 334.946 299.077 334.979 299.793C335.011 300.525 335.044 301.11 335.06 301.55C335.076 301.989 335.109 302.51 335.141 303.095C335.173 303.681 335.206 304.153 335.238 304.527C335.271 304.901 335.303 305.259 335.352 305.617C335.401 305.975 335.449 306.251 335.514 306.446C335.579 306.642 335.66 306.772 335.757 306.853H340.478V306.479C340.316 306.381 340.186 306.137 340.089 305.763C339.992 305.389 339.91 304.868 339.845 304.185C339.781 303.502 339.748 302.835 339.716 302.152C339.683 301.485 339.635 300.557 339.586 299.402C339.521 298.247 339.472 297.239 339.44 296.393C339.278 294.115 338.921 292.407 338.337 291.252C337.753 290.097 336.893 289.251 335.741 288.714V288.551C338.71 287.266 340.186 284.192 340.186 279.327C340.186 276.171 339.472 273.601 338.029 271.649C336.601 269.697 334.719 268.721 332.383 268.721H321.254V306.837H326.17V291.529V291.561ZM326.17 274.984H331.523C332.789 274.984 333.746 275.488 334.411 276.48C335.076 277.473 335.401 278.774 335.401 280.369C335.401 281.963 335.06 283.199 334.362 284.159C333.665 285.119 332.675 285.607 331.394 285.607H326.17V275V274.984ZM291.729 306.869V275.244H299.029V268.737H279.53V275.244H286.83V306.869H291.745H291.729ZM192.398 233.777C194.994 236.379 197.589 238.982 200.185 241.585C200.347 241.748 200.493 241.894 200.769 241.894C205.409 241.894 210.064 241.894 214.704 241.894C214.801 241.894 214.899 241.862 215.029 241.846V213.604H217.608C217.608 213.767 217.624 213.913 217.624 214.059C217.624 214.759 217.624 215.459 217.624 216.174C217.624 216.5 217.705 216.744 217.949 216.988C221.128 220.16 224.292 223.349 227.471 226.521C232.468 231.532 237.481 236.558 242.477 241.569C242.656 241.748 242.834 241.911 243.142 241.911C247.36 241.911 251.594 241.911 255.812 241.911C255.926 241.911 256.039 241.894 256.185 241.878V237.632C256.185 237.274 256.185 236.933 256.185 236.575C256.185 236.233 256.12 235.891 256.299 235.517C256.429 235.615 256.51 235.761 256.623 235.875C258.538 237.795 260.452 239.714 262.35 241.634C262.512 241.813 262.674 241.927 262.95 241.927C267.103 241.927 271.256 241.927 275.393 241.927C275.507 241.927 275.62 241.894 275.734 241.894C276.091 240.04 276.399 238.201 276.853 236.331C276.999 236.428 277.08 236.575 277.194 236.689C278.832 238.348 280.487 239.991 282.109 241.634C282.304 241.829 282.515 241.927 282.791 241.927C286.992 241.927 291.21 241.927 295.412 241.927H295.898V241.325C295.898 214.255 295.898 187.201 295.898 160.13C295.898 159.74 295.785 159.48 295.509 159.219C287.333 151.037 279.173 142.854 271.029 134.671C270.802 134.443 270.591 134.345 270.267 134.345C264.524 134.345 258.781 134.345 253.038 134.345H252.535C251.676 139.145 250.816 143.895 249.956 148.743C249.777 148.564 249.664 148.45 249.534 148.336C244.992 143.781 240.449 139.226 235.891 134.655C235.696 134.459 235.518 134.329 235.21 134.329C229.483 134.329 223.756 134.329 218.03 134.329C217.9 134.329 217.77 134.329 217.673 134.345C217.64 134.394 217.64 134.394 217.64 134.411C217.64 134.411 217.64 134.443 217.64 134.459V134.541C217.64 138.087 217.64 141.634 217.64 145.18C217.64 145.213 217.64 145.245 217.64 145.261C217.64 145.294 217.64 145.326 217.64 145.343C217.64 145.343 217.624 145.359 217.608 145.375C217.608 145.375 217.576 145.375 217.543 145.392C217.43 145.294 217.316 145.18 217.202 145.066C215.158 143.033 213.131 140.983 211.086 138.949C209.334 137.209 207.274 135.956 204.938 135.175C203.154 134.589 201.337 134.313 199.471 134.313C195.902 134.313 192.333 134.313 188.78 134.313C184.449 134.297 180.15 134.297 175.835 134.297C175.672 134.297 175.494 134.297 175.299 134.297V134.899C175.299 161.985 175.299 189.055 175.299 216.142C175.299 216.516 175.397 216.76 175.656 217.02C181.237 222.6 186.817 228.213 192.398 233.793V233.777ZM219.717 136.411H233.879C233.96 136.818 234.042 137.257 234.123 137.68C234.853 141.731 235.566 145.782 236.296 149.833C236.978 153.672 237.659 157.495 238.34 161.334C239.006 165.011 239.671 168.688 240.32 172.364C240.904 175.732 241.488 179.083 242.023 182.45C242.51 185.493 242.948 188.535 243.402 191.577C243.613 193.074 243.775 194.57 243.97 196.067C244.002 196.295 244.035 196.506 244.067 196.734H244.164C244.181 196.653 244.213 196.555 244.229 196.474C244.521 194.164 244.797 191.853 245.105 189.543C245.478 186.875 245.835 184.207 246.273 181.539C247.052 176.87 247.879 172.218 248.691 167.565C249.453 163.238 250.248 158.927 251.01 154.599C251.659 150.939 252.324 147.279 252.973 143.618C253.395 141.292 253.801 138.982 254.222 136.656C254.222 136.59 254.271 136.525 254.304 136.428H268.644V214.548H259.3C259.3 214.385 259.284 214.238 259.284 214.108C259.284 199.386 259.284 184.647 259.284 169.924C259.284 166.979 259.414 164.035 259.495 161.09C259.527 159.512 259.576 157.934 259.625 156.34C259.641 155.559 259.673 154.795 259.689 154.014C259.689 153.867 259.689 153.737 259.689 153.591H259.592C259.592 153.591 259.543 153.721 259.527 153.786C259.365 155.087 259.203 156.405 259.024 157.707C258.732 159.87 258.473 162.034 258.1 164.181C256.98 170.51 255.812 176.822 254.66 183.15C253.687 188.437 252.714 193.708 251.74 198.995C250.816 204.038 249.875 209.065 248.934 214.108C248.901 214.255 248.869 214.385 248.837 214.548H239.184C239.103 214.157 239.038 213.783 238.957 213.392C238.227 209.391 237.513 205.389 236.783 201.387C236.037 197.271 235.307 193.139 234.561 189.023C233.847 185.07 233.117 181.1 232.403 177.147C231.868 174.235 231.332 171.339 230.829 168.411C230.505 166.54 230.278 164.637 230.002 162.766C229.694 160.651 229.386 158.536 229.077 156.421C228.948 155.559 228.818 154.681 228.688 153.818C228.688 153.737 228.639 153.672 228.542 153.591C228.542 153.721 228.526 153.851 228.542 153.997C228.607 155.575 228.688 157.153 228.72 158.748C228.802 162.506 228.931 166.28 228.948 170.038C228.98 184.695 228.948 199.337 228.948 213.994V214.499C228.607 214.596 220.252 214.613 219.717 214.531V136.411ZM177.392 136.411C177.554 136.411 177.717 136.395 177.879 136.395C181.285 136.395 184.692 136.395 188.099 136.395C191.911 136.395 195.724 136.395 199.536 136.395C202.115 136.395 204.549 136.981 206.787 138.266C208.702 139.356 210.243 140.853 211.508 142.658C213.244 145.131 214.461 147.881 215.288 150.776C215.953 153.119 216.343 155.51 216.537 157.951C216.7 160.114 216.716 162.278 216.602 164.458C216.391 168.151 215.775 171.762 214.412 175.211C213.536 177.424 212.4 179.473 210.859 181.295C208.686 183.866 205.976 185.509 202.651 186.046C201.856 186.176 201.061 186.241 200.25 186.257C196.291 186.273 192.333 186.257 188.375 186.257H187.791V214.548H177.425C177.343 214.238 177.295 137.225 177.392 136.411ZM347.973 268.753H343.058V306.869H347.973V268.753ZM198.481 173.324C200.996 173.308 202.943 172.185 204.305 170.07C205.198 168.671 205.701 167.11 205.993 165.483C206.333 163.579 206.366 161.66 206.236 159.74C206.122 158.178 205.863 156.665 205.295 155.201C204.825 153.965 204.159 152.859 203.186 151.948C201.84 150.679 200.201 150.158 198.384 150.142C194.994 150.142 191.603 150.142 188.213 150.142C188.083 150.142 187.953 150.158 187.807 150.174V173.308C187.937 173.308 188.018 173.324 188.099 173.324C191.554 173.324 195.026 173.34 198.481 173.324ZM268.612 268.753L260.16 306.869H265.14L266.73 298.768H275.474L277.096 306.869H282.223L273.673 268.753H268.579H268.612ZM267.898 292.846L270.072 281.865C270.348 280.515 270.688 278.563 271.094 275.992H271.159L272.148 281.865L274.322 292.846H267.914H267.898ZM254.352 277.115H254.417L254.222 285.005V306.869H258.797V268.753H251.773L248.35 287.901C247.782 291.106 247.279 294.538 246.857 298.198H246.792L246.63 296.702C246.5 295.709 246.29 294.343 246.03 292.618C245.77 290.894 245.511 289.316 245.268 287.901L241.845 268.753H234.918V306.869H239.427V285.005C239.427 282.939 239.363 280.32 239.217 277.115H239.281L240.336 284.371L244.408 306.869H249.129L253.298 284.371C253.638 282.516 253.979 280.108 254.352 277.115ZM234.366 326.57H224.908V364.687H233.96C236.88 364.687 239.281 363.466 241.147 361.01C243.726 357.594 245.008 352.599 245.008 346.027C245.008 340.333 244.035 335.68 242.088 332.036C240.141 328.392 237.562 326.57 234.35 326.57H234.366ZM238.503 354.958C237.481 357.008 235.858 358.017 233.62 358.017H229.824V333.175H233.766C235.794 333.175 237.351 334.346 238.438 336.673C239.525 338.999 240.044 342.123 240.044 346.027C240.044 349.931 239.541 352.908 238.519 354.958H238.503ZM336.131 362.019C336.066 361.335 336.033 360.668 336.001 359.985C335.968 359.302 335.92 358.391 335.871 357.236C335.806 356.081 335.757 355.072 335.725 354.226C335.563 351.949 335.206 350.24 334.622 349.085C334.038 347.93 333.178 347.084 332.026 346.548V346.385C334.995 345.1 336.471 342.025 336.471 337.161C336.471 334.005 335.757 331.434 334.314 329.482C332.87 327.53 330.988 326.554 328.668 326.554H317.539V364.67H322.455V349.362H326.429C329.398 349.362 330.972 351.526 331.183 355.869C331.199 356.292 331.231 356.878 331.264 357.61C331.296 358.342 331.329 358.928 331.345 359.367C331.361 359.806 331.394 360.327 331.426 360.912C331.458 361.498 331.491 361.986 331.523 362.344C331.556 362.702 331.588 363.076 331.637 363.434C331.686 363.792 331.734 364.068 331.799 364.264C331.864 364.459 331.945 364.589 332.042 364.67H336.763V364.296C336.601 364.182 336.471 363.954 336.374 363.58C336.277 363.206 336.195 362.686 336.131 362.002V362.019ZM330.631 341.976C329.95 342.936 328.944 343.408 327.662 343.408H322.439V332.801H327.792C329.057 332.801 330.015 333.305 330.68 334.298C331.329 335.29 331.669 336.591 331.669 338.186C331.669 339.78 331.329 341.016 330.631 341.976ZM116.46 298.085C116.476 298.508 116.509 299.093 116.541 299.809C116.573 300.541 116.606 301.127 116.622 301.566C116.638 302.005 116.671 302.526 116.703 303.111C116.736 303.697 116.768 304.169 116.801 304.543C116.833 304.917 116.865 305.275 116.914 305.633C116.963 305.991 117.011 306.268 117.093 306.463C117.157 306.658 117.239 306.788 117.336 306.869H122.057V306.495C121.894 306.398 121.765 306.154 121.667 305.779C121.57 305.405 121.489 304.885 121.424 304.201C121.359 303.518 121.327 302.851 121.294 302.168C121.262 301.501 121.213 300.574 121.164 299.419C121.116 298.264 121.051 297.255 121.018 296.409C120.856 294.131 120.499 292.423 119.915 291.268C119.331 290.113 118.471 289.267 117.32 288.73V288.568C120.288 287.283 121.765 284.208 121.765 279.344C121.765 276.188 121.051 273.617 119.607 271.665C118.163 269.713 116.281 268.737 113.962 268.737H102.833V306.853H107.748V291.545H111.723C114.692 291.545 116.265 293.708 116.476 298.052L116.46 298.085ZM107.748 285.607V275H113.102C114.367 275 115.324 275.504 115.989 276.497C116.655 277.489 116.979 278.791 116.979 280.385C116.979 281.979 116.638 283.215 115.941 284.175C115.259 285.135 114.254 285.623 112.972 285.623H107.748V285.607ZM269.845 346.32C269.358 345.571 268.677 344.888 267.817 344.27C266.941 343.652 266.13 343.164 265.384 342.838C264.637 342.497 263.68 342.139 262.496 341.748C260.533 341.081 259.154 340.398 258.375 339.715C257.597 339.032 257.207 337.974 257.207 336.51C257.207 335.16 257.597 334.07 258.392 333.256C259.187 332.443 260.241 332.036 261.588 332.036C262.934 332.036 263.94 332.541 264.8 333.533C265.643 334.525 266.146 335.957 266.276 337.795H270.997C270.818 333.988 269.894 331.06 268.255 328.994C266.6 326.928 264.394 325.903 261.636 325.903C258.878 325.903 256.607 326.896 254.904 328.864C253.2 330.832 252.341 333.663 252.341 337.323C252.341 338.853 252.503 340.219 252.811 341.407C253.119 342.594 253.525 343.554 253.979 344.286C254.45 345.018 255.082 345.685 255.877 346.287C256.672 346.889 257.418 347.328 258.083 347.621C258.749 347.914 259.608 348.239 260.647 348.63C261.506 348.955 262.09 349.167 262.415 349.297C262.723 349.427 263.194 349.622 263.81 349.882C264.426 350.143 264.832 350.403 265.059 350.631C265.286 350.859 265.562 351.168 265.87 351.542C266.179 351.916 266.389 352.339 266.503 352.827C266.617 353.315 266.649 353.852 266.649 354.454C266.649 356.129 266.211 357.366 265.319 358.163C264.443 358.96 263.307 359.367 261.928 359.367C260.192 359.367 258.878 358.863 258.002 357.87C257.126 356.878 256.623 355.235 256.461 352.957H251.643C251.724 357.008 252.681 360.131 254.498 362.311C256.315 364.491 258.846 365.598 262.139 365.598C264.946 365.598 267.217 364.524 268.953 362.393C270.688 360.262 271.564 357.317 271.564 353.543C271.564 351.949 271.402 350.533 271.078 349.297C270.753 348.06 270.348 347.084 269.861 346.336L269.845 346.32ZM272.23 333.094H279.53V364.719H284.445V333.094H291.745V326.586H272.246V333.094H272.23ZM377.758 300.427V268.753H372.842V306.869H389.162V300.411H377.758V300.427ZM357.788 268.753L349.336 306.869H354.316L355.906 298.768H364.65L366.272 306.869H371.399L362.849 268.753H357.755H357.788ZM357.074 292.846L359.248 281.865C359.524 280.515 359.864 278.563 360.27 275.992H360.335L361.324 281.865L363.498 292.846H357.09H357.074ZM344.193 347.963H355.517V341.618H344.193V333.094H357.123V326.586H339.278V364.703H357.22V358.244H344.193V347.947V347.963ZM303.507 325.838C299.986 325.838 297.148 327.709 295.006 331.434C292.865 335.16 291.794 339.926 291.794 345.718C291.794 351.509 292.865 356.26 295.006 359.985C297.148 363.694 299.97 365.549 303.507 365.549C307.043 365.549 309.866 363.694 311.991 359.985C314.116 356.276 315.187 351.509 315.187 345.718C315.187 339.926 314.116 335.16 311.991 331.434C309.866 327.709 307.043 325.838 303.507 325.838ZM308.455 355.462C307.319 357.968 305.681 359.22 303.539 359.22C301.398 359.22 299.727 357.951 298.575 355.43C297.407 352.908 296.823 349.671 296.823 345.734C296.823 341.797 297.407 338.495 298.575 335.973C299.743 333.452 301.398 332.183 303.539 332.183C305.681 332.183 307.319 333.452 308.455 335.973C309.59 338.495 310.158 341.748 310.158 345.734C310.158 349.72 309.59 352.957 308.455 355.462ZM160.991 304.543C162.727 302.412 163.603 299.467 163.603 295.693C163.603 294.099 163.441 292.684 163.116 291.447C162.792 290.227 162.386 289.235 161.899 288.486C161.413 287.738 160.731 287.055 159.855 286.437C158.979 285.818 158.168 285.33 157.438 285.005C156.692 284.663 155.735 284.305 154.551 283.915C152.588 283.232 151.209 282.565 150.43 281.882C149.651 281.198 149.262 280.141 149.262 278.677C149.262 277.326 149.651 276.236 150.446 275.423C151.241 274.61 152.296 274.203 153.642 274.203C154.989 274.203 155.994 274.707 156.838 275.7C157.682 276.692 158.184 278.124 158.314 279.962H163.035C162.857 276.155 161.932 273.227 160.293 271.161C158.655 269.095 156.432 268.07 153.675 268.07C150.917 268.07 148.646 269.062 146.942 271.031C145.239 272.999 144.379 275.813 144.379 279.49C144.379 281.019 144.541 282.386 144.849 283.573C145.158 284.761 145.563 285.721 146.017 286.453C146.472 287.185 147.121 287.852 147.916 288.454C148.71 289.056 149.457 289.495 150.122 289.788C150.787 290.081 151.647 290.406 152.685 290.796C153.545 291.122 154.129 291.333 154.453 291.463C154.761 291.594 155.232 291.789 155.848 292.049C156.465 292.309 156.87 292.57 157.098 292.797C157.325 293.025 157.6 293.334 157.909 293.708C158.217 294.083 158.428 294.506 158.541 294.994C158.655 295.482 158.687 296.019 158.687 296.62C158.687 298.296 158.249 299.532 157.357 300.33C156.481 301.127 155.346 301.533 153.967 301.533C152.231 301.533 150.917 301.029 150.041 300.037C149.165 299.044 148.662 297.401 148.5 295.124H143.681C143.763 299.175 144.72 302.298 146.537 304.478C148.354 306.658 150.884 307.764 154.177 307.764C156.984 307.764 159.255 306.707 160.991 304.559V304.543ZM140.648 347.979H151.971V341.635H140.648V333.11H153.577V326.603H135.732V364.719H153.675V358.261H140.648V347.963V347.979ZM221.761 362.051C221.696 361.368 221.664 360.701 221.631 360.018C221.599 359.334 221.55 358.423 221.501 357.268C221.437 356.113 221.388 355.105 221.355 354.259C221.193 351.981 220.836 350.273 220.252 349.118C219.668 347.963 218.808 347.117 217.657 346.58V346.417C220.625 345.132 222.102 342.057 222.102 337.193C222.102 334.037 221.388 331.467 219.944 329.515C218.5 327.563 216.618 326.586 214.299 326.586H203.17V364.703H208.085V349.394H212.06C215.029 349.394 216.602 351.558 216.813 355.902C216.829 356.325 216.862 356.91 216.894 357.642C216.927 358.374 216.959 358.96 216.975 359.399C216.992 359.839 217.024 360.359 217.056 360.945C217.089 361.531 217.121 362.019 217.154 362.376C217.186 362.734 217.219 363.109 217.267 363.466C217.316 363.824 217.365 364.101 217.43 364.296C217.494 364.491 217.576 364.621 217.673 364.703H222.394V364.329C222.231 364.215 222.102 363.987 222.004 363.613C221.907 363.239 221.826 362.718 221.761 362.035V362.051ZM216.261 342.009C215.58 342.969 214.574 343.44 213.293 343.44H208.069V332.833H213.423C214.688 332.833 215.645 333.338 216.31 334.33C216.959 335.322 217.3 336.624 217.3 338.218C217.3 339.812 216.959 341.049 216.261 342.009ZM132.585 362.051C132.52 361.368 132.488 360.701 132.455 360.018C132.423 359.334 132.374 358.423 132.326 357.268C132.261 356.113 132.212 355.105 132.18 354.259C132.017 351.981 131.66 350.273 131.076 349.118C130.492 347.963 129.633 347.117 128.481 346.58V346.417C131.45 345.132 132.926 342.057 132.926 337.193C132.926 334.037 132.212 331.467 130.768 329.515C129.324 327.563 127.443 326.586 125.123 326.586H113.994V364.703H118.909V349.394H122.884C125.853 349.394 127.426 351.558 127.637 355.902C127.653 356.325 127.686 356.91 127.718 357.642C127.751 358.374 127.783 358.96 127.799 359.399C127.816 359.839 127.848 360.359 127.881 360.945C127.913 361.531 127.945 362.019 127.978 362.376C128.01 362.734 128.043 363.109 128.091 363.466C128.14 363.824 128.189 364.101 128.254 364.296C128.319 364.491 128.4 364.621 128.497 364.703H133.218V364.329C133.056 364.215 132.926 363.987 132.828 363.613C132.731 363.239 132.65 362.718 132.585 362.035V362.051ZM127.086 342.009C126.404 342.969 125.399 343.44 124.117 343.44H118.893V332.833H124.247C125.512 332.833 126.469 333.338 127.134 334.33C127.783 335.322 128.124 336.624 128.124 338.218C128.124 339.812 127.783 341.049 127.086 342.009ZM206.285 268.769H201.434V288.763C201.434 290.536 201.483 292.749 201.564 295.368H201.499L201.223 294.522C201.061 293.92 200.85 293.172 200.558 292.277C200.266 291.382 200.023 290.65 199.796 290.032L191.717 268.753H186.736V306.869H191.587V287.201C191.587 285.428 191.538 283.199 191.457 280.531H191.522L191.798 281.393C191.96 281.995 192.187 282.727 192.479 283.606C192.771 284.484 193.031 285.216 193.258 285.818L201.531 306.886H206.285V268.769ZM169.995 357.333C169.037 358.553 167.853 359.172 166.426 359.172C164.414 359.172 162.808 357.935 161.591 355.446C160.375 352.957 159.774 349.736 159.774 345.799C159.774 341.862 160.342 338.576 161.478 336.103C162.613 333.631 164.252 332.378 166.393 332.378C167.788 332.378 168.94 332.947 169.832 334.086C170.725 335.225 171.292 336.77 171.519 338.723H176.402C176.127 334.948 175.121 331.874 173.369 329.466C171.617 327.058 169.297 325.871 166.393 325.871C162.889 325.871 160.066 327.758 157.941 331.516C155.816 335.29 154.745 340.04 154.745 345.799C154.745 351.558 155.832 356.243 158.022 359.952C160.212 363.662 163.003 365.516 166.426 365.516C169.508 365.516 171.957 364.166 173.791 361.465C175.445 359.041 176.338 356.048 176.467 352.453H171.649C171.487 354.486 170.935 356.113 169.995 357.333ZM189.121 325.854C185.601 325.854 182.762 327.725 180.62 331.451C178.479 335.176 177.408 339.943 177.408 345.734C177.408 351.526 178.479 356.276 180.62 360.001C182.762 363.71 185.584 365.565 189.121 365.565C192.658 365.565 195.48 363.71 197.605 360.001C199.731 356.292 200.801 351.526 200.801 345.734C200.801 339.943 199.731 335.176 197.605 331.451C195.48 327.725 192.658 325.854 189.121 325.854ZM194.069 355.479C192.933 357.984 191.295 359.237 189.153 359.237C187.012 359.237 185.341 357.968 184.189 355.446C183.021 352.925 182.437 349.687 182.437 345.75C182.437 341.813 183.021 338.511 184.189 335.989C185.357 333.468 187.012 332.199 189.153 332.199C191.295 332.199 192.933 333.468 194.069 335.989C195.205 338.511 195.772 341.765 195.772 345.75C195.772 349.736 195.205 352.973 194.069 355.479Z" fill="#00C2FF"/>
<path d="M547.551 383.486C546.691 383.486 545.98 384.185 545.98 385.057C545.98 385.928 546.679 386.628 547.551 386.628C548.422 386.628 549.121 385.928 549.121 385.057C549.121 384.185 548.422 383.486 547.551 383.486ZM495.345 383.486C494.485 383.486 493.774 384.185 493.774 385.057C493.774 385.928 494.474 386.628 495.345 386.628C496.216 386.628 496.915 385.928 496.915 385.057C496.915 384.185 496.216 383.486 495.345 383.486ZM717.419 290.795H709.292V296.128H717.419V290.795ZM475.306 379.449L475.352 379.587C475.444 379.564 484.363 377.041 495.196 377.041C506.029 377.041 514.948 379.564 515.04 379.587L515.085 379.449L515.212 379.483L516.209 375.997L515.108 375.676L514.203 375.458L513.48 378.325C513.125 378.245 512.712 378.153 512.265 378.05L512.884 375.149L511.761 374.908L511.142 377.821C510.397 377.672 509.571 377.523 508.666 377.362L509.147 374.415L508.012 374.231L507.531 377.179C506.453 377.007 505.284 376.857 504.046 376.708L504.367 373.727L503.232 373.601L502.911 376.582C501.57 376.445 500.137 376.341 498.669 376.273L498.784 373.268L497.638 373.222L497.523 376.227C496.755 376.204 495.987 376.181 495.196 376.181C494.405 376.181 493.637 376.192 492.869 376.227L492.743 373.222L491.596 373.268L491.722 376.273C490.255 376.341 488.822 376.445 487.481 376.582L487.16 373.601L486.025 373.727L486.346 376.708C485.108 376.846 483.939 377.007 482.861 377.179L482.38 374.231L481.245 374.415L481.726 377.362C480.82 377.511 479.995 377.672 479.25 377.821L478.631 374.908L477.507 375.149L478.127 378.05C477.679 378.142 477.267 378.234 476.911 378.325L476.189 375.458L475.284 375.688L474.183 375.997L475.18 379.483L475.306 379.449ZM704.626 298.547C702.849 299.201 702.012 300.932 701.359 302.664V298.318H693.552V323.798H701.359V305.141L707.618 308.042L708.317 298.88C707.285 298.364 706.586 298.272 706.07 298.272C705.417 298.272 704.901 298.41 704.626 298.547ZM717.419 298.318H709.292V323.798H717.419V298.318ZM562.923 413.324H564.31L565.663 410.136H570.478L571.796 413.324H573.183L568.105 401.455L562.9 413.324H562.923ZM566.168 408.943L568.105 404.413L570.008 408.943H566.179H566.168ZM749.449 290.784H741.321V323.787H749.449V290.784ZM603.115 406.913L602.026 406.432C601.602 406.248 601.178 406.053 600.834 405.721C600.524 405.434 600.41 405.182 600.41 404.735C600.41 403.68 601.189 402.991 602.313 402.991C602.954 402.991 603.367 403.209 603.585 403.381C603.837 403.588 604.089 403.92 604.25 404.23L605.247 403.565C604.995 403.072 604.605 402.613 604.147 402.303C603.585 401.925 603.023 401.799 602.335 401.799C600.501 401.799 599.16 402.969 599.16 404.723C599.16 405.572 599.447 406.099 599.94 406.569C600.444 407.062 601.006 407.303 601.453 407.498L602.473 407.98C603.069 408.255 603.505 408.45 603.826 408.76C604.238 409.138 604.387 409.574 604.387 410.078C604.387 411.214 603.654 412.314 602.118 412.314C601.544 412.314 600.983 412.177 600.49 411.684C600.169 411.34 599.894 410.835 599.813 410.239L598.587 410.583C598.736 411.259 599.08 412.039 599.641 412.59C600.421 413.358 601.35 413.507 602.106 413.507C604.147 413.507 605.683 412.119 605.683 410.032C605.683 409.218 605.442 408.553 604.869 407.98C604.387 407.498 603.78 407.2 603.126 406.913H603.115ZM607.792 381.525C607.792 374.484 602.06 368.75 595.022 368.75C587.983 368.75 582.251 374.484 582.251 381.525C582.251 388.566 587.983 394.299 595.022 394.299C602.06 394.299 607.792 388.566 607.792 381.525ZM595.022 393.153C588.613 393.153 583.397 387.935 583.397 381.525C583.397 375.114 588.613 369.897 595.022 369.897C601.43 369.897 606.646 375.114 606.646 381.525C606.646 387.935 601.43 393.153 595.022 393.153ZM607.15 413.312H613.02V412.119H608.4V407.727H612.882V406.535H608.4V403.175H613.02V401.982H607.15V413.301V413.312ZM637.46 401.799C634.204 401.799 631.568 404.276 631.568 407.659C631.568 411.042 634.182 413.518 637.46 413.518C640.739 413.518 643.352 411.019 643.352 407.659C643.352 404.299 640.727 401.799 637.46 401.799ZM637.46 412.326C634.915 412.326 632.863 410.25 632.863 407.659C632.863 405.067 634.915 402.991 637.46 402.991C640.005 402.991 642.057 405.067 642.057 407.659C642.057 410.25 640.005 412.326 637.46 412.326ZM613.49 413.312H614.877L616.229 410.124H621.044L622.362 413.312H623.75L618.671 401.443L613.467 413.312H613.49ZM616.734 408.932L618.671 404.402L620.574 408.932H616.745H616.734ZM733.102 334.463C733.102 333.259 732.528 332.387 731.864 331.951C731.015 331.378 729.88 331.321 729.112 331.321H727.301V342.639H728.562V337.685H728.883L732.322 342.639H733.847L730.247 337.582C731.955 337.467 733.102 336.194 733.102 334.463ZM728.551 336.573V332.513H729.319C729.857 332.513 730.442 332.548 730.946 332.834C731.657 333.247 731.841 333.867 731.841 334.497C731.841 335.816 730.912 336.573 729.342 336.573H728.539H728.551ZM527.523 379.449L527.569 379.587C527.661 379.564 536.58 377.041 547.413 377.041C558.246 377.041 567.165 379.564 567.257 379.587L567.302 379.449L567.429 379.483L568.426 375.997L567.325 375.676L566.42 375.458L565.698 378.325C565.342 378.245 564.929 378.153 564.482 378.05L565.101 375.149L563.978 374.908L563.359 377.821C562.614 377.672 561.788 377.523 560.883 377.362L561.364 374.415L560.229 374.231L559.748 377.179C558.67 377.007 557.501 376.857 556.263 376.708L556.584 373.727L555.449 373.601L555.128 376.582C553.787 376.445 552.354 376.341 550.886 376.273L551.013 373.268L549.866 373.222L549.74 376.227C548.972 376.204 548.204 376.181 547.413 376.181C546.622 376.181 545.854 376.192 545.086 376.227L544.971 373.222L543.825 373.268L543.939 376.273C542.472 376.341 541.039 376.445 539.698 376.582L539.377 373.601L538.242 373.727L538.563 376.708C537.325 376.846 536.156 377.007 535.078 377.179L534.597 374.231L533.462 374.415L533.943 377.362C533.038 377.511 532.212 377.672 531.467 377.821L530.848 374.908L529.725 375.149L530.344 378.05C529.896 378.142 529.484 378.234 529.128 378.325L528.406 375.458L527.501 375.688L526.4 375.997L527.397 379.483L527.523 379.449ZM521.184 368.452H468.967V396.226H573.928V368.452H521.173H521.184ZM521.184 395.675H469.529V394.081H495.024L495.116 394.15L495.162 394.081H521.173V395.675H521.184ZM521.184 393.531H495.551L495.597 393.462L477.393 381.548L494.256 393.531H469.54V369.014H521.184V393.531ZM573.39 395.675H521.746V394.081H547.241L547.333 394.15L547.379 394.081H573.39V395.675ZM573.39 393.531H547.757L547.803 393.462L529.587 381.548L546.45 393.531H521.734V369.014H573.378V393.531H573.39ZM723.919 323.81H726.487C727.84 323.718 728.78 323.626 729.708 322.64C730.316 322.032 730.786 321.195 731.107 320.484V323.798H739.235V298.318H731.107V301.964C730.453 300.657 729.708 299.201 728.252 298.696C727.599 298.421 726.476 298.364 726.384 298.318H724.045C722.922 298.41 722.36 298.547 721.947 298.788C721.718 298.88 721.202 299.212 720.686 299.82C719.425 301.368 719.471 303.237 719.425 303.891V318.386C719.517 319.98 719.609 321.562 720.87 322.823C721.753 323.718 722.601 323.764 723.908 323.81H723.919ZM727.519 315.255V306.7C727.519 306.368 727.519 304.499 729.25 304.453C731.073 304.453 731.073 306.23 731.118 306.609V315.255C731.118 315.817 731.073 316.241 731.027 316.471C730.694 317.64 729.766 317.778 729.342 317.778C729.158 317.778 728.596 317.732 728.172 317.399C727.473 316.838 727.473 316.092 727.519 315.244V315.255ZM582.824 410.789L573.997 401.535V413.335H575.258V404.597L584.085 413.851V402.017H582.836V410.789H582.824ZM735.543 342.662L736.896 339.474H741.711L743.029 342.662H744.416L739.338 330.793L734.133 342.662H735.52H735.543ZM739.326 333.752L741.229 338.281H737.4L739.338 333.752H739.326ZM592.717 403.336C591.296 402.131 589.68 402.017 588.545 402.017H586.24V413.335H588.533C590.551 413.335 591.64 412.911 592.672 412.028C593.485 411.328 594.655 410.055 594.655 407.682C594.655 405.64 593.761 404.207 592.717 403.336ZM591.835 411.122C590.734 412.039 589.496 412.142 588.59 412.142H587.49V403.198H588.59C591.456 403.198 593.359 404.964 593.359 407.682C593.359 409.299 592.683 410.411 591.835 411.122ZM595.033 372.706C590.161 372.706 586.206 376.674 586.206 381.536C586.206 386.398 589.783 389.965 594.322 390.332C594.563 390.355 594.804 390.366 595.045 390.366C599.917 390.366 603.883 386.398 603.883 381.525C603.883 376.651 599.917 372.695 595.045 372.695L595.033 372.706ZM595.033 389.231C591.777 389.231 589.118 386.582 589.118 383.314C589.118 380.045 591.766 377.396 595.033 377.396C598.3 377.396 600.948 380.045 600.948 383.314C600.948 386.582 598.3 389.231 595.033 389.231ZM595.033 376.25C591.135 376.25 587.971 379.415 587.971 383.314C587.971 383.91 588.052 384.472 588.189 385.022C587.65 383.979 587.341 382.798 587.341 381.536C587.341 377.293 590.792 373.853 595.022 373.853C599.252 373.853 602.714 377.305 602.714 381.536C602.714 382.786 602.404 383.967 601.865 385.022C602.003 384.472 602.083 383.898 602.083 383.314C602.083 379.415 598.919 376.25 595.022 376.25H595.033ZM628.312 406.925L627.223 406.443C626.799 406.26 626.375 406.065 626.031 405.732C625.721 405.445 625.607 405.193 625.607 404.746C625.607 403.691 626.386 403.003 627.51 403.003C628.152 403.003 628.564 403.221 628.782 403.393C629.034 403.599 629.287 403.932 629.447 404.241L630.444 403.576C630.192 403.083 629.802 402.625 629.344 402.315C628.782 401.936 628.22 401.81 627.533 401.81C625.698 401.81 624.357 402.98 624.357 404.735C624.357 405.583 624.644 406.111 625.137 406.581C625.641 407.074 626.203 407.315 626.65 407.51L627.67 407.991C628.266 408.266 628.702 408.461 629.023 408.771C629.436 409.149 629.585 409.585 629.585 410.09C629.585 411.225 628.851 412.326 627.315 412.326C626.742 412.326 626.18 412.188 625.687 411.695C625.366 411.351 625.091 410.847 625.011 410.25L623.784 410.594C623.933 411.271 624.277 412.051 624.839 412.601C625.618 413.369 626.547 413.518 627.303 413.518C629.344 413.518 630.88 412.131 630.88 410.044C630.88 409.23 630.639 408.565 630.066 407.991C629.585 407.51 628.977 407.211 628.324 406.925H628.312ZM726.82 379.69C729.25 379.69 731.222 377.706 731.222 375.275C731.222 372.844 729.25 370.872 726.82 370.872C724.389 370.872 722.417 372.844 722.417 375.275C722.417 377.706 724.389 379.69 726.82 379.69ZM460.438 155.401C461.332 155.401 462.238 155.366 463.132 155.309L468.222 145.848L466.972 143.991C463.613 139.014 459.234 134.84 454.156 131.732C452.494 130.7 450.751 129.783 448.94 129.003C448.608 128.854 448.275 128.716 447.931 128.579L430.988 121.733L422.333 137.81L436.192 147.66C439.93 150.309 444.045 152.316 448.367 153.623C450.167 154.162 452.001 154.587 453.858 154.873C456.025 155.229 458.226 155.401 460.438 155.401ZM665.89 375.011H664.629V386.329H665.89V375.011ZM724.08 155.871C723.816 155.596 723.552 155.32 723.277 155.057C722.75 154.552 722.2 154.071 721.638 153.623C721.397 153.44 721.156 153.256 720.916 153.073C716.651 149.896 711.47 148.245 706.128 148.325C702.895 148.383 699.777 149.071 696.911 150.309C694.045 151.559 691.408 153.382 689.173 155.699C679.922 165.274 680.185 180.594 689.769 189.849C694.446 194.367 700.499 196.614 706.54 196.614C712.582 196.614 719.185 194.16 723.908 189.252C728.39 184.619 730.797 178.507 730.683 172.051C730.58 166.272 728.47 160.836 724.687 156.547C724.492 156.318 724.286 156.089 724.08 155.871ZM723.082 188.461C714.278 197.589 699.685 197.841 690.56 189.023C681.435 180.205 681.183 165.618 689.998 156.49C692.898 153.486 696.429 151.444 700.189 150.367C696.991 151.536 693.988 153.44 691.443 156.077C682.684 165.148 682.719 179.448 691.523 187.945C695.741 192.016 701.21 194.034 706.735 194.034C712.731 194.034 718.795 191.649 723.357 186.924C726.281 183.897 728.218 180.296 729.181 176.512C728.402 180.984 726.315 185.113 723.082 188.461ZM722.532 186.122C714.221 194.734 700.671 195.181 692.325 187.119C683.98 179.058 683.945 165.492 692.268 156.88C694.377 154.69 696.831 153.027 699.456 151.926C697.358 153.004 695.432 154.437 693.747 156.18C689.895 160.171 687.751 165.366 687.728 170.801C687.694 176.26 689.792 181.328 693.644 185.044C697.404 188.679 702.299 190.468 707.251 190.468C712.731 190.468 718.291 188.278 722.475 183.931C726.338 179.941 728.47 174.746 728.505 169.311C728.505 168.416 728.459 167.522 728.344 166.65C729.685 173.37 727.76 180.721 722.532 186.122ZM720.01 181.546C713.338 188.438 702.585 188.897 696.028 182.567C692.864 179.505 691.133 175.331 691.167 170.813C691.179 168.542 691.637 166.318 692.486 164.242C693.346 162.166 694.607 160.24 696.223 158.566C699.467 155.217 703.743 153.268 708.294 153.084C708.523 153.073 708.753 153.061 708.993 153.061C713.235 153.061 717.202 154.644 720.194 157.545C723.357 160.595 725.089 164.77 725.066 169.288C725.043 173.84 723.243 178.186 720.01 181.546ZM626.466 375.011H625.205V386.329H626.466V375.011ZM642.057 385.148H637.437V380.756H641.92V379.564H637.437V376.204H642.057V375.011H636.188V386.329H642.057V385.137V385.148ZM629.848 381.376H630.169L633.608 386.329H635.133L631.533 381.272C633.242 381.158 634.388 379.885 634.388 378.153C634.388 376.949 633.815 376.078 633.15 375.642C632.301 375.069 631.167 375.011 630.399 375.011H628.587V386.329H629.848V381.376ZM629.848 376.204H630.616C631.155 376.204 631.74 376.238 632.244 376.525C632.955 376.938 633.138 377.557 633.138 378.188C633.138 379.506 632.21 380.252 630.639 380.252H629.837V376.192L629.848 376.204ZM727.725 75.2786C701.771 69.6252 675.164 74.4071 652.81 88.7642C642.069 95.656 632.932 104.371 625.71 114.439H582.446C568.472 94.8992 548.147 81.2416 524.543 75.657C498.692 69.5564 472.016 73.8796 449.41 87.8468C426.815 101.814 411.007 123.751 404.897 149.61C398.798 175.469 403.12 202.153 417.082 224.755C425.13 237.782 435.803 248.55 448.367 256.497V406.856C448.367 417.452 456.953 426.041 467.546 426.041H740.679C751.283 426.041 759.869 417.452 759.869 406.856V256.37C781.49 242.621 797.826 220.604 803.706 193.656C815.388 140.069 781.295 86.9638 727.725 75.2786ZM420.006 222.955C392.183 177.9 406.18 118.614 451.221 90.7709C466.904 81.0811 484.317 76.4597 501.524 76.4597C530.848 76.4597 559.587 89.8765 578.181 114.439C579.42 116.068 580.612 117.754 581.747 119.485C582.297 120.311 582.824 121.148 583.352 121.996C596.833 143.819 601.006 169.586 595.113 194.55C589.221 219.514 573.963 240.695 552.147 254.169C536.454 263.87 519.052 268.491 501.833 268.491C485.051 268.48 468.463 264.088 453.858 255.717C451.989 254.662 450.155 253.527 448.367 252.322C437.224 244.926 427.48 235.053 420.006 222.955ZM754.378 403.714C754.378 412.165 747.523 419.011 739.074 419.011H469.15C460.702 419.011 453.858 412.165 453.858 403.714V371.514C453.858 363.062 460.702 356.205 469.15 356.205H739.074C747.523 356.205 754.378 363.062 754.378 371.514V403.714ZM754.378 335.61C754.378 344.061 747.523 350.907 739.074 350.907H469.15C460.702 350.907 453.858 344.061 453.858 335.61V259.73C461.607 263.973 469.987 267.196 478.826 269.283C486.472 271.094 494.199 271.989 501.868 271.989C520.106 271.989 538.047 266.932 553.947 257.104C576.554 243.137 592.351 221.2 598.461 195.341C604.571 169.483 600.238 142.798 586.286 120.185C586.137 119.944 586 119.714 585.839 119.485H622.317C616.264 129.118 611.873 139.84 609.374 151.284C603.723 177.246 608.514 203.862 622.867 226.223C637.208 248.584 659.413 264.008 685.367 269.672C692.474 271.221 699.57 271.966 706.563 271.966C723.575 271.954 739.968 267.551 754.378 259.627V335.61ZM800.348 192.933C795.005 217.416 780.653 238.458 759.869 252.334C759.388 252.655 758.906 252.976 758.413 253.286C757.084 254.146 755.742 254.96 754.378 255.751C733.675 267.677 709.601 271.438 686.101 266.301C661.041 260.843 639.615 245.947 625.756 224.365C611.896 202.772 607.276 177.085 612.744 152.018C615.312 140.229 619.967 129.255 626.409 119.485C627.556 117.765 628.748 116.079 629.997 114.439C636.715 105.564 645.026 97.8577 654.667 91.6654C670.338 81.5971 688.164 76.4024 706.357 76.4024C713.212 76.4024 720.125 77.1478 726.991 78.6385C778.716 89.9224 811.616 141.193 800.348 192.933ZM498.211 172.923C498.314 173.037 498.429 173.152 498.543 173.267C498.692 173.404 498.864 173.542 499.036 173.68H499.059C499.185 173.771 499.3 173.852 499.426 173.932C499.541 174.001 499.655 174.058 499.781 174.127C499.85 174.161 499.93 174.196 499.999 174.219C500.653 174.517 501.295 174.643 501.891 174.643C503.392 174.643 504.688 173.852 505.456 172.774C506.705 171.065 506.877 168.336 504.321 166.352C501.65 164.563 499.105 165.607 497.878 167.327C496.87 168.737 496.594 170.836 497.97 172.613C498.039 172.716 498.119 172.82 498.211 172.923ZM498.509 168.405C499.437 167.132 501.34 166.386 503.312 167.751C505.238 169.196 505.135 171.237 504.229 172.521C503.438 173.645 501.879 174.368 500.16 173.645C499.999 173.576 499.827 173.485 499.667 173.393C499.564 173.347 499.472 173.278 499.38 173.221C499.243 173.118 499.117 173.003 499.002 172.9C498.899 172.808 498.807 172.705 498.715 172.602C497.5 171.191 497.706 169.494 498.509 168.405ZM543.206 154.999C551.528 154.415 559.496 151.353 566.064 146.215L580.463 134.954L570.925 119.485L570.879 119.416L570.73 119.485L555.426 126.503C551.047 128.498 547.092 131.228 543.699 134.53C540.294 137.833 537.463 141.709 535.33 146.02L540.97 155.148L543.206 154.999ZM498.899 214.515L497.913 216.521C494.256 224.021 492.926 232.45 494.084 240.718L496.64 258.824L514.879 258.274L516.473 241.348C516.599 240.029 516.656 238.722 516.656 237.403C516.656 229.181 514.226 221.085 509.629 214.194L498.899 214.515ZM707.389 166.134C705.6 166.467 703.858 167.889 703.743 170.32C703.72 170.549 703.732 170.79 703.743 171.042C703.766 171.191 703.778 171.352 703.8 171.512C703.823 171.673 703.858 171.81 703.904 171.948C703.995 172.235 704.087 172.498 704.213 172.751C705.027 174.597 706.678 175.388 708.237 175.388C708.512 175.388 708.787 175.365 709.051 175.319C711.126 174.952 713.155 173.106 712.685 169.907C712.008 166.765 709.464 165.756 707.389 166.134ZM708.34 174.287C706.781 174.574 704.889 173.806 704.374 171.421C704.03 169.001 705.543 167.602 707.091 167.338C708.627 167.074 710.518 167.866 711 170.216C711.378 172.59 709.888 173.989 708.34 174.287ZM759.869 174.517C758.024 174.666 756.189 174.93 754.378 175.319C752.601 175.709 750.847 176.214 749.116 176.833L746.835 187.326L748.543 188.759C750.377 190.296 752.326 191.672 754.378 192.853C756.144 193.885 757.978 194.791 759.869 195.548C763.446 196.981 767.218 197.933 771.092 198.334L789.274 200.238L793.16 182.406L777.122 176.753C772.628 175.17 767.928 174.379 763.228 174.379C762.105 174.379 760.993 174.425 759.869 174.517ZM501.684 196.626C514.994 196.626 525.827 185.789 525.827 172.476C525.827 159.162 515.578 148.922 502.762 148.36C502.384 148.337 502.005 148.325 501.627 148.325C500.859 148.325 500.102 148.36 499.369 148.44C499.071 148.474 498.773 148.509 498.475 148.555C486.655 150.114 477.53 160.24 477.53 172.476C477.53 185.789 488.364 196.626 501.684 196.626ZM501.134 152.247C510.248 152.247 517.665 160.045 517.665 169.643C517.665 179.241 510.248 187.039 501.134 187.039C492.02 187.039 484.603 179.23 484.603 169.643C484.603 160.056 492.02 152.247 501.134 152.247ZM501.134 190.479C512.139 190.479 521.104 181.133 521.104 169.643C521.104 162.912 518.02 156.914 513.263 153.107C518.926 156.995 522.663 163.646 522.663 171.18C522.663 183.152 513.228 192.899 501.627 192.899C490.026 192.899 480.58 183.152 480.58 171.18C480.58 167.866 481.302 164.712 482.597 161.903C481.669 164.299 481.164 166.914 481.164 169.643C481.164 181.133 490.118 190.479 501.134 190.479ZM481.818 160.894C480.293 163.99 479.433 167.476 479.433 171.18C479.433 183.782 489.395 194.046 501.627 194.046C513.859 194.046 523.809 183.782 523.809 171.18C523.809 167.006 522.72 163.095 520.817 159.735C523.259 163.382 524.681 167.774 524.681 172.476C524.681 185.158 514.363 195.479 501.684 195.479C489.006 195.479 478.677 185.158 478.677 172.476C478.677 168.256 479.823 164.299 481.818 160.894ZM498.486 410.778L489.659 401.524V413.324H490.92V404.585L499.747 413.84V402.005H498.497V410.778H498.486ZM621.721 385.034C622.534 384.334 623.704 383.061 623.704 380.688C623.704 378.646 622.81 377.201 621.766 376.341C620.345 375.137 618.729 375.023 617.594 375.023H615.289V386.341H617.582C619.6 386.341 620.689 385.917 621.721 385.034ZM616.55 376.204H617.651C620.517 376.204 622.42 377.97 622.42 380.688C622.42 382.304 621.743 383.417 620.895 384.128C619.795 385.045 618.557 385.148 617.651 385.148H616.55V376.204ZM513.251 407.705C513.251 410.984 515.75 413.53 519.109 413.53C519.957 413.53 521.264 413.324 522.514 412.429V410.87C522.308 411.076 521.849 411.5 521.207 411.821C520.611 412.131 519.866 412.349 519.109 412.349C517.034 412.349 514.547 410.801 514.547 407.727C514.547 405.113 516.484 403.014 519.098 403.014C519.763 403.014 520.45 403.186 521.047 403.45C521.62 403.725 522.17 404.15 522.525 404.505V402.946C521.173 401.914 519.866 401.822 519.178 401.822C515.785 401.822 513.251 404.333 513.251 407.716V407.705ZM522.846 413.324H524.233L525.586 410.136H530.401L531.719 413.324H533.106L528.028 401.455L522.823 413.324H522.846ZM526.091 408.943L528.028 404.413L529.931 408.943H526.102H526.091ZM539.939 410.927L535.594 401.375L533.714 413.324H534.998L536.121 405.445L539.927 413.794L543.779 405.445L544.845 413.324H546.129L544.364 401.363L539.939 410.938V410.927ZM553.592 411.787C553.133 411.787 552.744 412.177 552.744 412.635C552.744 413.094 553.133 413.484 553.592 413.484C554.05 413.484 554.44 413.094 554.44 412.635C554.44 412.177 554.05 411.787 553.592 411.787ZM678.042 114.439C678.603 116.16 679.28 117.857 680.071 119.485C680.541 120.494 681.057 121.469 681.618 122.432C684.003 126.526 687.075 130.218 690.743 133.338L700.969 130.069L701.359 127.868C701.852 125.093 702.058 122.283 701.978 119.485C701.932 117.799 701.783 116.114 701.531 114.439C700.98 110.701 699.926 107.032 698.367 103.546L690.927 86.8491L673.548 92.3993L676.677 109.107C677.021 110.919 677.468 112.696 678.042 114.439ZM673.238 201.534C665.397 204.389 658.588 209.526 653.681 216.281L642.94 231.074L656.444 243.366L669.341 232.301C672.998 229.17 676.047 225.466 678.408 221.349C680.758 217.244 682.421 212.737 683.28 208.001L675.336 200.777L673.238 201.534ZM553.741 405.228C553.741 404.517 553.535 403.508 552.709 402.797C551.941 402.131 550.99 401.994 549.855 401.994H547.803V413.312H549.064V408.393H550.164C552.744 408.393 553.741 406.81 553.741 405.216V405.228ZM550.095 407.211H549.064V403.186H549.992C550.806 403.186 552.491 403.358 552.491 405.159C552.491 406.466 551.586 407.211 550.095 407.211ZM508.563 361.422H481.818V364.84H508.563V361.422ZM473.105 406.913L472.016 406.432C471.592 406.248 471.168 406.053 470.824 405.721C470.515 405.434 470.4 405.182 470.4 404.735C470.4 403.68 471.18 402.991 472.303 402.991C472.945 402.991 473.358 403.209 473.575 403.381C473.828 403.588 474.08 403.92 474.24 404.23L475.238 403.565C474.985 403.072 474.596 402.613 474.137 402.303C473.575 401.925 473.014 401.799 472.326 401.799C470.492 401.799 469.15 402.969 469.15 404.723C469.15 405.572 469.437 406.099 469.93 406.569C470.434 407.062 470.996 407.303 471.443 407.498L472.463 407.98C473.06 408.255 473.495 408.45 473.816 408.76C474.229 409.138 474.378 409.574 474.378 410.078C474.378 411.214 473.644 412.314 472.108 412.314C471.535 412.314 470.973 412.177 470.48 411.684C470.159 411.34 469.884 410.835 469.804 410.239L468.577 410.583C468.726 411.259 469.07 412.039 469.632 412.59C470.411 413.358 471.34 413.507 472.097 413.507C474.137 413.507 475.673 412.119 475.673 410.032C475.673 409.218 475.433 408.553 474.859 407.98C474.378 407.498 473.77 407.2 473.117 406.913H473.105ZM560.757 361.422H534.012V364.84H560.757V361.422ZM560.78 407.28C561.777 406.604 561.903 405.617 561.903 405.056C561.903 403.68 561.238 402.98 560.883 402.716C560.046 402.051 558.911 402.005 558.292 402.005H556.251V413.324H559.072C559.851 413.324 560.883 413.289 561.788 412.578C562.396 412.097 562.946 411.225 562.946 410.136C562.946 409.046 562.373 407.67 560.791 407.28H560.78ZM557.501 403.186H558.487C558.842 403.186 560.676 403.221 560.676 405.09C560.676 406.833 559.117 406.971 558.452 406.971H557.501V403.186ZM560.929 411.661C560.39 412.085 559.668 412.142 558.945 412.142H557.501V408.106H558.785C559.679 408.106 560.275 408.209 560.699 408.45C561.135 408.691 561.662 409.218 561.662 410.113C561.662 410.789 561.353 411.351 560.917 411.672L560.929 411.661ZM507.691 408.828H511.05C511.016 409.539 510.798 410.09 510.592 410.445C509.95 411.58 508.643 412.349 507.13 412.349C504.986 412.349 502.533 410.789 502.533 407.693C502.533 405.067 504.436 403.014 507.164 403.014C508.517 403.014 509.365 403.519 509.915 403.966C510.294 404.276 510.66 404.677 510.981 405.136L511.91 404.287C511.589 403.852 511.108 403.336 510.603 402.946C509.503 402.097 508.23 401.822 507.141 401.822C503.759 401.822 501.237 404.379 501.237 407.682C501.237 410.984 503.748 413.541 507.107 413.541C509.697 413.541 510.97 411.959 511.314 411.5C512.025 410.537 512.403 409.172 512.403 407.922V407.647H507.68V408.84L507.691 408.828ZM482.253 401.822C478.998 401.822 476.361 404.299 476.361 407.682C476.361 411.064 478.975 413.541 482.253 413.541C485.532 413.541 488.146 411.042 488.146 407.682C488.146 404.322 485.521 401.822 482.253 401.822ZM482.253 412.349C479.709 412.349 477.657 410.273 477.657 407.682C477.657 405.09 479.709 403.014 482.253 403.014C484.798 403.014 486.85 405.09 486.85 407.682C486.85 410.273 484.798 412.349 482.253 412.349ZM569.584 263.549C570.34 264.065 571.28 264.329 572.415 264.329C573.802 264.329 575.384 263.893 577.161 263.033C578.663 262.288 579.821 261.45 580.658 260.533C581.483 259.616 582.4 258.102 583.397 256.003C585.048 252.54 586.791 250.132 588.636 248.756C589.347 249.536 589.702 250.419 589.702 251.417C589.702 252.575 589.359 253.561 588.671 254.387C587.983 255.212 587.158 255.637 586.183 255.637C585.656 255.637 585.117 255.487 584.601 255.189C584.509 255.143 584.441 255.109 584.395 255.109C584.349 255.109 584.315 255.132 584.292 255.189C584.292 255.35 584.555 255.522 585.083 255.705C585.61 255.889 586.103 255.981 586.55 255.981C587.719 255.981 588.74 255.579 589.611 254.776C590.482 253.974 590.918 253.022 590.918 251.944C590.918 250.66 590.287 249.501 589.015 248.481C590.505 247.552 591.949 247.093 593.359 247.093C594.403 247.093 595.239 247.414 595.881 248.068C596.512 248.71 596.833 249.57 596.833 250.637C596.833 251.325 596.718 251.967 596.5 252.552C596.489 252.598 596.478 252.644 596.478 252.666C596.478 252.747 596.523 252.793 596.604 252.793C596.707 252.793 596.821 252.529 596.948 252.001C597.074 251.474 597.119 250.992 597.119 250.556C597.119 249.444 596.776 248.55 596.088 247.873C595.4 247.197 594.483 246.853 593.348 246.853C591.904 246.853 590.402 247.334 588.854 248.297C587.158 247.185 585.071 246.635 582.572 246.635C579.293 246.635 576.301 247.621 573.596 249.605C570.891 251.589 569.538 253.767 569.538 256.175C569.538 257.357 569.893 258.308 570.604 259.019C571.315 259.73 572.255 260.086 573.436 260.086C575.235 260.086 577.07 259.249 578.927 257.563C580.784 255.889 581.712 254.226 581.712 252.575C581.712 251.222 580.979 250.556 579.523 250.556C578.067 250.556 576.508 251.187 575.063 252.437C573.619 253.687 572.885 254.971 572.885 256.302C572.885 256.829 573.023 257.288 573.309 257.655C573.585 258.022 573.928 258.205 574.341 258.205C574.502 258.205 574.582 258.171 574.582 258.102C574.582 258.022 574.513 257.987 574.364 257.987C574.089 257.987 573.848 257.873 573.653 257.655C573.447 257.437 573.344 257.173 573.344 256.863C573.344 255.625 574.066 254.306 575.51 252.896C576.955 251.485 578.308 250.786 579.569 250.786C580.83 250.786 581.46 251.405 581.46 252.632C581.46 254.18 580.554 255.763 578.732 257.402C576.909 259.042 575.155 259.856 573.447 259.856C572.404 259.856 571.578 259.581 570.971 259.019C570.363 258.457 570.054 257.701 570.054 256.76C570.054 254.891 571.143 252.896 573.309 250.774C575.958 248.194 579.064 246.898 582.641 246.898C585.197 246.898 587.135 247.46 588.464 248.584C587.65 249.146 586.665 250.075 585.507 251.371C584.349 252.666 583.34 253.962 582.48 255.247C580.772 257.861 579.66 259.501 579.156 260.178C578.686 260.808 578.124 261.416 577.471 262.024C575.958 263.4 574.284 264.088 572.427 264.088C571.372 264.088 570.501 263.859 569.813 263.388C569.125 262.918 568.781 262.333 568.781 261.634C568.781 261.187 568.85 260.957 568.988 260.957C569.033 260.957 569.045 261.049 569.033 261.233C569.022 261.691 569.228 261.921 569.664 261.921C569.916 261.921 570.134 261.817 570.306 261.611C570.478 261.405 570.57 261.164 570.57 260.877C570.57 260.304 570.306 260.017 569.79 260.017C569.435 260.017 569.125 260.178 568.873 260.487C568.621 260.797 568.483 261.175 568.483 261.611C568.483 262.391 568.861 263.044 569.618 263.56L569.584 263.549ZM488.467 305.164L494.726 308.065L495.425 298.903C494.393 298.387 493.694 298.295 493.178 298.295C492.525 298.295 492.009 298.433 491.734 298.57C489.957 299.224 489.12 300.955 488.467 302.687V298.341H480.66V323.821H488.467V305.164ZM514.249 331.172C510.993 331.172 508.356 333.649 508.356 337.031C508.356 340.414 510.97 342.891 514.249 342.891C517.527 342.891 520.141 340.391 520.141 337.031C520.141 333.672 517.516 331.172 514.249 331.172ZM514.249 341.699C511.704 341.699 509.652 339.623 509.652 337.031C509.652 334.44 511.704 332.364 514.249 332.364C516.793 332.364 518.845 334.44 518.845 337.031C518.845 339.623 516.793 341.699 514.249 341.699ZM618.43 331.172C615.175 331.172 612.538 333.649 612.538 337.031C612.538 340.414 615.152 342.891 618.43 342.891C621.709 342.891 624.323 340.391 624.323 337.031C624.323 333.672 621.698 331.172 618.43 331.172ZM618.43 341.699C615.885 341.699 613.834 339.623 613.834 337.031C613.834 334.44 615.885 332.364 618.43 332.364C620.975 332.364 623.027 334.44 623.027 337.031C623.027 339.623 620.975 341.699 618.43 341.699ZM491.803 342.685H497.672V341.492H493.052V337.1H497.535V335.908H493.052V332.548H497.672V331.355H491.803V342.673V342.685ZM498.429 337.066C498.429 340.346 500.928 342.891 504.287 342.891C505.135 342.891 506.442 342.685 507.691 341.79V340.231C507.485 340.437 507.026 340.862 506.384 341.183C505.788 341.492 505.043 341.71 504.287 341.71C502.212 341.71 499.724 340.162 499.724 337.089C499.724 334.474 501.661 332.376 504.275 332.376C504.94 332.376 505.628 332.548 506.224 332.812C506.797 333.087 507.347 333.511 507.703 333.867V332.307C506.35 331.275 505.043 331.183 504.355 331.183C500.962 331.183 498.429 333.695 498.429 337.077V337.066ZM490.014 334.497C490.014 333.293 489.441 332.422 488.776 331.986C487.928 331.413 486.793 331.355 486.025 331.355H484.214V342.673H485.475V337.72H485.796L489.235 342.673H490.759L487.16 337.616C488.868 337.502 490.014 336.229 490.014 334.497ZM485.463 336.607V332.548H486.231C486.77 332.548 487.355 332.582 487.859 332.869C488.57 333.282 488.753 333.901 488.753 334.532C488.753 335.85 487.825 336.607 486.254 336.607H485.452H485.463ZM626.237 306.907V323.833H634.227V302.985C634.182 301.494 634.09 300.325 632.829 299.293C631.843 298.455 630.96 298.41 629.699 298.352H627.544C627.361 298.398 626.283 298.398 625.538 298.731C624.139 299.338 623.153 300.978 623.016 301.208C622.878 301.483 622.683 301.724 622.546 301.999C622.408 301.483 621.892 299.384 619.886 298.685C619.187 298.455 618.155 298.398 618.064 298.352H615.725C615.496 298.398 614.418 298.444 613.57 298.822C612.217 299.43 611.323 300.978 610.715 302.24V298.364H602.725V323.844H610.715V306.827C610.715 306.827 610.715 306.081 610.899 305.657C611.128 304.912 611.782 304.396 612.63 304.396C613.1 304.396 614.074 304.533 614.407 305.703C614.498 306.219 614.498 306.689 614.498 306.872V323.844H622.534V306.918C622.534 306.735 622.397 305.278 623.371 304.579C623.646 304.35 624.025 304.246 624.357 304.246C625.71 304.246 626.088 305.416 626.18 305.795C626.272 306.219 626.226 306.872 626.226 306.918L626.237 306.907ZM470.068 342.685H471.455L472.807 339.497H477.622L478.94 342.685H480.328L475.249 330.816L470.045 342.685H470.068ZM473.312 338.304L475.249 333.775L477.152 338.304H473.323H473.312ZM643.868 338.19H647.227C647.193 338.901 646.975 339.451 646.769 339.807C646.127 340.942 644.82 341.71 643.307 341.71C641.163 341.71 638.71 340.151 638.71 337.054C638.71 334.428 640.613 332.376 643.341 332.376C644.694 332.376 645.542 332.88 646.092 333.328C646.471 333.637 646.837 334.039 647.158 334.497L648.087 333.649C647.766 333.213 647.285 332.697 646.78 332.307C645.68 331.458 644.407 331.183 643.318 331.183C639.936 331.183 637.414 333.74 637.414 337.043C637.414 340.346 639.925 342.903 643.284 342.903C645.874 342.903 647.158 341.32 647.491 340.862C648.202 339.898 648.58 338.534 648.58 337.284V337.009H643.857V338.201L643.868 338.19ZM649.417 337.066C649.417 340.346 651.916 342.891 655.275 342.891C656.123 342.891 657.43 342.685 658.679 341.79V340.231C658.473 340.437 658.015 340.862 657.373 341.183C656.776 341.492 656.031 341.71 655.275 341.71C653.2 341.71 650.712 340.162 650.712 337.089C650.712 334.474 652.65 332.376 655.263 332.376C655.928 332.376 656.616 332.548 657.212 332.812C657.785 333.087 658.336 333.511 658.691 333.867V332.307C657.338 331.275 656.031 331.183 655.343 331.183C651.95 331.183 649.417 333.695 649.417 337.077V337.066ZM640.785 323.833H643.352C644.705 323.741 645.645 323.649 646.574 322.663C647.181 322.055 647.651 321.218 647.972 320.507V323.821H656.1V298.341H647.972V301.987C647.319 300.68 646.574 299.224 645.118 298.719C644.464 298.444 643.341 298.387 643.249 298.341H640.911C639.787 298.433 639.226 298.57 638.813 298.811C638.584 298.903 638.068 299.235 637.552 299.843C636.291 301.391 636.337 303.26 636.291 303.914V318.409C636.383 320.003 636.474 321.585 637.735 322.846C638.618 323.741 639.466 323.787 640.773 323.833H640.785ZM644.384 315.278V306.723C644.384 306.391 644.384 304.522 646.115 304.476C647.938 304.476 647.938 306.253 647.984 306.632V315.278C647.984 315.84 647.938 316.264 647.892 316.494C647.56 317.663 646.631 317.801 646.207 317.801C646.024 317.801 645.462 317.755 645.038 317.422C644.338 316.86 644.338 316.115 644.384 315.267V315.278ZM559.45 284.339C560.275 284.878 561.33 285.142 562.614 285.142C564.803 285.142 566.913 284.419 568.965 282.986C569.733 282.447 570.352 281.897 570.799 281.335C571.257 280.773 571.842 279.844 572.576 278.537C572.805 278.124 572.977 277.814 573.092 277.596L573.332 277.642C573.802 277.723 574.158 277.768 574.398 277.791C573.791 279.179 573.206 279.97 572.622 280.142C572.541 280.165 572.495 280.199 572.495 280.245C572.495 280.291 572.553 280.326 572.679 280.326C573.023 280.326 573.401 280.154 573.802 279.81C574.204 279.466 574.502 279.053 574.719 278.56C574.903 278.147 575.006 277.917 575.04 277.883H575.293C575.946 277.883 576.473 277.768 576.875 277.539C577.276 277.31 577.482 277 577.482 276.633C577.482 276.163 577.184 275.934 576.577 275.934C575.694 275.934 575.018 276.484 574.547 277.573C574.204 277.528 573.768 277.459 573.241 277.367C574.295 275.418 575.281 273.927 576.187 272.883C577.092 271.84 578.078 271.072 579.156 270.567C581.368 271.037 583.237 271.266 584.762 271.266C585.931 271.266 586.928 271.117 587.765 270.831C588.59 270.544 589.015 270.189 589.015 269.764C589.015 269.409 588.717 269.122 588.12 268.904C587.524 268.686 586.733 268.583 585.759 268.583C584.108 268.583 582.331 268.95 580.451 269.672C578.032 269.099 576.496 268.755 575.866 268.629C575.235 268.514 574.536 268.457 573.779 268.457C572.587 268.457 571.533 268.572 570.638 268.801C569.939 267.746 568.804 267.207 567.245 267.207C565.491 267.207 563.795 267.975 562.144 269.5C561.433 270.166 561.078 270.567 561.078 270.716C561.089 270.773 561.124 270.808 561.181 270.808C561.192 270.808 561.273 270.739 561.422 270.59C563.187 268.468 565.159 267.413 567.337 267.413C568.667 267.413 569.653 267.895 570.294 268.847C568.242 269.283 566.385 270.315 564.723 271.954C563.061 273.594 562.224 275.211 562.224 276.817C562.224 277.516 562.442 278.089 562.877 278.525C563.313 278.961 563.875 279.179 564.563 279.179C566.202 279.179 567.75 278.365 569.194 276.725C570.638 275.085 571.361 273.342 571.361 271.496C571.361 270.613 571.177 269.822 570.81 269.122C571.04 269.111 571.28 269.099 571.533 269.099C572.782 269.099 574.548 269.397 576.817 269.994C577.517 270.177 578.204 270.349 578.846 270.487C576.416 271.576 574.089 273.789 571.865 277.149H571.498C570.971 277.149 570.455 277.298 569.985 277.596C569.503 277.895 569.263 278.216 569.263 278.56C569.263 278.628 569.297 278.663 569.366 278.663C569.412 278.663 569.458 278.606 569.503 278.479C569.87 277.745 570.524 277.39 571.475 277.39H571.716C571.452 277.791 571.257 278.101 571.12 278.296C569.538 280.716 568.093 282.424 566.775 283.41C565.457 284.397 563.967 284.89 562.316 284.89C561.261 284.89 560.367 284.637 559.633 284.133C558.888 283.628 558.521 283.02 558.521 282.309C558.521 281.862 558.602 281.633 558.762 281.633C558.842 281.633 558.865 281.736 558.842 281.943C558.842 282.344 559.049 282.539 559.461 282.539C559.702 282.539 559.92 282.447 560.092 282.252C560.264 282.057 560.355 281.839 560.355 281.576C560.355 281.002 560.08 280.727 559.519 280.727C559.175 280.727 558.877 280.876 558.624 281.174C558.372 281.472 558.246 281.839 558.246 282.264C558.246 283.112 558.659 283.8 559.484 284.339H559.45ZM575.212 277.413C575.602 276.541 576.072 276.106 576.622 276.106C577.035 276.106 577.241 276.289 577.241 276.656C577.241 276.943 577.07 277.184 576.726 277.367C576.382 277.551 575.946 277.642 575.419 277.642H575.098L575.201 277.413H575.212ZM585.908 268.824C586.688 268.824 587.352 268.916 587.914 269.111C588.464 269.306 588.751 269.523 588.751 269.787C588.751 270.017 588.522 270.223 588.063 270.395C587.605 270.567 587.066 270.659 586.458 270.659C585.266 270.659 583.959 270.498 582.526 270.166L580.818 269.787C582.354 269.145 584.051 268.824 585.897 268.824H585.908ZM570.856 270.911C570.856 272.723 570.145 274.512 568.724 276.278C567.302 278.044 565.847 278.927 564.379 278.927C563.817 278.927 563.347 278.72 562.981 278.307C562.602 277.895 562.419 277.39 562.419 276.794C562.419 275.2 563.267 273.594 564.975 271.977C566.683 270.361 568.506 269.432 570.455 269.191C570.73 269.764 570.879 270.338 570.879 270.911H570.856ZM634.652 340.151L625.825 330.896V342.696H627.086V333.958L635.913 343.212V331.378H634.663V340.151H634.652ZM652.053 385.481V383.921C651.847 384.128 651.389 384.552 650.747 384.873C650.15 385.183 649.405 385.401 648.649 385.401C646.574 385.401 644.086 383.853 644.086 380.779C644.086 378.165 646.024 376.066 648.637 376.066C649.302 376.066 649.99 376.238 650.586 376.502C651.159 376.777 651.71 377.201 652.065 377.557V375.997C650.712 374.965 649.405 374.874 648.717 374.874C645.324 374.874 642.791 377.385 642.791 380.768C642.791 384.151 645.29 386.593 648.649 386.593C649.497 386.593 650.804 386.387 652.053 385.492V385.481ZM472.2 323.798H473.931C475.054 323.752 475.375 323.706 475.937 323.512C476.636 323.236 477.015 322.904 477.244 322.674C478.551 321.459 478.551 320.014 478.597 319.406V302.767C478.551 302.159 478.597 300.76 477.29 299.499C476.258 298.513 475.284 298.421 473.873 298.329H472.188C471.065 298.421 470.641 298.513 470.136 298.708C468.589 299.27 467.752 300.715 467.477 301.185C467.293 301.517 467.098 301.884 466.961 302.263V298.341H458.776V332.467H466.961V320.404C467.236 320.92 468.222 322.927 470.274 323.534C471.065 323.764 471.959 323.821 472.188 323.821L472.2 323.798ZM468.692 317.721C467.614 317.721 467.247 316.975 467.098 316.597C467.007 316.31 466.961 316.218 466.961 315.702V306.402C466.961 306.024 466.961 305.749 467.098 305.37C467.477 304.476 468.359 304.384 468.692 304.384C469.345 304.338 470.136 304.762 470.377 305.462C470.469 305.795 470.469 306.253 470.469 306.345V315.645C470.469 316.069 470.469 317.698 468.692 317.698V317.721ZM574.582 299.155C573.642 298.41 572.622 298.364 571.452 298.318H569.4C568.323 298.364 566.832 298.272 565.285 300.279C564.907 300.795 564.586 301.357 564.253 301.919V298.318H556.171V323.798H564.253V306.506C564.299 305.898 564.345 305.519 564.437 305.29C564.574 305.015 564.998 304.258 566.076 304.212C566.913 304.212 567.52 304.774 567.715 305.565C567.807 305.795 567.807 306.035 567.853 306.506V323.798H575.98V302.905C575.98 302.389 576.118 300.382 574.582 299.166V299.155ZM591.17 336.607C592.167 335.931 592.293 334.944 592.293 334.383C592.293 333.006 591.628 332.307 591.273 332.043C590.436 331.378 589.301 331.332 588.682 331.332H586.642V342.65H589.462C590.241 342.65 591.273 342.616 592.179 341.905C592.786 341.423 593.336 340.552 593.336 339.463C593.336 338.373 592.763 336.997 591.181 336.607H591.17ZM587.891 332.513H588.877C589.232 332.513 591.067 332.548 591.067 334.417C591.067 336.16 589.508 336.298 588.843 336.298H587.891V332.513ZM591.319 340.988C590.78 341.412 590.058 341.469 589.336 341.469H587.891V337.433H589.175C590.069 337.433 590.665 337.536 591.09 337.777C591.525 338.018 592.053 338.545 592.053 339.44C592.053 340.116 591.743 340.678 591.307 340.999L591.319 340.988ZM555.701 331.332H548.949V332.525H551.7V342.662H552.95V332.525H555.701V331.332ZM561.192 331.149C557.937 331.149 555.3 333.626 555.3 337.009C555.3 340.391 557.914 342.868 561.192 342.868C564.471 342.868 567.085 340.368 567.085 337.009C567.085 333.649 564.459 331.149 561.192 331.149ZM561.192 341.676C558.647 341.676 556.595 339.6 556.595 337.009C556.595 334.417 558.647 332.341 561.192 332.341C563.737 332.341 565.789 334.417 565.789 337.009C565.789 339.6 563.737 341.676 561.192 341.676ZM574.398 334.474C574.398 333.27 573.825 332.399 573.16 331.963C572.312 331.39 571.177 331.332 570.409 331.332H568.598V342.65H569.859V337.697H570.18L573.619 342.65H575.144L571.544 337.593C573.252 337.479 574.398 336.206 574.398 334.474ZM569.847 336.584V332.525H570.615C571.154 332.525 571.739 332.559 572.243 332.846C572.954 333.259 573.137 333.878 573.137 334.509C573.137 335.827 572.209 336.584 570.638 336.584H569.836H569.847ZM576.187 342.662H582.056V341.469H577.436V337.077H581.919V335.885H577.436V332.525H582.056V331.332H576.187V342.65V342.662ZM546.141 336.263L545.051 335.782C544.627 335.598 544.203 335.403 543.859 335.071C543.55 334.784 543.435 334.532 543.435 334.084C543.435 333.029 544.215 332.341 545.338 332.341C545.98 332.341 546.393 332.559 546.611 332.731C546.863 332.938 547.115 333.27 547.275 333.58L548.273 332.915C548.021 332.422 547.631 331.963 547.172 331.653C546.611 331.275 546.049 331.149 545.361 331.149C543.527 331.149 542.186 332.318 542.186 334.073C542.186 334.922 542.472 335.449 542.965 335.919C543.469 336.412 544.031 336.653 544.478 336.848L545.499 337.33C546.095 337.605 546.53 337.8 546.851 338.109C547.264 338.488 547.413 338.924 547.413 339.428C547.413 340.563 546.679 341.664 545.143 341.664C544.57 341.664 544.008 341.527 543.515 341.034C543.194 340.69 542.919 340.185 542.839 339.589L541.612 339.933C541.761 340.609 542.105 341.389 542.667 341.939C543.447 342.708 544.375 342.857 545.132 342.857C547.172 342.857 548.708 341.469 548.708 339.382C548.708 338.568 548.468 337.903 547.894 337.33C547.413 336.848 546.805 336.55 546.152 336.263H546.141ZM609.259 336.263L608.17 335.782C607.746 335.598 607.322 335.403 606.978 335.071C606.669 334.784 606.554 334.532 606.554 334.084C606.554 333.029 607.334 332.341 608.457 332.341C609.099 332.341 609.512 332.559 609.73 332.731C609.982 332.938 610.234 333.27 610.394 333.58L611.392 332.915C611.14 332.422 610.75 331.963 610.291 331.653C609.73 331.275 609.168 331.149 608.48 331.149C606.646 331.149 605.305 332.318 605.305 334.073C605.305 334.922 605.591 335.449 606.084 335.919C606.588 336.412 607.15 336.653 607.597 336.848L608.618 337.33C609.214 337.605 609.649 337.8 609.97 338.109C610.383 338.488 610.532 338.924 610.532 339.428C610.532 340.563 609.798 341.664 608.262 341.664C607.689 341.664 607.127 341.527 606.634 341.034C606.313 340.69 606.038 340.185 605.958 339.589L604.731 339.933C604.88 340.609 605.224 341.389 605.786 341.939C606.566 342.708 607.506 342.857 608.251 342.857C610.291 342.857 611.827 341.469 611.827 339.382C611.827 338.568 611.587 337.903 611.013 337.33C610.532 336.848 609.924 336.55 609.271 336.263H609.259ZM591.537 317.445C590.929 317.491 590.276 317.537 589.668 317.537C588.453 317.537 587.845 317.308 587.662 316.7C587.524 316.276 587.524 315.53 587.524 315.53V307.538H591.353V301.127H587.524V292.802H579.351V301.127H576.966V307.538H579.351V319.269C579.397 321.516 579.58 323.477 582.297 323.752C582.629 323.798 583.088 323.844 583.845 323.798H591.56V317.445H591.537ZM533.53 319.314V312.113C533.485 308.466 532.694 307.48 528.991 307.572H524.451V304.579H533.519V298.318H521.413C520.76 298.318 517.86 298.043 517.114 300.841C516.931 301.54 516.931 302.01 516.931 302.71V310.187C516.885 313.833 517.584 314.865 521.368 314.67H525.999V317.434H516.931V323.787H528.945C530.16 323.787 531.983 323.787 532.82 322.709C533.702 321.585 533.519 319.441 533.519 319.292L533.53 319.314ZM611.988 288.536C614.166 286.908 615.885 284.741 617.158 282.034C618.637 278.881 619.978 276.438 621.17 274.718C622.408 272.952 623.761 271.553 625.228 270.521C625.286 270.475 625.32 270.441 625.332 270.418C625.332 270.315 625.286 270.269 625.205 270.269C625.183 270.269 625.148 270.292 625.079 270.315L624.919 270.418C622.672 271.92 620.448 274.076 618.236 276.874C616.092 279.592 614.361 281.53 613.054 282.688C611.736 283.846 610.612 284.419 609.672 284.419C608.663 284.419 608.159 283.892 608.159 282.825C608.159 282.287 608.319 281.748 608.652 281.197C608.973 280.647 609.741 279.58 610.945 278.009C612.343 276.209 613.283 274.81 613.753 273.824C614.223 272.837 614.464 271.817 614.464 270.773C614.464 269.455 614.074 268.423 613.306 267.677C612.538 266.932 611.483 266.553 610.142 266.553C608.881 266.553 607.483 266.863 605.969 267.482C604.445 268.101 603.023 268.939 601.705 269.982C599.057 272.115 597.727 274.431 597.727 276.966C597.727 278.239 598.071 279.259 598.77 280.027C599.47 280.796 600.387 281.186 601.533 281.186C603.585 281.186 605.522 280.108 607.345 277.952C608.904 276.106 609.684 274.42 609.684 272.906C609.684 272.23 609.489 271.691 609.11 271.289C608.732 270.888 608.216 270.682 607.574 270.682C606.107 270.682 604.674 271.37 603.287 272.734C601.888 274.099 601.201 275.509 601.201 276.954C601.201 277.585 601.35 278.089 601.648 278.479C601.946 278.869 602.324 279.064 602.794 279.064C603 279.064 603.115 279.03 603.115 278.961C603.115 278.915 603.069 278.881 602.989 278.881H602.943C602.083 278.881 601.659 278.434 601.659 277.551C601.659 276.174 602.347 274.718 603.711 273.193C605.075 271.668 606.382 270.899 607.62 270.899C608.182 270.899 608.629 271.083 608.961 271.45C609.305 271.817 609.466 272.31 609.466 272.906C609.466 274.603 608.503 276.45 606.566 278.445C604.961 280.108 603.287 280.933 601.522 280.933C600.536 280.933 599.745 280.635 599.149 280.027C598.552 279.42 598.266 278.617 598.266 277.596C598.266 276.576 598.633 275.337 599.378 273.95C600.123 272.562 601.04 271.381 602.141 270.383C604.823 267.952 607.494 266.737 610.165 266.737C612.561 266.737 613.765 267.735 613.765 269.707C613.765 271.209 612.825 273.147 610.945 275.532C609.489 277.401 608.526 278.743 608.067 279.58C607.609 280.406 607.379 281.22 607.379 282.023C607.379 282.826 607.586 283.433 607.999 283.926C608.411 284.419 608.939 284.66 609.592 284.66C610.681 284.66 612.08 283.869 613.788 282.275C614.705 281.415 616.092 279.867 617.972 277.608C617.204 278.835 616.539 279.959 615.977 280.968C614.361 283.903 613.157 285.876 612.366 286.885C611.564 287.917 610.521 288.823 609.248 289.591C607.976 290.36 606.634 290.738 605.224 290.738C604.181 290.738 603.321 290.486 602.645 289.993C601.969 289.499 601.625 288.869 601.625 288.123C601.625 287.86 601.682 287.607 601.797 287.367C601.911 287.126 602.026 287 602.141 287C602.175 287 602.186 287.023 602.186 287.08C602.186 287.137 602.186 287.195 602.163 287.229C602.129 287.309 602.118 287.412 602.118 287.504C602.118 287.928 602.347 288.135 602.794 288.135C603.058 288.135 603.287 288.032 603.47 287.825C603.665 287.619 603.757 287.378 603.757 287.091C603.757 286.564 603.482 286.3 602.932 286.3C602.496 286.3 602.129 286.472 601.831 286.828C601.522 287.183 601.372 287.607 601.372 288.1C601.372 288.926 601.739 289.614 602.473 290.142C603.207 290.669 604.147 290.933 605.293 290.933C607.597 290.933 609.833 290.119 612.022 288.502L611.988 288.536ZM527.42 334.474C527.42 333.27 526.847 332.399 526.182 331.963C525.334 331.39 524.199 331.332 523.431 331.332H521.62V342.65H522.881V337.697H523.202L526.641 342.65H528.165L524.566 337.593C526.274 337.479 527.42 336.206 527.42 334.474ZM522.869 336.584V332.525H523.637C524.176 332.525 524.761 332.559 525.265 332.846C525.976 333.259 526.159 333.878 526.159 334.509C526.159 335.827 525.231 336.584 523.66 336.584H522.858H522.869ZM597.085 336.401L594.196 331.344H592.74L596.455 337.788V342.662H597.716V337.788L601.464 331.344H600.008L597.085 336.401ZM535.697 332.662C534.276 331.458 532.659 331.344 531.524 331.344H529.22V342.662H531.513C533.53 342.662 534.62 342.238 535.651 341.355C536.465 340.655 537.634 339.382 537.634 337.009C537.634 334.967 536.74 333.534 535.697 332.662ZM534.814 340.449C533.714 341.366 532.476 341.469 531.57 341.469H530.47V332.525H531.57C534.436 332.525 536.339 334.291 536.339 337.009C536.339 338.625 535.663 339.738 534.814 340.449ZM554.119 317.537H544.673C543.596 317.491 543.32 317.159 543.08 316.138V314.04H554.108V302.87C554.108 302.171 554.44 298.949 551.207 298.433C550.829 298.341 550.325 298.341 549.431 298.341H539.664C538.918 298.341 536.396 298.066 535.548 300.68C535.319 301.334 535.273 302.217 535.273 302.928V319.429C535.273 320.415 535.273 321.207 535.789 322.09C536.866 324.096 539.056 323.821 539.664 323.821H554.108V317.56L554.119 317.537ZM543.045 306.265C543.045 305.795 543.045 304.212 544.776 304.212C545.9 304.212 546.312 305.003 546.416 305.336C546.553 305.714 546.553 305.989 546.553 306.173V309.441H543.045V306.265ZM500.664 323.798H515.108V317.537H505.662C504.585 317.491 504.31 317.159 504.069 316.138V314.04H515.097V302.87C515.097 302.171 515.429 298.949 512.197 298.433C511.818 298.341 511.314 298.341 510.42 298.341H500.653C499.908 298.341 497.385 298.066 496.537 300.68C496.308 301.334 496.262 302.217 496.262 302.928V319.429C496.262 320.415 496.262 321.207 496.778 322.09C497.855 324.096 500.045 323.821 500.653 323.821L500.664 323.798ZM504.034 306.265C504.034 305.795 504.034 304.212 505.765 304.212C506.889 304.212 507.302 305.003 507.405 305.336C507.542 305.714 507.542 305.989 507.542 306.173V309.441H504.034V306.265ZM707.618 408.828H710.977C710.942 409.539 710.725 410.09 710.518 410.445C709.876 411.58 708.569 412.349 707.056 412.349C704.912 412.349 702.459 410.789 702.459 407.693C702.459 405.067 704.362 403.014 707.091 403.014C708.443 403.014 709.292 403.519 709.842 403.966C710.22 404.276 710.587 404.677 710.908 405.136L711.836 404.287C711.516 403.852 711.034 403.336 710.53 402.946C709.429 402.097 708.157 401.822 707.068 401.822C703.686 401.822 701.164 404.379 701.164 407.682C701.164 410.984 703.674 413.541 707.033 413.541C709.624 413.541 710.908 411.959 711.24 411.5C711.951 410.537 712.329 409.172 712.329 407.922V407.647H707.606V408.84L707.618 408.828ZM714.221 331.332H706.735V332.525H712.112L705.933 342.662H714.038V341.469H708.031L714.209 331.332H714.221ZM698.447 408.943C698.447 409.895 698.447 410.927 697.553 411.695C697.094 412.085 696.315 412.337 695.684 412.337C695.054 412.337 694.274 412.085 693.816 411.695C692.921 410.927 692.921 409.895 692.921 408.943V402.005H691.66V409.287C691.66 410.239 691.764 411.156 692.371 412.005C693.048 412.934 694.24 413.53 695.684 413.53C697.129 413.53 698.309 412.934 698.997 412.005C699.605 411.156 699.708 410.239 699.708 409.287V402.005H698.447V408.943ZM681.057 413.324H682.444L683.796 410.136H688.611L689.929 413.324H691.316L686.238 401.455L681.034 413.324H681.057ZM684.301 408.943L686.238 404.413L688.141 408.943H684.312H684.301ZM693.323 371.238C690.571 373.257 688.772 376.227 688.256 379.598C687.74 382.97 688.565 386.341 690.583 389.093C692.6 391.845 695.57 393.646 698.94 394.162C699.593 394.265 700.258 394.311 700.9 394.311C703.594 394.311 706.219 393.462 708.432 391.834C714.106 387.66 715.344 379.655 711.172 373.968C706.999 368.291 698.997 367.064 693.311 371.227L693.323 371.238ZM707.767 390.916C705.256 392.751 702.196 393.497 699.123 393.038C696.051 392.568 693.346 390.928 691.511 388.417C689.677 385.917 688.921 382.843 689.391 379.77C689.861 376.697 691.5 373.991 693.999 372.156C696.51 370.321 699.57 369.564 702.643 370.034C705.715 370.505 708.42 372.144 710.254 374.644C714.049 379.816 712.926 387.109 707.767 390.905V390.916ZM702.643 338.511L701.726 337.742C701.405 338.178 701.049 338.591 700.442 339.233L698.08 336.194C698.814 335.587 698.711 335.724 698.997 335.46C699.891 334.681 700.052 333.935 700.052 333.408C700.052 332.273 699.238 331.137 697.656 331.137C696.074 331.137 695.191 332.341 695.191 333.534C695.191 334.302 695.547 334.979 696.315 335.965C696.074 336.114 695.008 336.779 694.412 337.376C694.033 337.754 693.391 338.499 693.391 339.715C693.391 341.515 694.813 342.857 696.67 342.857C697.954 342.857 699.33 342.054 700.315 341.079L701.542 342.662H703.101L701.198 340.196C701.897 339.485 702.333 338.947 702.643 338.522V338.511ZM697.633 332.227C698.229 332.227 698.86 332.605 698.86 333.396C698.86 333.786 698.745 334.199 698.092 334.704L697.346 335.277L696.842 334.577C696.624 334.268 696.383 333.947 696.383 333.454C696.383 332.743 696.945 332.215 697.633 332.215V332.227ZM696.647 341.699C695.478 341.699 694.641 340.816 694.641 339.692C694.641 338.809 695.111 338.35 695.443 338.064C695.764 337.777 696.211 337.398 697.037 336.894L699.547 340.139C699.123 340.54 697.851 341.699 696.647 341.699ZM716.422 405.514L717.522 405.927L718.932 402.005L718.13 401.684L716.41 405.514H716.422ZM695.65 374.415C693.747 375.814 692.509 377.867 692.142 380.194C691.786 382.522 692.36 384.862 693.747 386.765C693.907 386.983 694.079 387.19 694.263 387.384C695.982 389.334 698.413 390.377 700.889 390.377C702.7 390.377 704.534 389.827 706.105 388.669C710.025 385.79 710.885 380.24 707.996 376.319C705.119 372.397 699.57 371.537 695.65 374.426V374.415ZM698.55 388.439C696.991 388.199 695.615 387.362 694.675 386.089C692.749 383.463 693.311 379.747 695.948 377.821C697.002 377.052 698.229 376.674 699.444 376.674C701.267 376.674 703.067 377.511 704.225 379.082C705.165 380.355 705.543 381.915 705.302 383.486C705.061 385.057 704.225 386.421 702.952 387.362C701.68 388.302 700.121 388.68 698.562 388.439H698.55ZM705.428 387.74C704.408 388.485 703.25 388.967 702.035 389.15C702.597 388.933 703.136 388.657 703.64 388.29C705.165 387.178 706.151 385.538 706.437 383.669C706.724 381.8 706.265 379.942 705.153 378.417C702.849 375.275 698.424 374.598 695.283 376.903C694.801 377.259 694.377 377.672 694.01 378.119C694.549 377.041 695.34 376.089 696.338 375.355C699.754 372.844 704.58 373.589 707.079 377.007C709.59 380.424 708.844 385.24 705.428 387.751V387.74ZM662.818 382.098H659.081V383.348H662.818V382.098ZM659.31 375.023H652.558V376.215H655.309V386.352H656.57V376.215H659.321V375.023H659.31ZM653.635 410.778L644.808 401.524V413.324H646.069V404.585L654.896 413.84V402.005H653.647V410.778H653.635ZM665.351 401.822C662.096 401.822 659.459 404.299 659.459 407.682C659.459 411.064 662.073 413.541 665.351 413.541C668.63 413.541 671.244 411.042 671.244 407.682C671.244 404.322 668.618 401.822 665.351 401.822ZM665.351 412.349C662.806 412.349 660.754 410.273 660.754 407.682C660.754 405.09 662.806 403.014 665.351 403.014C667.896 403.014 669.948 405.09 669.948 407.682C669.948 410.273 667.896 412.349 665.351 412.349ZM672.757 413.335H674.018V407.739H677.789V406.546H674.018V403.198H677.915V402.005H672.757V413.324V413.335ZM719.85 331.16C716.594 331.16 713.957 333.637 713.957 337.02C713.957 340.403 716.571 342.88 719.85 342.88C723.128 342.88 725.742 340.38 725.742 337.02C725.742 333.66 723.117 331.16 719.85 331.16ZM719.85 341.687C717.305 341.687 715.253 339.612 715.253 337.02C715.253 334.428 717.305 332.353 719.85 332.353C722.395 332.353 724.447 334.428 724.447 337.02C724.447 339.612 722.395 341.687 719.85 341.687ZM676.803 383.807L667.976 374.553V386.352H669.237V377.614L678.064 386.868V375.034H676.815V383.807H676.803ZM659.47 319.28C659.516 321.528 659.7 323.489 662.417 323.764C662.749 323.81 663.208 323.856 663.953 323.81H671.668V317.457C671.06 317.503 670.407 317.549 669.799 317.549C668.584 317.549 667.976 317.319 667.793 316.711C667.655 316.287 667.655 315.542 667.655 315.542V307.549H671.484V301.139H667.655V292.814H659.47V301.139H657.086V307.549H659.47V319.28ZM685.997 331.355H683.945V342.673H685.206V337.754H686.307C688.886 337.754 689.884 336.171 689.884 334.577C689.884 333.867 689.677 332.857 688.852 332.146C688.084 331.481 687.132 331.344 685.997 331.344V331.355ZM686.238 336.561H685.206V332.536H686.135C686.949 332.536 688.634 332.708 688.634 334.509C688.634 335.816 687.728 336.561 686.238 336.561ZM590.402 282.596C590.975 282.596 591.583 282.241 592.224 281.53C592.729 280.979 592.993 280.67 592.993 280.601C592.993 280.555 592.97 280.521 592.912 280.521C592.866 280.521 592.763 280.612 592.591 280.807C591.812 281.908 591.09 282.447 590.425 282.447C589.886 282.447 589.622 282.092 589.622 281.381C589.622 281.128 589.68 280.807 589.806 280.417L589.955 280.291C590.333 280.062 590.608 279.89 590.792 279.775C591.972 279.018 592.557 278.445 592.557 278.032C592.557 277.803 592.431 277.688 592.167 277.688C591.789 277.688 591.353 277.94 590.883 278.456C590.402 278.961 590.001 279.592 589.68 280.349C589.278 280.67 588.866 281.082 588.419 281.598C589.118 280.521 589.462 279.661 589.462 279.007C589.462 278.135 589.118 277.7 588.441 277.7C587.971 277.7 587.089 278.571 585.782 280.314L585.553 280.635C585.553 280.635 585.507 280.693 585.507 280.738C585.507 280.784 585.518 280.807 585.553 280.819C585.61 280.819 585.679 280.761 585.759 280.635C587.008 278.812 587.868 277.895 588.338 277.895C588.533 277.895 588.636 278.009 588.636 278.25C588.636 278.663 588.12 279.706 587.077 281.404L584.991 284.786C585.472 284.752 585.736 284.741 585.77 284.741C585.851 284.741 586.114 284.752 586.561 284.786C587.387 283.376 587.96 282.447 588.292 281.988C588.625 281.53 589.061 281.071 589.599 280.601C589.496 280.968 589.45 281.266 589.45 281.507C589.45 282.252 589.771 282.631 590.413 282.631L590.402 282.596ZM676.093 340.277L671.748 330.724L669.868 342.673H671.152L672.275 334.795L676.081 343.144L679.933 334.795L680.999 342.673H682.283L680.518 330.713L676.093 340.288V340.277ZM596.478 263.434C596.879 263.859 597.383 264.076 597.968 264.076C598.885 264.076 599.94 263.492 601.12 262.333C601.132 262.849 601.292 263.274 601.625 263.583C601.969 263.904 602.427 264.076 603 264.076C604.021 264.076 604.892 263.801 605.637 263.239C605.947 263.01 606.176 262.746 606.359 262.482C606.451 262.838 606.623 263.159 606.875 263.434C607.276 263.859 607.781 264.076 608.365 264.076C609.615 264.076 611.128 262.999 612.882 260.831L613.432 260.143C613.581 259.948 613.662 259.834 613.662 259.811C613.662 259.765 613.65 259.742 613.616 259.73C613.547 259.73 613.467 259.799 613.363 259.937C611.415 262.551 609.775 263.859 608.446 263.859C607.655 263.859 607.265 263.492 607.265 262.769C607.265 262.184 607.551 261.45 608.125 260.579C609.993 260.2 611.323 259.811 612.114 259.375C612.916 258.951 613.306 258.423 613.306 257.815C613.306 257.552 613.203 257.334 612.985 257.15C612.767 256.967 612.504 256.875 612.206 256.875C611.506 256.875 610.589 257.185 609.477 257.792C608.021 258.584 607.07 259.478 606.611 260.441C606.554 260.269 606.508 260.097 606.428 259.902C605.981 258.836 605.752 258.056 605.752 257.563C605.752 257.368 605.775 257.139 605.832 256.875C606.887 255.866 607.425 255.201 607.425 254.857C607.425 254.708 607.357 254.639 607.219 254.639C606.932 254.639 606.634 254.845 606.348 255.27C606.05 255.694 605.832 256.198 605.683 256.795C605.178 257.437 604.766 257.941 604.468 258.308L603.447 259.558C603.379 259.524 603.31 259.512 603.218 259.512C602.737 259.512 602.267 259.811 601.82 260.418C601.407 260.969 601.189 261.531 601.155 262.104C599.985 263.274 598.954 263.87 598.059 263.87C597.269 263.87 596.879 263.503 596.879 262.781C596.879 262.196 597.165 261.462 597.739 260.59C599.607 260.212 600.937 259.822 601.728 259.386C602.53 258.962 602.92 258.435 602.92 257.827C602.92 257.563 602.817 257.345 602.599 257.162C602.381 256.978 602.118 256.886 601.82 256.886C601.12 256.886 600.203 257.196 599.091 257.804C597.28 258.79 596.248 259.914 595.985 261.164C595.595 261.485 595.216 261.657 594.861 261.657C594.322 261.657 594.059 261.301 594.059 260.59C594.059 260.338 594.116 260.017 594.242 259.627L594.391 259.501C594.769 259.272 595.045 259.1 595.228 258.985C596.409 258.228 596.993 257.655 596.993 257.242C596.993 257.013 596.867 256.898 596.604 256.898C596.225 256.898 595.79 257.15 595.32 257.666C594.838 258.171 594.437 258.801 594.116 259.558C593.715 259.879 593.302 260.292 592.855 260.808C593.554 259.73 593.898 258.87 593.898 258.217C593.898 257.345 593.554 256.909 592.878 256.909C592.408 256.909 591.525 257.781 590.218 259.524L589.989 259.845C589.989 259.845 589.943 259.902 589.943 259.948C589.943 259.994 589.955 260.017 589.989 260.028C590.046 260.028 590.115 259.971 590.195 259.845C591.445 258.022 592.305 257.104 592.775 257.104C592.97 257.104 593.073 257.219 593.073 257.46C593.073 257.873 592.557 258.916 591.514 260.613L589.427 263.996C589.909 263.962 590.172 263.95 590.207 263.95C590.287 263.95 590.551 263.962 590.998 263.996C591.823 262.586 592.396 261.657 592.729 261.198C593.061 260.739 593.497 260.281 594.036 259.811C593.933 260.178 593.887 260.476 593.887 260.717C593.887 261.462 594.208 261.84 594.85 261.84C595.205 261.84 595.572 261.68 595.962 261.405C595.939 261.554 595.916 261.703 595.916 261.863C595.916 262.505 596.122 263.044 596.523 263.469L596.478 263.434ZM610.371 257.976C611.105 257.357 611.69 257.047 612.148 257.047C612.446 257.047 612.595 257.185 612.595 257.448C612.595 257.953 612.171 258.503 611.323 259.065C610.475 259.639 609.443 260.086 608.216 260.395C608.916 259.398 609.638 258.595 610.371 257.976ZM601.693 261.737C601.693 261.737 601.774 261.657 601.82 261.611C602.037 261.382 602.29 261.221 602.588 261.152C603.413 260.969 603.826 260.636 603.826 260.132C603.826 259.937 603.745 259.776 603.585 259.639C604.479 258.549 605.167 257.701 605.648 257.093C605.614 257.345 605.603 257.666 605.603 258.045C605.603 258.515 605.603 258.87 605.626 259.123C605.648 259.375 605.648 259.627 605.648 259.879C605.648 260.831 605.327 261.714 604.686 262.54C604.044 263.365 603.367 263.778 602.656 263.778C602.29 263.778 601.992 263.664 601.739 263.434C601.499 263.205 601.372 262.918 601.372 262.586C601.372 262.288 601.487 262.012 601.705 261.737H601.693ZM599.962 257.976C600.696 257.357 601.281 257.047 601.739 257.047C602.037 257.047 602.186 257.185 602.186 257.448C602.186 257.953 601.762 258.503 600.914 259.065C600.066 259.639 599.034 260.086 597.807 260.395C598.507 259.398 599.229 258.595 599.962 257.976ZM595.136 235.592C596.558 235.592 597.842 235.03 598.988 233.906C599.298 233.596 599.607 233.218 599.905 232.771C600.203 232.323 600.352 232.002 600.352 231.819C600.352 231.739 600.318 231.693 600.238 231.693C600.192 231.693 600.157 231.739 600.134 231.819C599.733 232.805 599.045 233.642 598.082 234.342C597.108 235.041 596.145 235.385 595.194 235.385C594.311 235.385 593.589 235.11 593.038 234.548C592.488 233.986 592.202 233.264 592.202 232.392C592.202 230.649 593.027 229.044 594.689 227.553C596.351 226.062 598.14 225.317 600.089 225.317C600.765 225.317 601.338 225.466 601.808 225.764C602.278 226.062 602.519 226.429 602.519 226.854C602.519 227.175 602.393 227.587 602.129 228.069C601.567 229.124 601.292 229.892 601.292 230.374C601.292 230.936 601.441 231.383 601.762 231.727C602.072 232.071 602.473 232.243 602.966 232.243C603.734 232.243 604.559 231.75 605.419 230.752C605.729 230.397 605.889 230.168 605.889 230.076C605.889 230.007 605.855 229.973 605.786 229.973C605.74 229.973 605.671 230.019 605.591 230.122C604.686 231.383 603.803 232.014 602.954 232.014C602.209 232.014 601.831 231.704 601.831 231.074C601.831 230.821 602.014 230.328 602.381 229.617C602.794 228.826 602.989 228.149 602.989 227.565C602.989 226.796 602.737 226.188 602.232 225.741C601.728 225.305 601.029 225.076 600.146 225.076C598.128 225.076 596.26 225.844 594.54 227.37C592.821 228.895 591.949 230.557 591.949 232.335C591.949 233.321 592.236 234.101 592.821 234.697C593.405 235.293 594.185 235.592 595.148 235.592H595.136ZM658.989 342.673H660.376L661.729 339.486H666.543L667.862 342.673H669.249L664.171 330.805L658.966 342.673H658.989ZM662.233 338.293L664.171 333.763L666.073 338.293H662.245H662.233ZM583.707 277.677C582.927 277.677 581.942 278.101 580.738 278.961C579.03 280.177 578.17 281.426 578.17 282.734C578.17 283.319 578.353 283.823 578.709 284.236C579.064 284.649 579.5 284.867 580.016 284.867C581.002 284.867 582.056 284.075 583.168 282.493C583.375 282.596 583.604 282.642 583.867 282.642C584.498 282.642 585.186 282.275 585.931 281.53C586.435 281.037 586.676 280.716 586.676 280.578C586.676 280.544 586.665 280.532 586.63 280.532C586.584 280.532 586.516 280.589 586.424 280.704C586.103 281.209 585.69 281.633 585.174 281.988C584.658 282.344 584.223 282.516 583.833 282.516C583.627 282.516 583.432 282.47 583.26 282.367C584.28 280.991 584.796 279.821 584.796 278.846C584.796 278.067 584.429 277.677 583.707 277.677ZM584.131 279.615C583.822 279.615 583.501 279.833 583.168 280.28C582.836 280.715 582.675 281.151 582.675 281.564C582.675 281.851 582.801 282.137 583.042 282.401C581.953 283.915 580.956 284.66 580.039 284.66C579.477 284.66 579.202 284.374 579.202 283.789C579.202 282.78 579.752 281.541 580.864 280.062C581.976 278.583 582.916 277.849 583.684 277.849C584.303 277.849 584.613 278.193 584.613 278.881C584.613 279.248 584.544 279.58 584.406 279.878C584.36 279.706 584.257 279.626 584.131 279.626V279.615ZM726.2 407.647C726.877 406.684 727.095 405.984 727.095 405.216C727.095 403.267 725.604 401.833 723.598 401.833C722.188 401.833 721.397 402.441 720.916 402.991C720.48 403.496 720.113 404.196 720.067 405.331H721.317C721.328 404.757 721.466 404.333 721.695 403.989C722.119 403.347 722.784 402.991 723.575 402.991C724.917 402.991 725.834 403.92 725.834 405.193C725.834 405.652 725.719 406.191 725.203 406.925C724.928 407.326 724.171 408.232 723.885 408.576L719.758 413.346H727.072V412.188H722.291L724.653 409.528C725.111 409 725.719 408.301 726.2 407.647ZM743.568 375.309C743.568 372.878 741.596 370.906 739.166 370.906C736.736 370.906 734.752 372.878 734.752 375.309C734.752 376.789 735.497 378.084 736.609 378.887L735.371 384.38C735.108 385.538 735.383 386.731 736.128 387.66C736.873 388.589 737.974 389.116 739.154 389.116C740.335 389.116 741.47 388.577 742.215 387.625C742.96 386.673 743.213 385.458 742.926 384.3L741.596 378.967C742.777 378.176 743.568 376.835 743.568 375.309ZM742.043 384.219C742.399 385.664 741.642 387.063 740.393 387.637C740.301 387.683 740.209 387.706 740.117 387.74C740.014 387.774 739.911 387.82 739.808 387.843C739.602 387.889 739.384 387.923 739.166 387.923C739.166 387.923 739.109 387.923 739.086 387.923C738.902 387.923 738.719 387.901 738.535 387.855C738.432 387.832 738.341 387.797 738.249 387.763C738.146 387.728 738.054 387.706 737.951 387.66C736.713 387.098 735.945 385.733 736.266 384.3L737.389 379.346L737.859 377.259H740.312L740.84 379.392L742.043 384.231V384.219ZM617.96 257.643C617.422 258.148 616.654 259.1 615.656 260.476C616.287 259.512 616.608 258.756 616.608 258.217C616.608 257.85 616.505 257.54 616.298 257.276C616.092 257.013 615.851 256.886 615.565 256.886C615.117 256.886 614.246 257.758 612.939 259.501L612.699 259.822C612.699 259.822 612.653 259.879 612.653 259.925C612.653 259.971 612.687 260.006 612.733 260.006C612.779 260.006 612.836 259.937 612.916 259.822C614.189 257.999 615.049 257.081 615.473 257.081C615.691 257.081 615.794 257.208 615.794 257.46C615.794 257.907 615.232 259.031 614.109 260.831L612.125 263.973C612.389 263.939 612.664 263.927 612.962 263.927C613.043 263.927 613.295 263.939 613.707 263.973C616.287 259.375 618.19 257.081 619.428 257.081C619.795 257.081 619.978 257.253 619.978 257.609C619.978 257.884 619.634 258.538 618.946 259.558C618.281 260.522 617.88 261.175 617.72 261.496C617.559 261.829 617.479 262.173 617.479 262.563C617.479 262.999 617.605 263.365 617.869 263.652C618.132 263.95 618.453 264.099 618.832 264.099C619.405 264.099 620.196 263.492 621.216 262.288L621.251 262.253C621.228 262.368 621.216 262.482 621.216 262.586C621.216 263.021 621.354 263.377 621.617 263.664C621.881 263.95 622.213 264.099 622.615 264.099C623.417 264.099 624.621 262.987 626.214 260.774L626.765 260.028C626.845 259.914 626.879 259.845 626.891 259.822C626.891 259.776 626.868 259.742 626.81 259.742C626.765 259.742 626.719 259.788 626.661 259.868C624.827 262.563 623.532 263.904 622.752 263.904C622.351 263.904 622.156 263.709 622.156 263.331C622.156 262.987 622.328 262.517 622.672 261.932L625.504 257.093H627.166L627.269 256.898H625.607L627.063 254.432C626.81 254.501 626.558 254.536 626.329 254.536C626.1 254.536 625.859 254.501 625.607 254.432L624.116 256.898H622.844L622.718 257.093H624.013L621.881 260.682C621.606 261.152 621.422 261.577 621.319 261.955C620.265 263.251 619.474 263.916 618.946 263.916C618.602 263.916 618.419 263.744 618.419 263.388C618.419 263.056 618.82 262.299 619.611 261.095C620.391 259.925 620.781 259.054 620.781 258.492C620.781 258.045 620.654 257.666 620.402 257.357C620.15 257.047 619.829 256.898 619.462 256.898C619.004 256.898 618.511 257.15 617.972 257.666L617.96 257.643ZM688.6 298.421C688.221 298.329 687.717 298.329 686.823 298.329H677.056C676.311 298.329 673.789 298.054 672.94 300.669C672.711 301.322 672.654 302.205 672.654 302.916V319.418C672.654 320.404 672.654 321.195 673.169 322.078C674.247 324.085 676.437 323.81 677.044 323.81H691.488V317.549H682.042C680.965 317.503 680.69 317.17 680.449 316.15V314.051H691.477V302.882C691.477 302.182 691.809 298.96 688.577 298.444L688.6 298.421ZM683.922 309.453H680.415V306.276C680.415 305.806 680.415 304.224 682.146 304.224C683.269 304.224 683.693 305.015 683.785 305.347C683.922 305.726 683.922 306.001 683.922 306.184V309.453ZM734.626 407.624C735.303 406.661 735.52 405.962 735.52 405.193C735.52 403.244 734.03 401.81 732.024 401.81C730.614 401.81 729.823 402.418 729.342 402.969C728.906 403.473 728.539 404.173 728.493 405.308H729.743C729.754 404.735 729.892 404.31 730.121 403.966C730.545 403.324 731.21 402.969 732.001 402.969C733.342 402.969 734.259 403.897 734.259 405.17C734.259 405.629 734.145 406.168 733.629 406.902C733.354 407.303 732.597 408.209 732.311 408.553L728.184 413.324H735.497V412.165H730.717L733.079 409.505C733.537 408.977 734.145 408.278 734.626 407.624ZM626.512 281.988C626.008 282.332 625.572 282.504 625.194 282.504C624.988 282.504 624.793 282.459 624.621 282.355C625.641 280.979 626.157 279.81 626.157 278.835C626.157 278.055 625.79 277.665 625.068 277.665C624.288 277.665 623.303 278.09 622.099 278.95C620.391 280.165 619.531 281.415 619.531 282.722C619.531 283.307 619.714 283.812 620.07 284.225C620.425 284.637 620.861 284.855 621.377 284.855C622.362 284.855 623.417 284.064 624.529 282.481C624.735 282.585 624.965 282.631 625.228 282.631C625.595 282.631 625.985 282.481 626.398 282.229C626.214 282.631 626.123 283.009 626.123 283.342C626.123 283.766 626.249 284.121 626.501 284.419C626.753 284.718 627.074 284.855 627.441 284.855C627.808 284.855 628.175 284.66 628.576 284.282C628.943 283.938 629.516 283.273 630.295 282.275L630.548 281.931C630.215 282.527 630.055 282.986 630.055 283.319C630.055 283.743 630.181 284.11 630.444 284.408C630.708 284.706 631.018 284.855 631.396 284.855C631.992 284.855 632.794 284.247 633.815 283.043C635.041 281.587 635.66 280.773 635.66 280.578C635.66 280.532 635.637 280.498 635.58 280.498C635.534 280.498 635.5 280.544 635.454 280.624L635.225 280.899L634.835 281.449C633.31 283.594 632.21 284.66 631.522 284.66C631.178 284.66 630.995 284.477 630.995 284.11C630.995 283.663 631.476 282.653 632.439 281.071L634.468 277.757C634.078 277.814 633.78 277.849 633.562 277.849C633.379 277.849 633.161 277.814 632.898 277.757L631.648 279.867C629.757 283.066 628.381 284.66 627.533 284.66C627.212 284.66 627.051 284.465 627.051 284.087C627.051 283.708 627.2 283.25 627.51 282.734L630.536 277.745C630.123 277.803 629.837 277.837 629.676 277.837C629.516 277.837 629.287 277.803 629 277.745L626.684 281.633C626.616 281.748 626.558 281.851 626.501 281.965L626.512 281.988ZM624.518 280.257C624.185 280.693 624.025 281.128 624.025 281.541C624.025 281.828 624.151 282.115 624.392 282.378C623.303 283.892 622.305 284.637 621.388 284.637C620.826 284.637 620.551 284.351 620.551 283.766C620.551 282.757 621.101 281.518 622.213 280.039C623.325 278.56 624.265 277.826 625.034 277.826C625.653 277.826 625.962 278.17 625.962 278.858C625.962 279.225 625.893 279.557 625.756 279.855C625.71 279.683 625.607 279.603 625.481 279.603C625.171 279.603 624.85 279.821 624.518 280.268V280.257ZM586.814 242.506C587.754 243.137 588.889 243.447 590.23 243.447C592.58 243.447 595.079 242.369 597.727 240.213C598.862 239.284 600.467 237.736 602.542 235.546H607.437C605.511 238.722 604.215 240.672 603.539 241.394C602.863 242.117 601.877 242.633 600.559 242.942C599.951 242.862 599.412 242.816 598.942 242.816C598.277 242.816 597.945 242.919 597.945 243.126C597.945 243.309 598.186 243.389 598.679 243.389C599.378 243.389 600.008 243.298 600.547 243.126C601.441 243.309 602.186 243.389 602.805 243.389C603.883 243.389 604.789 243.183 605.534 242.759C606.279 242.334 607.104 241.578 608.01 240.465C608.984 239.273 609.477 238.619 609.477 238.493C609.477 238.458 609.443 238.447 609.386 238.447C609.34 238.447 609.282 238.504 609.202 238.63C608.526 239.72 607.678 240.74 606.646 241.715C605.591 242.713 604.273 243.217 602.714 243.217C602.221 243.217 601.636 243.172 600.971 243.068C604.17 242.323 606.795 239.892 608.847 235.787C610.188 233.115 611.38 231.177 612.423 229.973C613.467 228.78 614.67 227.977 616.035 227.553C616.642 227.553 617.387 227.645 618.293 227.828C618.786 227.931 619.072 227.977 619.141 227.977C619.325 227.977 619.405 227.897 619.405 227.748C619.405 227.37 618.82 227.175 617.639 227.175C617.112 227.175 616.55 227.232 615.954 227.358C613.352 227.37 610.887 228.023 608.549 229.296C606.21 230.569 603.803 232.587 601.327 235.351C600.467 235.328 599.641 235.328 598.828 235.328L598.679 235.557H601.143L600.765 235.947C600.043 236.658 599.08 237.656 597.865 238.917C597.257 239.571 596.695 240.098 596.202 240.488C594.013 242.277 592.018 243.172 590.195 243.172C588.923 243.172 587.857 242.885 586.986 242.311C586.114 241.738 585.679 241.039 585.679 240.213C585.679 239.995 585.725 239.777 585.805 239.559C585.885 239.341 585.977 239.238 586.057 239.238C586.137 239.238 586.172 239.284 586.172 239.364C586.172 239.422 586.172 239.468 586.149 239.502L586.126 239.754C586.126 240.133 586.321 240.328 586.722 240.328C586.974 240.328 587.192 240.224 587.387 240.029C587.582 239.835 587.673 239.594 587.673 239.307C587.673 238.768 587.398 238.504 586.848 238.504C586.447 238.504 586.091 238.665 585.816 238.997C585.53 239.33 585.392 239.731 585.392 240.19C585.392 241.084 585.862 241.853 586.791 242.483L586.814 242.506ZM609.282 229.502C611.174 228.344 613.226 227.702 615.438 227.599C614.315 227.886 613.008 228.78 611.495 230.271C609.959 231.773 608.652 233.47 607.563 235.362H602.748C605.213 232.622 607.391 230.672 609.282 229.514V229.502Z" fill="#00C2FF"/>
</svg>
