<svg width="190" height="26" viewBox="0 0 190 26" fill="none" xmlns="http://www.w3.org/2000/svg">
<path d="M85.1 24.65V5.20998H89.6V1.20998H77.57V5.20998H82.07V24.65H85.1ZM6.57 1.21999H0V24.65H3.14V16.16H6.82C8.37 16.16 9.59 15.48 10.48 14.13C11.37 12.78 11.82 10.98 11.82 8.74998C11.82 6.51998 11.37 4.84998 10.48 3.40998C9.57 1.94998 8.27 1.20998 6.57 1.20998V1.21999ZM8.07 11.36C7.65 11.98 7.05 12.29 6.27 12.29H3.14V5.33998H6.32C7.07 5.33998 7.66 5.63998 8.08 6.23998C8.5 6.83998 8.71 7.68998 8.71 8.77998C8.71 9.86998 8.5 10.73 8.08 11.35L8.07 11.36ZM62.89 20.68H54.86V14.36H61.84V10.46H54.86V5.21999H62.83V1.21999H51.83V24.65H62.89V20.68ZM37.26 20.68H29.23V14.36H36.21V10.46H29.23V5.21999H37.2V1.21999H26.2V24.65H37.26V20.68ZM145.8 20.68H137.77V14.36H144.75V10.46H137.77V5.21999H145.74V1.21999H134.74V24.65H145.8V20.68ZM150.47 15.24H152.92C154.75 15.24 155.72 16.57 155.85 19.24C155.86 19.5 155.88 19.86 155.9 20.3C155.92 20.75 155.94 21.11 155.95 21.38C155.96 21.65 155.98 21.97 156 22.33C156.02 22.69 156.04 22.98 156.06 23.21C156.08 23.44 156.1 23.66 156.13 23.88C156.16 24.1 156.19 24.27 156.23 24.39C156.27 24.51 156.32 24.59 156.38 24.64H159.29V24.41C159.19 24.35 159.11 24.2 159.05 23.97C158.99 23.74 158.94 23.42 158.9 23C158.86 22.58 158.84 22.17 158.82 21.75C158.8 21.34 158.77 20.77 158.74 20.06C158.7 19.35 158.67 18.73 158.65 18.21C158.55 16.81 158.33 15.76 157.97 15.05C157.61 14.34 157.08 13.82 156.37 13.49V13.39C158.2 12.6 159.11 10.71 159.11 7.71999C159.11 5.77999 158.67 4.19998 157.78 2.99998C156.9 1.79998 155.74 1.19998 154.3 1.19998H147.44V24.63H150.47V15.22V15.24ZM150.47 5.04999H153.77C154.55 5.04999 155.14 5.35999 155.55 5.96999C155.96 6.57999 156.16 7.37999 156.16 8.35999C156.16 9.33998 155.95 10.1 155.52 10.69C155.09 11.28 154.48 11.58 153.69 11.58H150.47V5.05998V5.04999ZM129.24 24.65V5.20998H133.74V1.20998H121.72V5.20998H126.22V24.65H129.25H129.24ZM163.91 1.21999H160.88V24.65H163.91V1.21999ZM114.99 1.21999L109.78 24.65H112.85L113.83 19.67H119.22L120.22 24.65H123.38L118.11 1.21999H114.97H114.99ZM114.55 16.03L115.89 9.27998C116.06 8.44998 116.27 7.24998 116.52 5.66998H116.56L117.17 9.27998L118.51 16.03H114.56H114.55ZM106.2 6.35999H106.24L106.12 11.21V24.65H108.94V1.21999H104.61L102.5 12.99C102.15 14.96 101.84 17.07 101.58 19.32H101.54L101.44 18.4C101.36 17.79 101.23 16.95 101.07 15.89C100.91 14.83 100.75 13.86 100.6 12.99L98.49 1.21999H94.22V24.65H97V11.21C97 9.93998 96.96 8.32999 96.87 6.35999H96.91L97.56 10.82L100.07 24.65H102.98L105.55 10.82C105.76 9.67998 105.97 8.19999 106.2 6.35999ZM21.2 19.25C21.21 19.51 21.23 19.87 21.25 20.31C21.27 20.76 21.29 21.12 21.3 21.39C21.31 21.66 21.33 21.98 21.35 22.34C21.37 22.7 21.39 22.99 21.41 23.22C21.43 23.45 21.45 23.67 21.48 23.89C21.51 24.11 21.54 24.28 21.59 24.4C21.63 24.52 21.68 24.6 21.74 24.65H24.65V24.42C24.55 24.36 24.47 24.21 24.41 23.98C24.35 23.75 24.3 23.43 24.26 23.01C24.22 22.59 24.2 22.18 24.18 21.76C24.16 21.35 24.13 20.78 24.1 20.07C24.07 19.36 24.03 18.74 24.01 18.22C23.91 16.82 23.69 15.77 23.33 15.06C22.97 14.35 22.44 13.83 21.73 13.5V13.4C23.56 12.61 24.47 10.72 24.47 7.72999C24.47 5.78999 24.03 4.20999 23.14 3.00999C22.25 1.80999 21.09 1.20998 19.66 1.20998H12.8V24.64H15.83V15.23H18.28C20.11 15.23 21.08 16.56 21.21 19.23L21.2 19.25ZM15.83 11.58V5.05998H19.13C19.91 5.05998 20.5 5.36999 20.91 5.97999C21.32 6.58999 21.52 7.38999 21.52 8.36999C21.52 9.34999 21.31 10.11 20.88 10.7C20.46 11.29 19.84 11.59 19.05 11.59H15.83V11.58ZM182.27 20.69V1.21999H179.24V24.65H189.3V20.68H182.27V20.69ZM169.96 1.21999L164.75 24.65H167.82L168.8 19.67H174.19L175.19 24.65H178.35L173.08 1.21999H169.94H169.96ZM169.52 16.03L170.86 9.27998C171.03 8.44998 171.24 7.24998 171.49 5.66998H171.53L172.14 9.27998L173.48 16.03H169.53H169.52ZM48.65 23.22C49.72 21.91 50.26 20.1 50.26 17.78C50.26 16.8 50.16 15.93 49.96 15.17C49.76 14.42 49.51 13.81 49.21 13.35C48.91 12.89 48.49 12.47 47.95 12.09C47.41 11.71 46.91 11.41 46.46 11.21C46 11 45.41 10.78 44.68 10.54C43.47 10.12 42.62 9.70999 42.14 9.28999C41.66 8.86999 41.42 8.21998 41.42 7.31998C41.42 6.48998 41.66 5.81998 42.15 5.31998C42.64 4.81998 43.29 4.56998 44.12 4.56998C44.95 4.56998 45.57 4.87998 46.09 5.48998C46.61 6.09998 46.92 6.97999 47 8.10999H49.91C49.8 5.76999 49.23 3.96998 48.22 2.69998C47.21 1.42998 45.84 0.799988 44.14 0.799988C42.44 0.799988 41.04 1.40999 39.99 2.61999C38.94 3.82999 38.41 5.55998 38.41 7.81998C38.41 8.75998 38.51 9.59999 38.7 10.33C38.89 11.06 39.14 11.65 39.42 12.1C39.7 12.55 40.1 12.96 40.59 13.33C41.08 13.7 41.54 13.97 41.95 14.15C42.36 14.33 42.89 14.53 43.53 14.77C44.06 14.97 44.42 15.1 44.62 15.18C44.81 15.26 45.1 15.38 45.48 15.54C45.86 15.7 46.11 15.86 46.25 16C46.39 16.14 46.56 16.33 46.75 16.56C46.94 16.79 47.07 17.05 47.14 17.35C47.21 17.65 47.23 17.98 47.23 18.35C47.23 19.38 46.96 20.14 46.41 20.63C45.87 21.12 45.17 21.37 44.32 21.37C43.25 21.37 42.44 21.06 41.9 20.45C41.36 19.84 41.05 18.83 40.95 17.43H37.98C38.03 19.92 38.62 21.84 39.74 23.18C40.86 24.52 42.42 25.2 44.45 25.2C46.18 25.2 47.58 24.55 48.65 23.23V23.22ZM76.57 1.22999H73.58V13.52C73.58 14.61 73.61 15.97 73.66 17.58H73.62L73.45 17.06C73.35 16.69 73.22 16.23 73.04 15.68C72.86 15.13 72.71 14.68 72.57 14.3L67.59 1.21999H64.52V24.65H67.51V12.56C67.51 11.47 67.48 10.1 67.43 8.45998H67.47L67.64 8.98998C67.74 9.35998 67.88 9.80998 68.06 10.35C68.24 10.89 68.4 11.34 68.54 11.71L73.64 24.66H76.57V1.22999Z" fill="#00C2FF"/>
</svg>
