<svg width="49" height="41" viewBox="0 0 49 41" fill="none" xmlns="http://www.w3.org/2000/svg">
<path d="M48.3113 4.4173C47.8869 3.62775 47.2675 2.92709 46.4504 2.31382C45.6332 1.66945 44.754 1.19394 43.8113 0.887311C42.8685 0.580678 41.8637 0.428102 40.7968 0.428102C39.9478 0.428102 39.1783 0.509574 38.4882 0.669557C37.7967 0.831021 37.1687 1.07248 36.6027 1.3954C36.0368 1.71833 35.5503 2.04867 35.1417 2.38641C34.7331 2.72415 34.3881 3.08707 34.1051 3.4737C33.8221 2.99079 33.493 2.56417 33.1161 2.19235C32.7393 1.82202 32.3308 1.50798 31.8904 1.25023C31.4501 0.992485 30.8841 0.791025 30.194 0.645856C29.5025 0.500686 28.7012 0.428102 27.7917 0.428102C26.5039 0.428102 25.3417 0.613267 24.3051 0.983597C23.2685 1.35393 22.3575 1.9109 21.5721 2.65156C21.1405 3.05893 20.7723 3.48999 20.4648 3.94031C20.0447 3.4337 19.5841 2.9419 19.0803 2.46344C18.201 1.62501 17.1327 1.00582 15.8766 0.602898C14.622 0.20146 13.161 0 11.4964 0H11.0965C10.955 0 10.8207 0.0162945 10.6951 0.0488836C10.5377 0.0488836 10.3963 0.0577715 10.2707 0.0725847C10.1451 0.0888792 10.0036 0.114062 9.8462 0.145169C9.56323 0.177758 9.28026 0.226642 8.99729 0.290339C8.71432 0.355517 8.43135 0.435508 8.14838 0.531794C7.11178 0.854722 6.13005 1.32134 5.20318 1.93312C4.27631 2.54639 3.38986 3.31964 2.54095 4.25287C1.69349 5.18759 1.05681 6.30746 0.632351 7.61251C0.212227 8.91903 0 10.4107 0 12.0861V41L4.09873 38.1188V12.9556C4.09873 11.8283 4.21712 10.8285 4.45245 9.95892C4.68777 9.0879 5.04148 8.34724 5.51214 7.73546C5.98279 7.09108 6.47799 6.53559 6.99629 6.06749C7.51458 5.60087 8.05598 5.22166 8.62192 4.93132C8.87313 4.80244 9.12434 4.68986 9.37555 4.59358C9.62675 4.49729 9.87796 4.43211 10.1292 4.39952C10.3804 4.33583 10.6157 4.28694 10.8366 4.25435C11.056 4.22325 11.2755 4.20547 11.4964 4.20547C12.4074 4.20547 13.2866 4.38323 14.1341 4.73726C14.983 5.09278 15.7987 5.62458 16.5841 6.33265C17.3694 7.0422 17.957 7.88803 18.3512 8.87015C18.7439 9.85375 18.9402 10.9573 18.9402 12.1809C18.9402 13.3097 18.7915 14.3481 18.4927 15.2991C18.1938 16.2501 17.7621 17.1122 17.1962 17.8855C16.6303 18.6587 15.9012 19.232 15.0061 19.6023C14.111 19.9726 13.0657 20.1578 11.8732 20.1578H11.261C11.0719 20.1578 10.9001 20.1415 10.7428 20.1089C10.5536 20.1089 10.3732 20.0926 10.2014 20.06C10.0281 20.0289 9.86352 19.9964 9.70616 19.9638C9.42319 19.9001 9.133 19.8186 8.83415 19.7223C8.5353 19.626 8.22923 19.5134 7.91594 19.3846C7.60121 19.2557 7.24894 19.0942 6.85625 18.9017C6.46355 18.7076 6.03188 18.4661 5.56123 18.1758V22.8168C6.28309 23.2034 6.96597 23.51 7.60987 23.7352C8.25377 23.9604 8.82693 24.1381 9.32935 24.267C9.86352 24.3959 10.3659 24.4922 10.8366 24.5573C11.3072 24.621 11.7793 24.6536 12.25 24.6536C13.8208 24.5247 15.2024 24.2344 16.3964 23.7841C17.5903 23.3338 18.5793 22.7042 19.3647 21.8984C20.1818 21.0925 20.856 20.2541 21.3917 19.3846C21.9258 18.515 22.3489 17.6129 22.6636 16.6782C22.7892 16.2916 22.8989 15.9049 22.9942 15.5183C23.088 15.1317 23.1516 14.7451 23.1833 14.3584C23.2454 13.9718 23.293 13.5926 23.3248 13.2223C23.3551 12.8519 23.3724 12.5053 23.3724 12.1824C23.3724 12.1142 23.3681 12.0431 23.3667 11.975V9.80931C23.3667 9.16493 23.4374 8.53685 23.5789 7.92359C23.7204 7.3118 23.9326 6.73112 24.2156 6.18303C24.4986 5.63494 24.9374 5.20092 25.5351 4.87799C26.1314 4.55654 26.885 4.3462 27.7975 4.24991C28.5193 4.24991 29.1632 4.37878 29.7292 4.63653C30.2951 4.89428 30.7658 5.28091 31.1426 5.79641C31.5194 6.31191 31.8024 6.87629 31.9915 7.48808C32.1806 8.09986 32.2745 8.76201 32.2745 9.47008V23.9248H36.327V8.74424C36.327 8.68054 36.3342 8.60796 36.3501 8.52648C36.366 8.44649 36.3891 8.37391 36.4208 8.30873C36.5147 7.79323 36.6807 7.30143 36.916 6.83481C37.1514 6.3682 37.4733 5.92528 37.8819 5.50607C38.289 5.08686 38.738 4.77282 39.2245 4.56395C39.7111 4.35508 40.2366 4.24991 40.8025 4.24991C41.2414 4.24991 41.6659 4.33138 42.0745 4.49136C42.483 4.65283 42.8598 4.89428 43.2049 5.21721C43.5499 5.54014 43.8488 5.87788 44.1 6.23192C44.3512 6.58743 44.5389 6.95776 44.6659 7.34439C44.6963 7.47326 44.7208 7.59473 44.7367 7.70731C44.7526 7.81989 44.7757 7.92507 44.8074 8.02135C44.8377 8.15023 44.8623 8.26281 44.8782 8.35909C44.894 8.45538 44.9013 8.55315 44.9013 8.64943V9.08494C44.8695 9.08494 44.8536 9.09383 44.8536 9.10864V23.9263H48.9524V7.41549C48.9524 7.3992 48.9682 7.3755 49 7.34291V7.05257C48.9682 6.08527 48.7416 5.20832 48.3171 4.4173H48.3113Z" fill="#00C2FF"/>
</svg>
