<?xml version="1.0" encoding="utf-8"?>
<!-- Generator: Adobe Illustrator 26.3.1, SVG Export Plug-In . SVG Version: 6.00 Build 0)  -->
<svg version="1.1" id="Layer_1" xmlns="http://www.w3.org/2000/svg" xmlns:xlink="http://www.w3.org/1999/xlink" x="0px" y="0px"
	 viewBox="0 0 178.8 17.7" style="enable-background:new 0 0 178.8 17.7;" xml:space="preserve">
<style type="text/css">
	.st0{fill:#FFFFFF;}
</style>
<g>
	<path class="st0" d="M0,14V4.6h3.2C3.9,4.6,4.5,4.7,5,5C5.5,5.2,5.8,5.6,6.1,6c0.2,0.4,0.3,1,0.3,1.5S6.3,8.6,6.1,9.1
		c-0.2,0.5-0.6,0.8-1,1.1S4,10.6,3.2,10.6H0.9v-1h2.3c0.5,0,0.9-0.1,1.2-0.3c0.3-0.2,0.5-0.4,0.7-0.7s0.2-0.6,0.2-1s-0.1-0.7-0.2-1
		S4.7,6,4.4,5.8S3.7,5.6,3.2,5.6h-2V14H0z"/>
	<path class="st0" d="M16.9,9.3c0,1-0.2,1.9-0.5,2.6c-0.4,0.7-0.9,1.3-1.5,1.7c-0.6,0.4-1.3,0.6-2.1,0.6s-1.5-0.2-2.1-0.6
		c-0.6-0.4-1.1-0.9-1.5-1.7s-0.5-1.6-0.5-2.6s0.2-1.9,0.5-2.6S9.9,5.4,10.6,5c0.6-0.4,1.4-0.6,2.1-0.6s1.5,0.2,2.1,0.6
		S16,6,16.3,6.7C16.7,7.4,16.9,8.3,16.9,9.3z M15.8,9.3c0-0.8-0.1-1.5-0.4-2.1c-0.3-0.6-0.6-1-1.1-1.3s-1-0.4-1.6-0.4
		s-1.1,0.1-1.6,0.4c-0.5,0.3-0.8,0.7-1.1,1.3S9.6,8.5,9.6,9.3s0.1,1.5,0.4,2.1c0.3,0.6,0.6,1,1.1,1.3s1,0.4,1.6,0.4s1.1-0.1,1.6-0.4
		s0.8-0.7,1.1-1.3C15.6,10.8,15.8,10.1,15.8,9.3z"/>
	<path class="st0" d="M21.2,14l-2.6-9.4h1.2l2,7.7h0.1l2-7.7h1.3l2,7.7h0.1l2-7.7h1.2L27.8,14h-1.2l-2.1-7.5h-0.1L22.3,14H21.2z"/>
	<path class="st0" d="M32.4,14V4.6h5.7v1h-4.6v3.2h4.3v1h-4.3V13h4.6v1L32.4,14L32.4,14z"/>
	<path class="st0" d="M40.9,14V4.6H44c0.7,0,1.3,0.1,1.8,0.4c0.5,0.2,0.8,0.6,1,1s0.3,0.9,0.3,1.5s-0.1,1.1-0.3,1.5s-0.6,0.8-1,1
		c-0.5,0.2-1.1,0.4-1.8,0.4h-2.6v-1H44c0.5,0,0.9-0.1,1.2-0.2c0.3-0.1,0.5-0.4,0.7-0.6c0.1-0.3,0.2-0.6,0.2-1s-0.1-0.7-0.2-1
		S45.5,6,45.2,5.8S44.5,5.6,44,5.6h-2V14C42,14,40.9,14,40.9,14z M45.3,9.8l2.3,4.2h-1.3L44,9.8C44,9.8,45.3,9.8,45.3,9.8z"/>
	<path class="st0" d="M49.8,14V4.6h5.7v1H51v3.2h4.3v1H51V13h4.6v1L49.8,14L49.8,14z"/>
	<path class="st0" d="M61.2,14h-2.9V4.6h3c0.9,0,1.7,0.2,2.3,0.6s1.1,0.9,1.5,1.6s0.5,1.5,0.5,2.5s-0.2,1.8-0.5,2.5
		s-0.9,1.2-1.5,1.6S62.1,14,61.2,14C61.2,14,61.2,14,61.2,14z M59.4,13h1.7c0.8,0,1.4-0.1,1.9-0.4s0.9-0.7,1.1-1.3
		c0.2-0.6,0.4-1.2,0.4-2s-0.1-1.4-0.4-2s-0.6-1-1.1-1.3c-0.5-0.3-1.1-0.4-1.8-0.4h-1.8C59.4,5.6,59.4,13,59.4,13z"/>
	<path class="st0" d="M72.6,14V4.6h3.3c0.7,0,1.2,0.1,1.6,0.3c0.4,0.2,0.8,0.5,1,0.9s0.3,0.8,0.3,1.3c0,0.4-0.1,0.7-0.2,1
		c-0.1,0.3-0.3,0.5-0.6,0.6c-0.2,0.1-0.5,0.3-0.8,0.3v0.1c0.3,0,0.6,0.1,0.9,0.3s0.5,0.4,0.7,0.8c0.2,0.3,0.3,0.8,0.3,1.3
		s-0.1,0.9-0.3,1.3c-0.2,0.4-0.6,0.7-1,0.9C77.3,13.9,76.7,14,76,14L72.6,14L72.6,14z M73.7,13H76c0.8,0,1.3-0.1,1.6-0.4
		c0.3-0.3,0.5-0.6,0.5-1.1c0-0.3-0.1-0.6-0.2-0.9c-0.2-0.3-0.4-0.5-0.7-0.7c-0.3-0.2-0.7-0.2-1.1-0.2h-2.3V13z M73.7,8.7h2.1
		c0.3,0,0.7-0.1,0.9-0.2c0.3-0.1,0.5-0.3,0.7-0.6c0.2-0.2,0.2-0.5,0.2-0.9c0-0.4-0.1-0.8-0.4-1.1s-0.8-0.4-1.4-0.4h-2.2L73.7,8.7
		L73.7,8.7L73.7,8.7z"/>
	<path class="st0" d="M80.8,4.6h1.3L84.8,9h0.1l2.6-4.4h1.3l-3.4,5.6V14h-1.1v-3.9L80.8,4.6L80.8,4.6L80.8,4.6z"/>
	<path class="st0" d="M161.9,1.2c-0.8-0.6-1.7-1-2.7-1.1c-1-0.1-1.9,0-2.7,0.3c-0.8,0.3-1.5,0.8-2,1.5c-0.5,0.7-0.8,1.6-0.8,2.7v9.1
		l-6.4-3.7l1.6,0c1.1,0,2-0.3,2.7-0.8c0.7-0.5,1.2-1.1,1.6-1.8c0.3-0.7,0.5-1.5,0.4-2.4c0-0.9-0.3-1.7-0.7-2.4
		c-0.4-0.7-1-1.3-1.8-1.8c-0.8-0.5-1.8-0.7-3-0.7C132.1,0,116,0,100,0v3.4h14.6l-12.7,4.5c-0.8,0.3-1.4,0.8-1.9,1.4
		c-0.5,0.6-0.8,1.3-1,2c-0.2,0.7-0.2,1.5,0,2.2s0.4,1.4,0.8,2.1c0.4,0.6,1,1.1,1.6,1.5s1.5,0.6,2.4,0.6h23.8c4.9,0,8.8-3.9,8.8-8.8
		c0-0.6-0.1-1.1-0.2-1.7l17.5,10.4v0h3.5L157.1,5c0-0.3,0.1-0.6,0.2-0.9s0.3-0.5,0.6-0.6s0.5-0.2,0.8-0.1c0.3,0,0.6,0.2,1,0.4
		l19.1,13.8v-4.2L161.9,1.2z M104.1,14.2c-0.5,0-0.8-0.1-1.1-0.4c-0.3-0.3-0.5-0.6-0.6-0.9c-0.1-0.3-0.1-0.7,0.1-1
		c0.1-0.3,0.4-0.6,0.7-0.7l16.6-6.4c-0.6,1.2-1,2.6-1,4.1c0,2,0.7,3.9,1.8,5.4L104.1,14.2L104.1,14.2L104.1,14.2z M127.6,14.2
		c-2.9,0-5.3-2.4-5.3-5.3s2.4-5.3,5.3-5.3c2.9,0,5.3,2.4,5.3,5.3S130.5,14.2,127.6,14.2z M134.6,3.5l14,0c0.6,0,1.1,0.2,1.4,0.5
		c0.3,0.3,0.4,0.7,0.4,1.1c0,0.4-0.2,0.8-0.5,1.1s-0.8,0.5-1.4,0.5h-12.3C135.9,5.6,135.3,4.4,134.6,3.5L134.6,3.5L134.6,3.5z"/>
</g>
</svg>
