<?xml version="1.0" encoding="UTF-8"?><svg id="Layer_1" xmlns="http://www.w3.org/2000/svg" viewBox="0 0 178.86 17.65"><path d="M0,14V4.55H3.19c.74,0,1.35,.13,1.82,.4,.47,.26,.82,.62,1.05,1.08,.23,.45,.34,.96,.34,1.51s-.11,1.06-.34,1.52c-.22,.46-.57,.82-1.04,1.09-.47,.27-1.07,.4-1.81,.4H.92v-1.02H3.18c.51,0,.92-.09,1.22-.26,.31-.18,.53-.41,.67-.71,.14-.3,.21-.64,.21-1.02s-.07-.72-.21-1.02c-.14-.3-.36-.53-.67-.7-.31-.17-.72-.26-1.24-.26H1.14V14H0Z"/><path d="M16.88,9.27c0,1-.18,1.86-.54,2.59-.36,.73-.85,1.29-1.48,1.68-.63,.39-1.34,.59-2.15,.59s-1.52-.2-2.15-.59c-.63-.39-1.12-.95-1.48-1.68-.36-.73-.54-1.59-.54-2.59s.18-1.86,.54-2.59c.36-.73,.85-1.29,1.48-1.68,.63-.39,1.35-.59,2.15-.59s1.52,.2,2.15,.59,1.12,.95,1.48,1.68c.36,.73,.54,1.59,.54,2.59Zm-1.11,0c0-.82-.14-1.51-.41-2.07-.27-.56-.64-.99-1.1-1.28-.46-.29-.98-.43-1.55-.43s-1.09,.14-1.56,.43c-.46,.29-.83,.72-1.1,1.28-.27,.56-.41,1.25-.41,2.07s.14,1.51,.41,2.07c.27,.56,.64,.99,1.1,1.28,.46,.29,.98,.43,1.56,.43s1.09-.14,1.55-.43c.46-.29,.83-.72,1.1-1.28,.27-.56,.41-1.25,.41-2.07Z"/><path d="M21.17,14l-2.59-9.45h1.16l1.98,7.7h.09l2.01-7.7h1.29l2.01,7.7h.09l1.98-7.7h1.16l-2.59,9.45h-1.18l-2.09-7.53h-.07l-2.09,7.53h-1.18Z"/><path d="M32.44,14V4.55h5.71v1.02h-4.56v3.19h4.27v1.02h-4.27v3.21h4.64v1.02h-5.78Z"/><path d="M40.86,14V4.55h3.19c.74,0,1.34,.13,1.82,.38,.47,.25,.82,.59,1.05,1.03,.23,.44,.34,.93,.34,1.49s-.11,1.05-.34,1.48c-.23,.43-.58,.77-1.05,1.02-.47,.24-1.07,.36-1.81,.36h-2.59v-1.03h2.55c.5,0,.91-.07,1.22-.22,.31-.15,.54-.36,.67-.63,.14-.27,.21-.6,.21-.98s-.07-.71-.21-.99c-.14-.28-.37-.5-.68-.66-.31-.16-.72-.24-1.23-.24h-2.01V14h-1.14Zm4.45-4.25l2.33,4.25h-1.33l-2.29-4.25h1.29Z"/><path d="M49.83,14V4.55h5.71v1.02h-4.56v3.19h4.27v1.02h-4.27v3.21h4.63v1.02h-5.78Z"/><path d="M61.17,14h-2.92V4.55h3.05c.92,0,1.7,.19,2.35,.57,.65,.38,1.15,.92,1.5,1.62,.35,.7,.52,1.54,.52,2.52s-.18,1.83-.53,2.54c-.35,.71-.86,1.25-1.53,1.63-.67,.38-1.49,.57-2.45,.57Zm-1.77-1.02h1.7c.78,0,1.43-.15,1.94-.45,.51-.3,.9-.73,1.15-1.29,.25-.56,.38-1.22,.38-1.99s-.12-1.42-.37-1.97c-.25-.55-.62-.98-1.12-1.27-.5-.3-1.11-.45-1.85-.45h-1.83v7.42Z"/><path d="M72.55,14V4.55h3.31c.66,0,1.2,.11,1.63,.34,.43,.22,.75,.53,.96,.91,.21,.38,.31,.8,.31,1.26,0,.41-.07,.74-.22,1.01-.14,.26-.33,.47-.56,.63-.23,.15-.48,.27-.75,.34v.09c.29,.02,.58,.12,.87,.3s.54,.45,.73,.79c.2,.34,.3,.77,.3,1.26s-.11,.9-.32,1.28c-.22,.38-.56,.68-1.02,.9-.46,.22-1.07,.33-1.81,.33h-3.42Zm1.14-1.02h2.27c.75,0,1.28-.14,1.59-.43,.32-.29,.48-.65,.48-1.06,0-.32-.08-.62-.24-.89-.16-.27-.4-.49-.7-.66-.3-.17-.66-.25-1.07-.25h-2.33v3.29Zm0-4.28h2.12c.34,0,.66-.07,.93-.2,.28-.14,.5-.33,.66-.57,.17-.25,.25-.54,.25-.87,0-.42-.14-.77-.43-1.06-.29-.29-.75-.44-1.38-.44h-2.16v3.14Z"/><path d="M80.84,4.55h1.31l2.62,4.41h.11l2.62-4.41h1.31l-3.42,5.56v3.9h-1.14v-3.9l-3.42-5.56Z"/><path d="M161.92,1.17c-.82-.6-1.72-.97-2.67-1.08-.96-.12-1.85-.03-2.66,.28-.82,.3-1.49,.8-2.04,1.51-.54,.71-.81,1.59-.81,2.65V13.64l-6.4-3.66,1.57-.03c1.07-.02,1.97-.27,2.68-.76,.72-.49,1.24-1.11,1.58-1.85,.34-.73,.49-1.54,.45-2.4-.03-.86-.27-1.66-.68-2.38-.42-.73-1.03-1.34-1.82-1.82-.79-.48-1.79-.73-2.98-.73-16.05,0-32.1,0-48.15-.02V3.43h14.56l-12.69,4.46c-.81,.31-1.45,.77-1.93,1.37-.47,.6-.79,1.27-.96,1.99-.16,.73-.17,1.46-.04,2.21,.13,.75,.41,1.43,.82,2.05,.41,.62,.96,1.12,1.64,1.51,.68,.39,1.49,.59,2.44,.59h23.27c.15,0,.32,0,.48,0,4.86,0,8.79-3.94,8.79-8.8,0-.58-.06-1.14-.16-1.68l17.51,10.45v.03h3.47l-.07-12.61c0-.32,.07-.61,.21-.87,.14-.26,.33-.45,.57-.57,.24-.12,.53-.17,.84-.13,.32,.03,.65,.18,1,.43l19.1,13.79v-4.22L161.92,1.17Zm-57.83,12.99c-.46,0-.82-.13-1.11-.39-.28-.26-.47-.55-.55-.9-.09-.34-.07-.67,.07-1,.13-.33,.37-.57,.73-.72l16.58-6.43c-.64,1.22-1,2.61-1,4.08,0,2.02,.68,3.89,1.83,5.37l-16.54-.02Zm23.51,0c-2.95,0-5.34-2.4-5.34-5.34s2.4-5.34,5.34-5.34c2.94,0,5.34,2.39,5.34,5.34s-2.4,5.34-5.34,5.34Zm6.97-10.71l13.98,.02c.62,0,1.07,.17,1.37,.52,.29,.35,.43,.73,.42,1.14-.02,.41-.18,.79-.51,1.14-.33,.35-.79,.52-1.41,.52h-12.26c-.29-1.23-.84-2.37-1.59-3.33Z"/></svg>