<svg width="207" height="181" viewBox="0 0 207 181" fill="none" xmlns="http://www.w3.org/2000/svg">
<path d="M74.5111 159.185C74.0704 159.185 73.706 159.544 73.706 159.99C73.706 160.437 74.0645 160.796 74.5111 160.796C74.9578 160.796 75.3162 160.437 75.3162 159.99C75.3162 159.544 74.9578 159.185 74.5111 159.185ZM47.749 159.185C47.3083 159.185 46.9439 159.544 46.9439 159.99C46.9439 160.437 47.3024 160.796 47.749 160.796C48.1956 160.796 48.5541 160.437 48.5541 159.99C48.5541 159.544 48.1956 159.185 47.749 159.185ZM161.591 111.669H157.424V114.403H161.591V111.669ZM37.4767 157.116L37.5002 157.186C37.5472 157.175 42.1192 155.881 47.6726 155.881C53.226 155.881 57.798 157.175 57.845 157.186L57.8685 157.116L57.9332 157.133L58.4445 155.346L57.8803 155.182L57.416 155.07L57.0458 156.54C56.8636 156.498 56.6521 156.451 56.4229 156.399L56.7402 154.911L56.1643 154.788L55.847 156.281C55.465 156.205 55.0419 156.128 54.5776 156.046L54.8245 154.535L54.2427 154.441L53.9959 155.952C53.4435 155.864 52.844 155.787 52.2094 155.711L52.3739 154.182L51.7921 154.118L51.6276 155.646C50.94 155.576 50.2054 155.523 49.4532 155.487L49.512 153.947L48.9243 153.924L48.8656 155.464C48.4718 155.452 48.0781 155.44 47.6726 155.44C47.2671 155.44 46.8734 155.446 46.4797 155.464L46.415 153.924L45.8274 153.947L45.892 155.487C45.1398 155.523 44.4052 155.576 43.7177 155.646L43.5531 154.118L42.9713 154.182L43.1359 155.711C42.5012 155.781 41.9018 155.864 41.3494 155.952L41.1026 154.441L40.5208 154.535L40.7676 156.046C40.3033 156.122 39.8802 156.205 39.4982 156.281L39.1809 154.788L38.605 154.911L38.9223 156.399C38.6931 156.446 38.4816 156.493 38.2994 156.54L37.9292 155.07L37.4649 155.188L36.9008 155.346L37.412 157.133L37.4767 157.116ZM155.033 115.643C154.122 115.978 153.693 116.866 153.358 117.753V115.525H149.356V128.587H153.358V119.023L156.566 120.51L156.925 115.813C156.396 115.549 156.037 115.502 155.773 115.502C155.438 115.502 155.174 115.572 155.033 115.643ZM161.591 115.525H157.424V128.587H161.591V115.525ZM82.3917 174.481H83.1028L83.7962 172.847H86.2644L86.9402 174.481H87.6513L85.0479 168.397L82.3799 174.481H82.3917ZM84.0548 172.235L85.0479 169.913L86.0234 172.235H84.0606H84.0548ZM178.01 111.663H173.844V128.582H178.01V111.663ZM102.995 171.195L102.437 170.948C102.219 170.854 102.002 170.754 101.826 170.583C101.667 170.436 101.608 170.307 101.608 170.078C101.608 169.537 102.008 169.184 102.584 169.184C102.913 169.184 103.124 169.296 103.236 169.384C103.365 169.49 103.495 169.66 103.577 169.819L104.088 169.478C103.959 169.225 103.759 168.99 103.524 168.832C103.236 168.638 102.948 168.573 102.595 168.573C101.655 168.573 100.968 169.172 100.968 170.072C100.968 170.507 101.115 170.777 101.367 171.018C101.626 171.271 101.914 171.395 102.143 171.494L102.666 171.741C102.972 171.882 103.195 171.982 103.359 172.141C103.571 172.335 103.647 172.559 103.647 172.817C103.647 173.399 103.271 173.963 102.484 173.963C102.19 173.963 101.902 173.893 101.649 173.64C101.485 173.464 101.344 173.205 101.303 172.899L100.674 173.076C100.75 173.423 100.927 173.822 101.214 174.105C101.614 174.498 102.09 174.575 102.478 174.575C103.524 174.575 104.311 173.864 104.311 172.794C104.311 172.376 104.188 172.035 103.894 171.741C103.647 171.494 103.336 171.342 103.001 171.195H102.995ZM105.393 158.18C105.393 154.57 102.454 151.631 98.8462 151.631C95.238 151.631 92.2997 154.57 92.2997 158.18C92.2997 161.789 95.238 164.728 98.8462 164.728C102.454 164.728 105.393 161.789 105.393 158.18ZM98.8462 164.141C95.5612 164.141 92.8873 161.466 92.8873 158.18C92.8873 154.894 95.5612 152.219 98.8462 152.219C102.131 152.219 104.805 154.894 104.805 158.18C104.805 161.466 102.131 164.141 98.8462 164.141ZM105.064 174.475H108.073V173.864H105.704V171.612H108.002V171.001H105.704V169.278H108.073V168.667H105.064V174.469V174.475ZM120.601 168.573C118.933 168.573 117.581 169.843 117.581 171.577C117.581 173.311 118.921 174.581 120.601 174.581C122.282 174.581 123.622 173.299 123.622 171.577C123.622 169.854 122.276 168.573 120.601 168.573ZM120.601 173.969C119.297 173.969 118.245 172.905 118.245 171.577C118.245 170.248 119.297 169.184 120.601 169.184C121.906 169.184 122.958 170.248 122.958 171.577C122.958 172.905 121.906 173.969 120.601 173.969ZM108.313 174.475H109.025L109.718 172.841H112.186L112.862 174.475H113.573L110.97 168.391L108.302 174.475H108.313ZM109.977 172.229L110.97 169.907L111.945 172.229H109.982H109.977ZM169.63 134.054C169.63 133.437 169.336 132.99 168.995 132.767C168.561 132.473 167.979 132.444 167.585 132.444H166.657V138.246H167.303V135.706H167.467L169.23 138.246H170.012L168.167 135.653C169.042 135.595 169.63 134.942 169.63 134.054ZM167.297 135.136V133.055H167.691C167.967 133.055 168.267 133.073 168.525 133.22C168.89 133.431 168.984 133.749 168.984 134.072C168.984 134.748 168.508 135.136 167.703 135.136H167.291H167.297ZM64.2447 157.116L64.2682 157.186C64.3152 157.175 68.8872 155.881 74.4406 155.881C79.994 155.881 84.566 157.175 84.613 157.186L84.6366 157.116L84.7012 157.133L85.2125 155.346L84.6483 155.182L84.1841 155.07L83.8138 156.54C83.6316 156.498 83.4201 156.451 83.1909 156.399L83.5082 154.911L82.9323 154.788L82.615 156.281C82.233 156.205 81.8099 156.128 81.3456 156.046L81.5925 154.535L81.0107 154.441L80.7639 155.952C80.2114 155.864 79.612 155.787 78.9774 155.711L79.1419 154.182L78.5601 154.118L78.3956 155.646C77.708 155.576 76.9734 155.523 76.2212 155.487L76.2859 153.947L75.6982 153.924L75.6336 155.464C75.2398 155.452 74.8461 155.44 74.4406 155.44C74.0351 155.44 73.6414 155.446 73.2477 155.464L73.1889 153.924L72.6012 153.947L72.66 155.487C71.9078 155.523 71.1732 155.576 70.4857 155.646L70.3211 154.118L69.7393 154.182L69.9039 155.711C69.2692 155.781 68.6698 155.864 68.1174 155.952L67.8706 154.441L67.2888 154.535L67.5356 156.046C67.0713 156.122 66.6482 156.205 66.2662 156.281L65.9489 154.788L65.373 154.911L65.6903 156.399C65.4611 156.446 65.2496 156.493 65.0674 156.54L64.6972 155.07L64.2329 155.188L63.6688 155.346L64.18 157.133L64.2447 157.116ZM60.9949 151.478H34.2269V165.716H88.0332V151.478H60.989H60.9949ZM60.9949 165.434H34.5149V164.617H47.5845L47.6315 164.652L47.655 164.617H60.989V165.434H60.9949ZM60.9949 164.334H47.8548L47.8783 164.299L38.5462 158.191L47.1907 164.334H34.5207V151.766H60.9949V164.334ZM87.757 165.434H61.2829V164.617H74.3525L74.3995 164.652L74.423 164.617H87.757V165.434ZM87.757 164.334H74.6169L74.6404 164.299L65.3025 158.191L73.947 164.334H61.277V151.766H87.7512V164.334H87.757ZM164.923 128.593H166.239C166.933 128.546 167.415 128.499 167.891 127.994C168.202 127.682 168.443 127.253 168.608 126.889V128.587H172.774V115.525H168.608V117.395C168.273 116.725 167.891 115.978 167.144 115.719C166.809 115.578 166.233 115.549 166.186 115.525H164.988C164.412 115.572 164.124 115.643 163.912 115.766C163.795 115.813 163.53 115.984 163.266 116.296C162.619 117.089 162.643 118.047 162.619 118.382V125.813C162.666 126.63 162.713 127.441 163.36 128.088C163.812 128.546 164.247 128.57 164.917 128.593H164.923ZM166.768 124.208V119.823C166.768 119.652 166.768 118.694 167.656 118.67C168.59 118.67 168.59 119.582 168.613 119.776V124.208C168.613 124.496 168.59 124.714 168.566 124.831C168.396 125.431 167.92 125.501 167.703 125.501C167.609 125.501 167.321 125.478 167.103 125.307C166.745 125.019 166.745 124.637 166.768 124.202V124.208ZM92.5935 173.182L88.0685 168.438V174.487H88.7149V170.007L93.2399 174.751V168.685H92.5994V173.182H92.5935ZM170.882 138.258L171.575 136.623H174.043L174.719 138.258H175.43L172.827 132.173L170.159 138.258H170.87H170.882ZM172.821 133.69L173.797 136.012H171.834L172.827 133.69H172.821ZM97.665 169.361C96.9363 168.743 96.1077 168.685 95.5259 168.685H94.3447V174.487H95.52C96.5543 174.487 97.1126 174.269 97.6415 173.816C98.0587 173.458 98.6582 172.805 98.6582 171.589C98.6582 170.542 98.1998 169.807 97.665 169.361ZM97.2125 173.352C96.6484 173.822 96.0137 173.875 95.5494 173.875H94.9853V169.29H95.5494C97.0186 169.29 97.9941 170.195 97.9941 171.589C97.9941 172.417 97.6474 172.988 97.2125 173.352ZM98.8521 153.659C96.3545 153.659 94.3271 155.693 94.3271 158.186C94.3271 160.678 96.1606 162.506 98.4877 162.694C98.6112 162.706 98.7346 162.712 98.858 162.712C101.356 162.712 103.389 160.678 103.389 158.18C103.389 155.681 101.356 153.653 98.858 153.653L98.8521 153.659ZM98.8521 162.13C97.1831 162.13 95.8198 160.772 95.8198 159.097C95.8198 157.421 97.1773 156.063 98.8521 156.063C100.527 156.063 101.884 157.421 101.884 159.097C101.884 160.772 100.527 162.13 98.8521 162.13ZM98.8521 155.476C96.854 155.476 95.2321 157.098 95.2321 159.097C95.2321 159.402 95.2732 159.691 95.3438 159.973C95.0676 159.438 94.9089 158.832 94.9089 158.186C94.9089 156.011 96.6777 154.247 98.8462 154.247C101.015 154.247 102.789 156.016 102.789 158.186C102.789 158.826 102.631 159.432 102.355 159.973C102.425 159.691 102.466 159.397 102.466 159.097C102.466 157.098 100.844 155.476 98.8462 155.476H98.8521ZM115.912 171.201L115.354 170.954C115.136 170.86 114.919 170.76 114.742 170.589C114.584 170.442 114.525 170.313 114.525 170.084C114.525 169.543 114.925 169.19 115.501 169.19C115.83 169.19 116.041 169.302 116.153 169.39C116.282 169.496 116.411 169.666 116.494 169.825L117.005 169.484C116.876 169.231 116.676 168.996 116.441 168.837C116.153 168.643 115.865 168.579 115.512 168.579C114.572 168.579 113.884 169.178 113.884 170.078C113.884 170.513 114.031 170.783 114.284 171.024C114.543 171.277 114.831 171.4 115.06 171.5L115.583 171.747C115.888 171.888 116.112 171.988 116.276 172.147C116.488 172.341 116.564 172.564 116.564 172.823C116.564 173.405 116.188 173.969 115.401 173.969C115.107 173.969 114.819 173.899 114.566 173.646C114.402 173.47 114.261 173.211 114.219 172.905L113.591 173.082C113.667 173.429 113.843 173.828 114.131 174.11C114.531 174.504 115.007 174.581 115.395 174.581C116.441 174.581 117.228 173.869 117.228 172.8C117.228 172.382 117.105 172.041 116.811 171.747C116.564 171.5 116.253 171.348 115.918 171.201H115.912ZM166.41 157.239C167.656 157.239 168.666 156.222 168.666 154.976C168.666 153.73 167.656 152.719 166.41 152.719C165.164 152.719 164.153 153.73 164.153 154.976C164.153 156.222 165.164 157.239 166.41 157.239ZM29.8547 42.2619C30.3131 42.2619 30.7773 42.2443 31.2357 42.2149L33.8449 37.3651L33.2044 36.4128C31.4825 33.8615 29.2377 31.7218 26.6343 30.1287C25.7822 29.5996 24.889 29.1294 23.9605 28.7296C23.79 28.6532 23.6196 28.5827 23.4433 28.5121L14.7577 25.0027L10.3208 33.2443L17.4257 38.2939C19.3414 39.6519 21.4511 40.6806 23.6666 41.3507C24.5893 41.627 25.5295 41.8445 26.4815 41.9915C27.5922 42.1737 28.7205 42.2619 29.8547 42.2619ZM135.175 154.841H134.529V160.643H135.175V154.841ZM165.005 42.5029C164.87 42.3618 164.735 42.2207 164.594 42.0855C164.324 41.8269 164.041 41.58 163.753 41.3507C163.63 41.2567 163.507 41.1626 163.383 41.0686C161.197 39.4402 158.541 38.5937 155.802 38.6349C154.145 38.6643 152.547 39.017 151.078 39.6519C149.608 40.2926 148.257 41.2273 147.111 42.4147C142.368 47.3233 142.504 55.1769 147.416 59.9209C149.814 62.237 152.917 63.3892 156.014 63.3892C159.111 63.3892 162.496 62.1312 164.917 59.6152C167.215 57.2403 168.449 54.107 168.39 50.7975C168.337 47.8347 167.256 45.0483 165.317 42.8497C165.217 42.7322 165.111 42.6146 165.005 42.5029ZM164.494 59.2096C159.981 63.8888 152.5 64.0182 147.822 59.4976C143.144 54.9771 143.015 47.4996 147.534 42.8204C149.021 41.2802 150.831 40.2338 152.758 39.6812C151.119 40.2808 149.579 41.2567 148.274 42.6087C143.785 47.2586 143.802 54.5891 148.316 58.945C150.478 61.0319 153.281 62.0665 156.114 62.0665C159.187 62.0665 162.296 60.8438 164.635 58.4219C166.134 56.8699 167.127 55.0241 167.62 53.0842C167.221 55.3768 166.151 57.4931 164.494 59.2096ZM164.212 58.0104C159.951 62.4251 153.005 62.6544 148.727 58.5218C144.449 54.3892 144.431 47.435 148.698 43.0202C149.779 41.8974 151.036 41.0451 152.382 40.4807C151.307 41.0333 150.32 41.7681 149.456 42.6616C147.481 44.7073 146.382 47.3703 146.37 50.1567C146.353 52.9549 147.428 55.5532 149.403 57.4578C151.33 59.3213 153.84 60.2383 156.378 60.2383C159.187 60.2383 162.038 59.1155 164.182 56.8876C166.163 54.8419 167.256 52.1789 167.274 49.3925C167.274 48.934 167.25 48.4755 167.191 48.0287C167.879 51.4735 166.892 55.2416 164.212 58.0104ZM162.919 55.6648C159.499 59.1978 153.987 59.433 150.625 56.188C149.003 54.6185 148.116 52.4787 148.133 50.1626C148.139 48.9986 148.374 47.8582 148.809 46.7942C149.25 45.7302 149.896 44.7426 150.725 43.8844C152.388 42.1678 154.58 41.1685 156.913 41.0744C157.031 41.0686 157.148 41.0627 157.272 41.0627C159.446 41.0627 161.479 41.8739 163.013 43.3612C164.635 44.9249 165.522 47.0646 165.511 49.3807C165.499 51.7145 164.576 53.9424 162.919 55.6648ZM114.966 154.841H114.319V160.643H114.966V154.841ZM122.958 160.037H120.59V157.786H122.887V157.174H120.59V155.452H122.958V154.841H119.949V160.643H122.958V160.031V160.037ZM116.699 158.103H116.864L118.627 160.643H119.409L117.563 158.05C118.439 157.992 119.027 157.339 119.027 156.451C119.027 155.834 118.733 155.387 118.392 155.164C117.957 154.87 117.375 154.841 116.981 154.841H116.053V160.643H116.699V158.103ZM116.699 155.452H117.093C117.369 155.452 117.669 155.47 117.928 155.617C118.292 155.828 118.386 156.146 118.386 156.469C118.386 157.145 117.91 157.527 117.105 157.527H116.694V155.446L116.699 155.452ZM166.874 1.18893C153.569 -1.70916 139.93 0.742162 128.47 8.10203C122.964 11.635 118.28 16.1026 114.578 21.264H92.3996C85.236 11.247 74.8167 4.24574 62.7168 1.38292C49.465 -1.74444 35.7901 0.471752 24.2014 7.63175C12.6186 14.7917 4.51472 26.0373 1.38248 39.2933C-1.74388 52.5492 0.471603 66.2285 7.62933 77.815C11.7547 84.4929 17.2258 90.0128 23.6666 94.0866V171.165C23.6666 176.597 28.0682 181 33.4982 181H173.515C178.95 181 183.352 176.597 183.352 171.165V94.0219C194.435 86.9736 202.809 75.687 205.824 61.8725C211.812 34.4024 194.335 7.1791 166.874 1.18893ZM9.12786 76.892C-5.13469 53.7955 2.04066 23.4037 25.1299 9.13076C33.1691 4.16344 42.0957 1.79441 50.9165 1.79441C65.9489 1.79441 80.6816 8.67224 90.2135 21.264C90.8481 22.0987 91.4593 22.9628 92.0411 23.8505C92.3232 24.2737 92.5935 24.7029 92.8638 25.1379C99.7747 36.3246 101.914 49.5336 98.8932 62.331C95.8726 75.1285 88.0509 85.9861 76.8677 92.8933C68.8226 97.8665 59.9019 100.236 51.0752 100.236C42.4718 100.23 33.9683 97.9782 26.4815 93.6869C25.5236 93.146 24.5834 92.5641 23.6666 91.9468C17.9545 88.1552 12.9594 83.0938 9.12786 76.892ZM180.537 169.555C180.537 173.887 177.023 177.396 172.692 177.396H34.3209C29.9899 177.396 26.4815 173.887 26.4815 169.555V153.048C26.4815 148.715 29.9899 145.2 34.3209 145.2H172.692C177.023 145.2 180.537 148.715 180.537 153.048V169.555ZM180.537 134.642C180.537 138.975 177.023 142.484 172.692 142.484H34.3209C29.9899 142.484 26.4815 138.975 26.4815 134.642V95.7443C30.4541 97.9194 34.7499 99.5712 39.2808 100.641C43.2005 101.57 47.1614 102.028 51.0928 102.028C60.4425 102.028 69.6394 99.436 77.7903 94.3982C89.379 87.2382 97.477 75.9926 100.609 62.7367C103.741 49.4807 101.52 35.8014 94.3682 24.2091C94.2918 24.0856 94.2213 23.9681 94.139 23.8505H112.838C109.736 28.7884 107.485 34.2848 106.204 40.1515C103.307 53.4604 105.763 67.1044 113.121 78.5674C120.472 90.0305 131.855 97.937 145.16 100.841C148.803 101.635 152.441 102.017 156.026 102.017C164.747 102.011 173.15 99.7535 180.537 95.6914V134.642ZM204.102 61.5022C201.364 74.0527 194.006 84.8398 183.352 91.9527C183.105 92.1173 182.858 92.2819 182.606 92.4406C181.924 92.8815 181.236 93.2989 180.537 93.7045C169.924 99.8181 157.583 101.746 145.536 99.1127C132.69 96.3146 121.706 88.6784 114.601 77.6151C107.497 66.5459 105.128 53.3781 107.931 40.5277C109.248 34.4847 111.634 28.859 114.936 23.8505C115.524 22.9687 116.135 22.1046 116.776 21.264C120.219 16.714 124.48 12.7637 129.422 9.58928C137.456 4.42797 146.594 1.76502 155.92 1.76502C159.434 1.76502 162.978 2.14712 166.498 2.91132C193.013 8.69575 209.879 34.9785 204.102 61.5022ZM49.2182 51.2442C49.2711 51.303 49.3298 51.3618 49.3886 51.4206C49.465 51.4911 49.5531 51.5617 49.6413 51.6322H49.653C49.7177 51.6792 49.7764 51.7204 49.8411 51.7615C49.8999 51.7968 49.9586 51.8262 50.0233 51.8615C50.0585 51.8791 50.0997 51.8967 50.1349 51.9085C50.4699 52.0613 50.799 52.126 51.1046 52.126C51.8744 52.126 52.5385 51.7204 52.9322 51.1678C53.5727 50.2919 53.6609 48.8928 52.3504 47.8759C50.9812 46.9588 49.6765 47.4938 49.0477 48.3755C48.5306 49.0986 48.3896 50.1743 49.0948 51.0855C49.13 51.1384 49.1712 51.1913 49.2182 51.2442ZM49.371 48.9281C49.847 48.2756 50.8225 47.8935 51.8333 48.593C52.8205 49.3337 52.7676 50.3801 52.3034 51.0385C51.8979 51.6146 51.0987 51.9849 50.2172 51.6146C50.1349 51.5793 50.0468 51.5323 49.9645 51.4852C49.9116 51.4617 49.8646 51.4265 49.8176 51.3971C49.7471 51.3442 49.6824 51.2854 49.6237 51.2325C49.5708 51.1854 49.5238 51.1325 49.4767 51.0796C48.8538 50.3566 48.9596 49.4866 49.371 48.9281ZM72.2839 42.0562C76.5503 41.7564 80.6346 40.1868 84.0019 37.5532L91.3829 31.7806L86.4936 23.8505L86.4701 23.8152L86.3937 23.8505L78.5484 27.4481C76.3035 28.471 74.2761 29.8701 72.5366 31.5631C70.7912 33.2561 69.3397 35.243 68.2467 37.4533L71.138 42.1326L72.2839 42.0562ZM49.5708 72.5655L49.0654 73.5942C47.1907 77.4388 46.509 81.7594 47.1026 85.9978L48.4131 95.2799L57.7628 94.9978L58.5796 86.3211C58.6443 85.6451 58.6736 84.975 58.6736 84.2989C58.6736 80.0841 57.4278 75.9339 55.0713 72.4009L49.5708 72.5655ZM156.449 47.7642C155.532 47.9346 154.639 48.6636 154.58 49.9098C154.568 50.0274 154.574 50.1508 154.58 50.2802C154.592 50.3566 154.598 50.4389 154.609 50.5212C154.621 50.6035 154.639 50.674 154.662 50.7446C154.709 50.8915 154.756 51.0267 154.821 51.156C155.238 52.1025 156.084 52.5081 156.884 52.5081C157.025 52.5081 157.166 52.4963 157.301 52.4728C158.365 52.2847 159.405 51.3383 159.164 49.6982C158.817 48.0875 157.513 47.5702 156.449 47.7642ZM156.937 51.9438C156.137 52.0907 155.168 51.6969 154.903 50.4741C154.727 49.2338 155.503 48.5166 156.296 48.3814C157.084 48.2462 158.053 48.6518 158.3 49.8569C158.494 51.0737 157.73 51.7909 156.937 51.9438ZM183.352 52.0613C182.406 52.1378 181.466 52.273 180.537 52.4728C179.626 52.6727 178.727 52.9313 177.84 53.2488L176.67 58.6276L177.546 59.3624C178.486 60.1501 179.485 60.8555 180.537 61.461C181.442 61.9901 182.382 62.4545 183.352 62.8425C185.186 63.5773 187.119 64.0652 189.105 64.2709L198.426 65.2468L200.418 56.1057L192.196 53.2076C189.893 52.3964 187.483 51.9908 185.074 51.9908C184.498 51.9908 183.928 52.0143 183.352 52.0613ZM50.9988 63.395C57.8215 63.395 63.3749 57.8399 63.3749 51.015C63.3749 44.19 58.1212 38.9406 51.5512 38.6525C51.3573 38.6408 51.1633 38.6349 50.9694 38.6349C50.5757 38.6349 50.1878 38.6525 49.8117 38.6937C49.6589 38.7113 49.5061 38.7289 49.3533 38.7524C43.2945 39.5519 38.6167 44.7426 38.6167 51.015C38.6167 57.8399 44.1702 63.395 50.9988 63.395ZM50.7167 40.6453C55.3886 40.6453 59.1908 44.6427 59.1908 49.563C59.1908 54.4833 55.3886 58.4806 50.7167 58.4806C46.0448 58.4806 42.2426 54.4774 42.2426 49.563C42.2426 44.6486 46.0448 40.6453 50.7167 40.6453ZM50.7167 60.2442C56.3583 60.2442 60.9538 55.4532 60.9538 49.563C60.9538 46.1123 59.373 43.0379 56.9342 41.0862C59.8372 43.079 61.753 46.4885 61.753 50.3507C61.753 56.4878 56.9165 61.4845 50.9694 61.4845C45.0223 61.4845 40.1799 56.4878 40.1799 50.3507C40.1799 48.6518 40.5502 47.0352 41.2142 45.595C40.7382 46.8236 40.4796 48.1639 40.4796 49.563C40.4796 55.4532 45.0693 60.2442 50.7167 60.2442ZM40.8146 45.0777C40.033 46.6649 39.5923 48.4519 39.5923 50.3507C39.5923 56.8111 44.699 62.0724 50.9694 62.0724C57.2398 62.0724 62.3407 56.8111 62.3407 50.3507C62.3407 48.2109 61.7824 46.2064 60.8069 44.484C62.0586 46.3533 62.7873 48.6048 62.7873 51.015C62.7873 57.5166 57.4983 62.8072 50.9988 62.8072C44.4992 62.8072 39.2044 57.5166 39.2044 51.015C39.2044 48.8517 39.7921 46.8236 40.8146 45.0777ZM49.3592 173.176L44.8342 168.432V174.481H45.4806V170.001L50.0056 174.745V168.679H49.3651V173.176H49.3592ZM112.533 159.979C112.95 159.62 113.55 158.967 113.55 157.751C113.55 156.704 113.091 155.964 112.556 155.523C111.828 154.905 110.999 154.847 110.417 154.847H109.236V160.649H110.411C111.446 160.649 112.004 160.431 112.533 159.979ZM109.883 155.452H110.447C111.916 155.452 112.891 156.357 112.891 157.751C112.891 158.579 112.545 159.15 112.11 159.514C111.546 159.984 110.911 160.037 110.447 160.037H109.883V155.452ZM56.9283 171.6C56.9283 173.282 58.2094 174.587 59.9312 174.587C60.3661 174.587 61.036 174.481 61.6766 174.022V173.223C61.5708 173.329 61.3358 173.546 61.0067 173.711C60.7011 173.869 60.3191 173.981 59.9312 173.981C58.8676 173.981 57.5924 173.187 57.5924 171.612C57.5924 170.272 58.5855 169.196 59.9254 169.196C60.2662 169.196 60.6188 169.284 60.9244 169.419C61.2182 169.56 61.5003 169.778 61.6825 169.96V169.161C60.989 168.632 60.3191 168.585 59.9665 168.585C58.227 168.585 56.9283 169.872 56.9283 171.606V171.6ZM61.847 174.481H62.5581L63.2515 172.847H65.7197L66.3955 174.481H67.1066L64.5033 168.397L61.8353 174.481H61.847ZM63.5101 172.235L64.5033 169.913L65.4788 172.235H63.516H63.5101ZM70.6091 173.252L68.3818 168.355L67.4181 174.481H68.0762L68.6521 170.442L70.6032 174.722L72.5777 170.442L73.1243 174.481H73.7824L72.8774 168.35L70.6091 173.258V173.252ZM77.6081 173.693C77.373 173.693 77.1732 173.893 77.1732 174.128C77.1732 174.363 77.373 174.563 77.6081 174.563C77.8432 174.563 78.043 174.363 78.043 174.128C78.043 173.893 77.8432 173.693 77.6081 173.693ZM141.405 21.264C141.693 22.1457 142.039 23.0157 142.445 23.8505C142.686 24.3678 142.95 24.8675 143.238 25.3613C144.461 27.4599 146.035 29.3527 147.916 30.9517L153.158 29.2763L153.358 28.1477C153.61 26.7251 153.716 25.2848 153.675 23.8505C153.652 22.9863 153.575 22.1222 153.446 21.264C153.164 19.3476 152.623 17.4665 151.824 15.6794L148.01 7.12032L139.101 9.96551L140.705 18.5305C140.882 19.4593 141.111 20.3704 141.405 21.264ZM138.942 65.911C134.923 67.3748 131.432 70.0083 128.917 73.4708L123.41 81.054L130.333 87.3558L136.944 81.683C138.819 80.0782 140.382 78.1794 141.593 76.0691C142.797 73.9646 143.65 71.6543 144.09 69.2265L140.018 65.5231L138.942 65.911ZM77.6845 170.331C77.6845 169.966 77.5787 169.449 77.1556 169.084C76.7619 168.743 76.2741 168.673 75.6923 168.673H74.6404V174.475H75.2868V171.953H75.851C77.1732 171.953 77.6845 171.142 77.6845 170.325V170.331ZM75.8157 171.348H75.2868V169.284H75.7629C76.1801 169.284 77.044 169.372 77.044 170.295C77.044 170.965 76.5797 171.348 75.8157 171.348ZM54.5248 147.875H40.8146V149.627H54.5248V147.875ZM36.3484 171.195L35.7901 170.948C35.5727 170.854 35.3552 170.754 35.1789 170.583C35.0203 170.436 34.9615 170.307 34.9615 170.078C34.9615 169.537 35.3611 169.184 35.937 169.184C36.2661 169.184 36.4776 169.296 36.5893 169.384C36.7186 169.49 36.8479 169.66 36.9302 169.819L37.4414 169.478C37.3121 169.225 37.1123 168.99 36.8773 168.832C36.5893 168.638 36.3014 168.573 35.9488 168.573C35.0085 168.573 34.3209 169.172 34.3209 170.072C34.3209 170.507 34.4678 170.777 34.7205 171.018C34.9791 171.271 35.2671 171.395 35.4963 171.494L36.0193 171.741C36.3249 171.882 36.5482 171.982 36.7127 172.141C36.9243 172.335 37.0007 172.559 37.0007 172.817C37.0007 173.399 36.6246 173.963 35.8371 173.963C35.5433 173.963 35.2553 173.893 35.0026 173.64C34.8381 173.464 34.697 173.205 34.6559 172.899L34.0271 173.076C34.1035 173.423 34.2798 173.822 34.5677 174.105C34.9674 174.498 35.4434 174.575 35.8312 174.575C36.8773 174.575 37.6647 173.864 37.6647 172.794C37.6647 172.376 37.5413 172.035 37.2475 171.741C37.0007 171.494 36.6892 171.342 36.3542 171.195H36.3484ZM81.281 147.875H67.5709V149.627H81.281V147.875ZM81.2928 171.383C81.804 171.036 81.8687 170.53 81.8687 170.242C81.8687 169.537 81.5278 169.178 81.3456 169.043C80.9166 168.702 80.3349 168.679 80.0175 168.679H78.9715V174.481H80.4171C80.8167 174.481 81.3456 174.463 81.8099 174.099C82.1214 173.852 82.4034 173.405 82.4034 172.847C82.4034 172.288 82.1096 171.583 81.2986 171.383H81.2928ZM79.612 169.284H80.1174C80.2996 169.284 81.2399 169.302 81.2399 170.26C81.2399 171.154 80.4406 171.224 80.0998 171.224H79.612V169.284ZM81.3692 173.628C81.0929 173.846 80.7227 173.875 80.3525 173.875H79.612V171.806H80.2702C80.7286 171.806 81.0342 171.859 81.2516 171.982C81.4749 172.106 81.7453 172.376 81.7453 172.835C81.7453 173.182 81.5866 173.47 81.3633 173.634L81.3692 173.628ZM54.0781 172.176H55.8C55.7823 172.541 55.6707 172.823 55.5649 173.005C55.2358 173.587 54.5659 173.981 53.7902 173.981C52.6912 173.981 51.4337 173.182 51.4337 171.594C51.4337 170.248 52.4092 169.196 53.8078 169.196C54.5012 169.196 54.9361 169.455 55.2182 169.684C55.4121 169.843 55.6002 170.048 55.7647 170.284L56.2407 169.849C56.0762 169.625 55.8294 169.361 55.5708 169.161C55.0066 168.726 54.3543 168.585 53.7961 168.585C52.0625 168.585 50.7696 169.896 50.7696 171.589C50.7696 173.282 52.0566 174.592 53.7784 174.592C55.1065 174.592 55.7588 173.781 55.9351 173.546C56.2995 173.052 56.4934 172.353 56.4934 171.712V171.571H54.0723V172.182L54.0781 172.176ZM41.0379 168.585C39.369 168.585 38.0173 169.854 38.0173 171.589C38.0173 173.323 39.3572 174.592 41.0379 174.592C42.7186 174.592 44.0585 173.311 44.0585 171.589C44.0585 169.866 42.7127 168.585 41.0379 168.585ZM41.0379 173.981C39.7333 173.981 38.6814 172.917 38.6814 171.589C38.6814 170.26 39.7333 169.196 41.0379 169.196C42.3425 169.196 43.3944 170.26 43.3944 171.589C43.3944 172.917 42.3425 173.981 41.0379 173.981ZM85.806 97.7019C86.1938 97.9664 86.6757 98.1016 87.2575 98.1016C87.9686 98.1016 88.7796 97.8782 89.6904 97.4373C90.4603 97.0552 91.0538 96.6261 91.4828 96.1558C91.9059 95.6856 92.3761 94.9096 92.8873 93.8338C93.7336 92.0585 94.6268 90.8241 95.5729 90.1186C95.9373 90.5184 96.1195 90.971 96.1195 91.4824C96.1195 92.0762 95.9432 92.5817 95.5906 93.005C95.238 93.4282 94.8149 93.6457 94.3153 93.6457C94.045 93.6457 93.7688 93.5693 93.5044 93.4165C93.4574 93.393 93.4221 93.3753 93.3986 93.3753C93.3751 93.3753 93.3575 93.3871 93.3457 93.4165C93.3457 93.4988 93.4809 93.5869 93.7512 93.681C94.0215 93.7751 94.2742 93.8221 94.5034 93.8221C95.1028 93.8221 95.6258 93.6163 96.0724 93.2048C96.5191 92.7934 96.7424 92.3054 96.7424 91.7529C96.7424 91.0945 96.4192 90.5007 95.7669 89.9775C96.5308 89.5014 97.2713 89.2663 97.9941 89.2663C98.5289 89.2663 98.9579 89.4308 99.287 89.7659C99.6102 90.0951 99.7747 90.536 99.7747 91.0827C99.7747 91.4354 99.716 91.7646 99.6043 92.0644C99.5984 92.0879 99.5925 92.1114 99.5925 92.1232C99.5925 92.1644 99.6161 92.1879 99.6572 92.1879C99.7101 92.1879 99.7688 92.0527 99.8335 91.7822C99.8981 91.5118 99.9216 91.2649 99.9216 91.0416C99.9216 90.4713 99.7453 90.0128 99.3927 89.666C99.0401 89.3192 98.57 89.1428 97.9882 89.1428C97.2478 89.1428 96.4779 89.3897 95.6846 89.8835C94.8149 89.3133 93.7453 89.0311 92.4642 89.0311C90.7835 89.0311 89.2497 89.5367 87.8628 90.5536C86.4759 91.5706 85.7825 92.6875 85.7825 93.922C85.7825 94.5275 85.9647 95.0154 86.329 95.3799C86.6934 95.7443 87.1752 95.9266 87.7805 95.9266C88.7032 95.9266 89.6434 95.4974 90.5954 94.6333C91.5475 93.775 92.0235 92.9227 92.0235 92.0762C92.0235 91.3825 91.6474 91.0416 90.901 91.0416C90.1547 91.0416 89.3555 91.3649 88.615 92.0056C87.8746 92.6464 87.4985 93.3048 87.4985 93.9867C87.4985 94.2571 87.569 94.4922 87.7159 94.6803C87.8569 94.8684 88.0332 94.9625 88.2448 94.9625C88.3271 94.9625 88.3682 94.9449 88.3682 94.9096C88.3682 94.8684 88.3329 94.8508 88.2565 94.8508C88.1155 94.8508 87.9921 94.792 87.8922 94.6803C87.7864 94.5686 87.7335 94.4334 87.7335 94.2747C87.7335 93.6398 88.1038 92.9638 88.8442 92.2408C89.5847 91.5177 90.2781 91.1591 90.9245 91.1591C91.571 91.1591 91.8942 91.4766 91.8942 92.1056C91.8942 92.8992 91.4299 93.7104 90.4955 94.551C89.5612 95.3916 88.662 95.809 87.7864 95.809C87.2516 95.809 86.8285 95.6679 86.5171 95.3799C86.2056 95.0918 86.0469 94.7038 86.0469 94.2218C86.0469 93.2636 86.6052 92.2408 87.7159 91.1532C89.0734 89.8306 90.666 89.1663 92.4995 89.1663C93.81 89.1663 94.8031 89.4544 95.4848 90.0305C95.0676 90.3185 94.5622 90.7947 93.9686 91.4589C93.3751 92.1232 92.8579 92.7875 92.4172 93.4459C91.5416 94.7862 90.9715 95.6268 90.713 95.9736C90.472 96.2969 90.1841 96.6085 89.8491 96.92C89.0734 97.6255 88.2154 97.9782 87.2634 97.9782C86.7228 97.9782 86.2761 97.8606 85.9235 97.6196C85.5709 97.3786 85.3946 97.0788 85.3946 96.7202C85.3946 96.4909 85.4299 96.3733 85.5004 96.3733C85.5239 96.3733 85.5298 96.4204 85.5239 96.5144C85.518 96.7496 85.6238 96.8671 85.8471 96.8671C85.9764 96.8671 86.0881 96.8142 86.1762 96.7084C86.2644 96.6026 86.3114 96.4791 86.3114 96.3322C86.3114 96.0383 86.1762 95.8913 85.9118 95.8913C85.7296 95.8913 85.5709 95.9736 85.4416 96.1323C85.3124 96.291 85.2418 96.485 85.2418 96.7084C85.2418 97.1081 85.4358 97.4432 85.8236 97.7078L85.806 97.7019ZM44.223 119.035L47.4317 120.522L47.7901 115.825C47.2613 115.561 46.9028 115.514 46.6383 115.514C46.3034 115.514 46.0389 115.584 45.8979 115.655C44.987 115.99 44.558 116.877 44.223 117.765V115.537H40.2211V128.599H44.223V119.035ZM57.4396 132.367C55.7706 132.367 54.419 133.637 54.419 135.371C54.419 137.105 55.7588 138.375 57.4396 138.375C59.1203 138.375 60.4601 137.094 60.4601 135.371C60.4601 133.649 59.1144 132.367 57.4396 132.367ZM57.4396 137.764C56.1349 137.764 55.083 136.7 55.083 135.371C55.083 134.043 56.1349 132.979 57.4396 132.979C58.7442 132.979 59.7961 134.043 59.7961 135.371C59.7961 136.7 58.7442 137.764 57.4396 137.764ZM110.846 132.367C109.177 132.367 107.826 133.637 107.826 135.371C107.826 137.105 109.166 138.375 110.846 138.375C112.527 138.375 113.867 137.094 113.867 135.371C113.867 133.649 112.521 132.367 110.846 132.367ZM110.846 137.764C109.542 137.764 108.49 136.7 108.49 135.371C108.49 134.043 109.542 132.979 110.846 132.979C112.151 132.979 113.203 134.043 113.203 135.371C113.203 136.7 112.151 137.764 110.846 137.764ZM45.9331 138.269H48.942V137.658H46.5737V135.406H48.8714V134.795H46.5737V133.073H48.942V132.461H45.9331V138.263V138.269ZM49.3298 135.389C49.3298 137.07 50.6109 138.375 52.3328 138.375C52.7676 138.375 53.4376 138.269 54.0781 137.811V137.011C53.9724 137.117 53.7373 137.335 53.4082 137.499C53.1026 137.658 52.7206 137.77 52.3328 137.77C51.2691 137.77 49.9939 136.976 49.9939 135.401C49.9939 134.06 50.987 132.985 52.3269 132.985C52.6677 132.985 53.0203 133.073 53.3259 133.208C53.6198 133.349 53.9018 133.567 54.084 133.749V132.949C53.3906 132.42 52.7206 132.373 52.368 132.373C50.6286 132.373 49.3298 133.661 49.3298 135.395V135.389ZM45.0164 134.072C45.0164 133.455 44.7225 133.008 44.3817 132.785C43.9468 132.491 43.3651 132.461 42.9713 132.461H42.0428V138.263H42.6892V135.724H42.8538L44.6168 138.263H45.3984L43.5531 135.671C44.4287 135.612 45.0164 134.96 45.0164 134.072ZM42.6834 135.154V133.073H43.0771C43.3533 133.073 43.653 133.09 43.9116 133.237C44.2759 133.449 44.37 133.766 44.37 134.09C44.37 134.766 43.8939 135.154 43.0889 135.154H42.6775H42.6834ZM114.848 119.928V128.605H118.944V117.918C118.921 117.154 118.874 116.554 118.227 116.025C117.722 115.596 117.269 115.572 116.623 115.543H115.518C115.424 115.567 114.872 115.567 114.49 115.737C113.773 116.049 113.267 116.889 113.197 117.007C113.126 117.148 113.027 117.271 112.956 117.412C112.885 117.148 112.621 116.072 111.593 115.714C111.234 115.596 110.705 115.567 110.658 115.543H109.459C109.342 115.567 108.789 115.59 108.355 115.784C107.661 116.096 107.203 116.889 106.891 117.536V115.549H102.795V128.611H106.891V119.887C106.891 119.887 106.891 119.505 106.985 119.288C107.103 118.906 107.438 118.641 107.873 118.641C108.114 118.641 108.613 118.712 108.784 119.311C108.831 119.576 108.831 119.817 108.831 119.911V128.611H112.95V119.934C112.95 119.84 112.88 119.094 113.379 118.735C113.52 118.618 113.714 118.565 113.884 118.565C114.578 118.565 114.772 119.164 114.819 119.358C114.866 119.576 114.842 119.911 114.842 119.934L114.848 119.928ZM34.7911 138.269H35.5021L36.1956 136.635H38.6638L39.3396 138.269H40.0506L37.4473 132.185L34.7793 138.269H34.7911ZM36.4541 136.024L37.4473 133.702L38.4228 136.024H36.46H36.4541ZM123.886 135.965H125.608C125.591 136.329 125.479 136.612 125.373 136.794C125.044 137.376 124.374 137.77 123.599 137.77C122.5 137.77 121.242 136.97 121.242 135.383C121.242 134.037 122.218 132.985 123.616 132.985C124.31 132.985 124.744 133.243 125.027 133.472C125.22 133.631 125.409 133.837 125.573 134.072L126.049 133.637C125.885 133.414 125.638 133.149 125.379 132.949C124.815 132.514 124.163 132.373 123.604 132.373C121.871 132.373 120.578 133.684 120.578 135.377C120.578 137.07 121.865 138.381 123.587 138.381C124.915 138.381 125.573 137.57 125.744 137.335C126.108 136.841 126.302 136.141 126.302 135.501V135.359H123.881V135.971L123.886 135.965ZM126.731 135.389C126.731 137.07 128.012 138.375 129.734 138.375C130.169 138.375 130.839 138.269 131.479 137.811V137.011C131.373 137.117 131.138 137.335 130.809 137.499C130.504 137.658 130.122 137.77 129.734 137.77C128.67 137.77 127.395 136.976 127.395 135.401C127.395 134.06 128.388 132.985 129.728 132.985C130.069 132.985 130.421 133.073 130.727 133.208C131.021 133.349 131.303 133.567 131.485 133.749V132.949C130.792 132.42 130.122 132.373 129.769 132.373C128.03 132.373 126.731 133.661 126.731 135.395V135.389ZM122.306 128.605H123.622C124.315 128.558 124.797 128.511 125.273 128.005C125.585 127.694 125.826 127.265 125.99 126.9V128.599H130.157V115.537H125.99V117.407C125.655 116.736 125.273 115.99 124.527 115.731C124.192 115.59 123.616 115.561 123.569 115.537H122.37C121.794 115.584 121.506 115.655 121.295 115.778C121.177 115.825 120.913 115.996 120.648 116.307C120.002 117.101 120.026 118.059 120.002 118.394V125.825C120.049 126.642 120.096 127.453 120.743 128.1C121.195 128.558 121.63 128.582 122.3 128.605H122.306ZM124.151 124.22V119.834C124.151 119.664 124.151 118.706 125.038 118.682C125.973 118.682 125.973 119.593 125.996 119.787V124.22C125.996 124.508 125.973 124.725 125.949 124.843C125.779 125.442 125.303 125.513 125.085 125.513C124.991 125.513 124.703 125.489 124.486 125.319C124.127 125.031 124.127 124.649 124.151 124.214V124.22ZM80.6111 108.36C81.0342 108.636 81.5748 108.771 82.233 108.771C83.3554 108.771 84.4367 108.401 85.4887 107.666C85.8824 107.39 86.1997 107.107 86.4289 106.819C86.664 106.531 86.9637 106.055 87.3398 105.385C87.4573 105.173 87.5455 105.015 87.6042 104.903L87.7277 104.927C87.9686 104.968 88.1508 104.991 88.2742 105.003C87.9627 105.714 87.663 106.12 87.3633 106.208C87.3222 106.22 87.2987 106.237 87.2987 106.261C87.2987 106.284 87.328 106.302 87.3927 106.302C87.569 106.302 87.7629 106.214 87.9686 106.038C88.1743 105.861 88.3271 105.65 88.4387 105.397C88.5328 105.185 88.5856 105.068 88.6033 105.05H88.7326C89.0675 105.05 89.3378 104.991 89.5435 104.874C89.7492 104.756 89.855 104.597 89.855 104.409C89.855 104.168 89.7022 104.051 89.3907 104.051C88.9382 104.051 88.5915 104.333 88.3506 104.891C88.1743 104.868 87.951 104.832 87.6806 104.785C88.2213 103.786 88.7267 103.022 89.1909 102.487C89.6552 101.952 90.1606 101.558 90.713 101.3C91.8472 101.541 92.8051 101.658 93.5866 101.658C94.1861 101.658 94.6973 101.582 95.1263 101.435C95.5494 101.288 95.7669 101.106 95.7669 100.888C95.7669 100.706 95.6141 100.559 95.3085 100.447C95.0029 100.335 94.5974 100.283 94.0979 100.283C93.2517 100.283 92.3408 100.471 91.377 100.841C90.1371 100.547 89.3496 100.371 89.0264 100.306C88.7032 100.247 88.3447 100.218 87.9568 100.218C87.3457 100.218 86.805 100.277 86.3466 100.394C85.9882 99.8534 85.4064 99.5771 84.6072 99.5771C83.708 99.5771 82.8383 99.971 81.9921 100.753C81.6277 101.094 81.4455 101.3 81.4455 101.376C81.4514 101.405 81.469 101.423 81.4984 101.423C81.5043 101.423 81.5454 101.388 81.6218 101.311C82.5268 100.224 83.5376 99.6829 84.6542 99.6829C85.3359 99.6829 85.8413 99.9298 86.1703 100.418C85.1184 100.641 84.1664 101.17 83.3143 102.011C82.4622 102.851 82.0332 103.68 82.0332 104.503C82.0332 104.862 82.1449 105.156 82.3682 105.379C82.5915 105.603 82.8794 105.714 83.232 105.714C84.0724 105.714 84.8657 105.297 85.6062 104.456C86.3466 103.616 86.7169 102.722 86.7169 101.776C86.7169 101.323 86.6228 100.917 86.4348 100.559C86.5523 100.553 86.6757 100.547 86.805 100.547C87.4456 100.547 88.3506 100.7 89.5141 101.006C89.8726 101.1 90.2252 101.188 90.5543 101.258C89.3085 101.817 88.1155 102.951 86.9754 104.674H86.7874C86.5171 104.674 86.2526 104.75 86.0117 104.903C85.7649 105.056 85.6414 105.22 85.6414 105.397C85.6414 105.432 85.6591 105.45 85.6943 105.45C85.7178 105.45 85.7414 105.42 85.7649 105.356C85.9529 104.979 86.2879 104.797 86.7756 104.797H86.899C86.7639 105.003 86.664 105.162 86.5935 105.262C85.7825 106.502 85.042 107.378 84.3662 107.883C83.6904 108.389 82.9265 108.642 82.0802 108.642C81.5396 108.642 81.0812 108.512 80.7051 108.254C80.3231 107.995 80.1351 107.684 80.1351 107.319C80.1351 107.09 80.1762 106.972 80.2585 106.972C80.2996 106.972 80.3114 107.025 80.2996 107.131C80.2996 107.337 80.4054 107.437 80.6169 107.437C80.7403 107.437 80.852 107.39 80.9402 107.29C81.0283 107.19 81.0753 107.078 81.0753 106.943C81.0753 106.649 80.9343 106.508 80.6463 106.508C80.47 106.508 80.3172 106.584 80.1879 106.737C80.0587 106.89 79.994 107.078 79.994 107.296C79.994 107.731 80.2056 108.083 80.6287 108.36H80.6111ZM88.6914 104.809C88.8912 104.362 89.1322 104.139 89.4142 104.139C89.6258 104.139 89.7316 104.233 89.7316 104.421C89.7316 104.568 89.6434 104.691 89.4671 104.785C89.2908 104.88 89.0675 104.927 88.7972 104.927H88.6327L88.6855 104.809H88.6914ZM94.1743 100.406C94.5739 100.406 94.9148 100.453 95.2027 100.553C95.4848 100.653 95.6317 100.765 95.6317 100.9C95.6317 101.017 95.5142 101.123 95.2791 101.211C95.044 101.3 94.7678 101.347 94.4564 101.347C93.8452 101.347 93.1753 101.264 92.4407 101.094L91.5651 100.9C92.3525 100.571 93.2223 100.406 94.1684 100.406H94.1743ZM86.4583 101.476C86.4583 102.405 86.0939 103.322 85.3652 104.227C84.6365 105.132 83.8902 105.585 83.138 105.585C82.8501 105.585 82.6091 105.479 82.4211 105.267C82.2271 105.056 82.1331 104.797 82.1331 104.492C82.1331 103.674 82.568 102.851 83.4436 102.023C84.3192 101.194 85.2536 100.718 86.2526 100.594C86.3937 100.888 86.4701 101.182 86.4701 101.476H86.4583ZM119.162 136.97L114.637 132.226V138.275H115.283V133.796L119.808 138.54V132.473H119.168V136.97H119.162ZM128.082 160.208V159.408C127.977 159.514 127.742 159.732 127.412 159.896C127.107 160.055 126.725 160.167 126.337 160.167C125.273 160.167 123.998 159.373 123.998 157.798C123.998 156.457 124.991 155.382 126.331 155.382C126.672 155.382 127.025 155.47 127.33 155.605C127.624 155.746 127.906 155.964 128.088 156.146V155.346C127.395 154.817 126.725 154.77 126.372 154.77C124.633 154.77 123.334 156.058 123.334 157.792C123.334 159.526 124.615 160.778 126.337 160.778C126.772 160.778 127.442 160.672 128.082 160.214V160.208ZM35.8841 128.587H36.7715C37.3474 128.564 37.5119 128.54 37.7999 128.44C38.1584 128.299 38.3523 128.129 38.4698 128.011C39.1398 127.388 39.1398 126.648 39.1633 126.336V117.806C39.1398 117.495 39.1633 116.778 38.4933 116.131C37.9644 115.625 37.4649 115.578 36.7421 115.531H35.8782C35.3023 115.578 35.0849 115.625 34.8263 115.725C34.033 116.013 33.604 116.754 33.4629 116.995C33.3689 117.166 33.269 117.354 33.1985 117.548V115.537H29.0026V133.032H33.1985V126.847C33.3395 127.112 33.8449 128.141 34.8968 128.452C35.3023 128.57 35.7607 128.599 35.8782 128.599L35.8841 128.587ZM34.0859 125.472C33.5335 125.472 33.3454 125.09 33.269 124.896C33.222 124.749 33.1985 124.702 33.1985 124.437V119.67C33.1985 119.476 33.1985 119.335 33.269 119.141C33.4629 118.682 33.9154 118.635 34.0859 118.635C34.4208 118.612 34.8263 118.829 34.9497 119.188C34.9967 119.358 34.9967 119.593 34.9967 119.64V124.408C34.9967 124.625 34.9967 125.46 34.0859 125.46V125.472ZM88.3682 115.955C87.8863 115.572 87.3633 115.549 86.7639 115.525H85.712C85.1596 115.549 84.3956 115.502 83.6023 116.531C83.4083 116.795 83.2438 117.083 83.0734 117.371V115.525H78.9304V128.587H83.0734V119.723C83.0969 119.411 83.1204 119.217 83.1674 119.1C83.2379 118.958 83.4553 118.571 84.0078 118.547C84.4367 118.547 84.7482 118.835 84.8481 119.241C84.8951 119.358 84.8951 119.482 84.9186 119.723V128.587H89.0852V117.877C89.0852 117.612 89.1557 116.584 88.3682 115.96V115.955ZM96.8717 135.154C97.3829 134.807 97.4476 134.301 97.4476 134.013C97.4476 133.308 97.1067 132.949 96.9246 132.814C96.4956 132.473 95.9138 132.45 95.5964 132.45H94.5504V138.252H95.9961C96.3957 138.252 96.9246 138.234 97.3888 137.87C97.7003 137.623 97.9824 137.176 97.9824 136.617C97.9824 136.059 97.6885 135.354 96.8775 135.154H96.8717ZM95.191 133.055H95.6963C95.8785 133.055 96.8188 133.073 96.8188 134.031C96.8188 134.924 96.0196 134.995 95.6787 134.995H95.191V133.055ZM96.9481 137.399C96.6719 137.617 96.3016 137.646 95.9314 137.646H95.191V135.577H95.8491C96.3075 135.577 96.6131 135.63 96.8305 135.753C97.0538 135.877 97.3242 136.147 97.3242 136.606C97.3242 136.953 97.1655 137.241 96.9422 137.405L96.9481 137.399ZM78.6894 132.45H75.2281V133.061H76.6385V138.258H77.279V133.061H78.6894V132.45ZM81.5043 132.356C79.8354 132.356 78.4837 133.625 78.4837 135.359C78.4837 137.094 79.8236 138.363 81.5043 138.363C83.185 138.363 84.5249 137.082 84.5249 135.359C84.5249 133.637 83.1791 132.356 81.5043 132.356ZM81.5043 137.752C80.1997 137.752 79.1478 136.688 79.1478 135.359C79.1478 134.031 80.1997 132.967 81.5043 132.967C82.8089 132.967 83.8608 134.031 83.8608 135.359C83.8608 136.688 82.8089 137.752 81.5043 137.752ZM88.2742 134.06C88.2742 133.443 87.9803 132.996 87.6395 132.773C87.2046 132.479 86.6228 132.45 86.2291 132.45H85.3006V138.252H85.947V135.712H86.1116L87.8746 138.252H88.6562L86.8109 135.659C87.6865 135.6 88.2742 134.948 88.2742 134.06ZM85.9412 135.142V133.061H86.3349C86.6111 133.061 86.9108 133.079 87.1694 133.226C87.5337 133.437 87.6277 133.755 87.6277 134.078C87.6277 134.754 87.1517 135.142 86.3466 135.142H85.9353H85.9412ZM89.1909 138.258H92.1998V137.646H89.8315V135.395H92.1292V134.783H89.8315V133.061H92.1998V132.45H89.1909V138.252V138.258ZM73.7883 134.977L73.23 134.73C73.0126 134.636 72.7952 134.536 72.6189 134.366C72.4602 134.219 72.4014 134.09 72.4014 133.86C72.4014 133.32 72.801 132.967 73.377 132.967C73.706 132.967 73.9176 133.079 74.0293 133.167C74.1585 133.273 74.2878 133.443 74.3701 133.602L74.8814 133.261C74.7521 133.008 74.5523 132.773 74.3172 132.614C74.0293 132.42 73.7413 132.356 73.3887 132.356C72.4484 132.356 71.7609 132.955 71.7609 133.855C71.7609 134.29 71.9078 134.56 72.1605 134.801C72.4191 135.054 72.707 135.177 72.9362 135.277L73.4592 135.524C73.7648 135.665 73.9881 135.765 74.1527 135.924C74.3642 136.118 74.4406 136.341 74.4406 136.6C74.4406 137.182 74.0645 137.746 73.277 137.746C72.9832 137.746 72.6953 137.676 72.4426 137.423C72.278 137.246 72.137 136.988 72.0958 136.682L71.467 136.858C71.5434 137.205 71.7197 137.605 72.0077 137.887C72.4073 138.281 72.8833 138.357 73.2712 138.357C74.3172 138.357 75.1047 137.646 75.1047 136.576C75.1047 136.159 74.9813 135.818 74.6874 135.524C74.4406 135.277 74.1292 135.124 73.7942 134.977H73.7883ZM106.145 134.977L105.587 134.73C105.369 134.636 105.152 134.536 104.976 134.366C104.817 134.219 104.758 134.09 104.758 133.86C104.758 133.32 105.158 132.967 105.734 132.967C106.063 132.967 106.274 133.079 106.386 133.167C106.515 133.273 106.644 133.443 106.727 133.602L107.238 133.261C107.109 133.008 106.909 132.773 106.674 132.614C106.386 132.42 106.098 132.356 105.745 132.356C104.805 132.356 104.118 132.955 104.118 133.855C104.118 134.29 104.264 134.56 104.517 134.801C104.776 135.054 105.064 135.177 105.293 135.277L105.816 135.524C106.121 135.665 106.345 135.765 106.509 135.924C106.721 136.118 106.797 136.341 106.797 136.6C106.797 137.182 106.421 137.746 105.634 137.746C105.34 137.746 105.052 137.676 104.799 137.423C104.635 137.246 104.494 136.988 104.453 136.682L103.824 136.858C103.9 137.205 104.076 137.605 104.364 137.887C104.764 138.281 105.246 138.357 105.628 138.357C106.674 138.357 107.461 137.646 107.461 136.576C107.461 136.159 107.338 135.818 107.044 135.524C106.797 135.277 106.486 135.124 106.151 134.977H106.145ZM97.0597 125.331C96.7483 125.354 96.4133 125.378 96.1018 125.378C95.4789 125.378 95.1674 125.26 95.0734 124.949C95.0029 124.731 95.0029 124.349 95.0029 124.349V120.252H96.9657V116.966H95.0029V112.698H90.8129V116.966H89.5905V120.252H90.8129V126.265C90.8364 127.418 90.9304 128.423 92.3232 128.564C92.4936 128.587 92.7287 128.611 93.1165 128.587H97.0715V125.331H97.0597ZM67.324 126.289V122.597C67.3005 120.728 66.895 120.222 64.9969 120.269H62.6698V118.735H67.3182V115.525H61.1124C60.7775 115.525 59.2907 115.384 58.9087 116.819C58.8147 117.177 58.8147 117.418 58.8147 117.777V121.61C58.7912 123.479 59.1497 124.008 61.0889 123.908H63.4631V125.325H58.8147V128.582H64.9734C65.5963 128.582 66.5307 128.582 66.9597 128.029C67.4122 127.453 67.3182 126.354 67.3182 126.277L67.324 126.289ZM107.544 110.511C108.66 109.676 109.542 108.565 110.194 107.178C110.952 105.561 111.64 104.309 112.251 103.428C112.885 102.522 113.579 101.805 114.331 101.276C114.36 101.252 114.378 101.235 114.384 101.223C114.384 101.17 114.36 101.147 114.319 101.147C114.308 101.147 114.29 101.158 114.255 101.17L114.172 101.223C113.021 101.993 111.881 103.098 110.746 104.533C109.647 105.926 108.76 106.919 108.09 107.513C107.414 108.107 106.838 108.401 106.357 108.401C105.839 108.401 105.581 108.13 105.581 107.584C105.581 107.307 105.663 107.031 105.834 106.749C105.998 106.467 106.392 105.92 107.009 105.115C107.726 104.192 108.208 103.475 108.449 102.969C108.69 102.463 108.813 101.94 108.813 101.405C108.813 100.729 108.613 100.2 108.219 99.8181C107.826 99.436 107.285 99.2421 106.597 99.2421C105.951 99.2421 105.234 99.4008 104.458 99.7182C103.677 100.036 102.948 100.465 102.272 101C100.915 102.093 100.233 103.281 100.233 104.58C100.233 105.232 100.409 105.755 100.768 106.149C101.126 106.543 101.596 106.743 102.184 106.743C103.236 106.743 104.229 106.19 105.164 105.085C105.963 104.139 106.362 103.275 106.362 102.499C106.362 102.152 106.263 101.876 106.069 101.67C105.875 101.464 105.61 101.358 105.281 101.358C104.529 101.358 103.794 101.711 103.083 102.411C102.366 103.11 102.014 103.833 102.014 104.574C102.014 104.897 102.09 105.156 102.243 105.356C102.396 105.556 102.59 105.655 102.831 105.655C102.936 105.655 102.995 105.638 102.995 105.603C102.995 105.579 102.972 105.561 102.93 105.561H102.907C102.466 105.561 102.249 105.332 102.249 104.88C102.249 104.174 102.601 103.428 103.301 102.646C104 101.864 104.67 101.47 105.305 101.47C105.593 101.47 105.822 101.564 105.992 101.752C106.168 101.94 106.251 102.193 106.251 102.499C106.251 103.369 105.757 104.315 104.764 105.338C103.941 106.19 103.083 106.614 102.178 106.614C101.673 106.614 101.267 106.461 100.962 106.149C100.656 105.838 100.509 105.426 100.509 104.903C100.509 104.38 100.697 103.745 101.079 103.034C101.461 102.322 101.931 101.717 102.496 101.205C103.871 99.9592 105.24 99.3361 106.609 99.3361C107.837 99.3361 108.454 99.8475 108.454 100.859C108.454 101.629 107.973 102.622 107.009 103.845C106.263 104.803 105.769 105.491 105.534 105.92C105.299 106.343 105.181 106.761 105.181 107.172C105.181 107.584 105.287 107.895 105.499 108.148C105.71 108.401 105.98 108.524 106.315 108.524C106.874 108.524 107.591 108.119 108.466 107.301C108.936 106.861 109.647 106.067 110.611 104.909C110.217 105.538 109.877 106.114 109.589 106.631C108.76 108.136 108.143 109.147 107.738 109.665C107.326 110.194 106.791 110.658 106.139 111.052C105.487 111.446 104.799 111.64 104.076 111.64C103.542 111.64 103.101 111.51 102.754 111.258C102.407 111.005 102.231 110.682 102.231 110.299C102.231 110.164 102.261 110.035 102.319 109.911C102.378 109.788 102.437 109.723 102.496 109.723C102.513 109.723 102.519 109.735 102.519 109.765C102.519 109.794 102.519 109.823 102.507 109.841C102.49 109.882 102.484 109.935 102.484 109.982C102.484 110.2 102.601 110.305 102.831 110.305C102.966 110.305 103.083 110.252 103.177 110.147C103.277 110.041 103.324 109.917 103.324 109.77C103.324 109.5 103.183 109.365 102.901 109.365C102.678 109.365 102.49 109.453 102.337 109.635C102.178 109.817 102.102 110.035 102.102 110.288C102.102 110.711 102.29 111.064 102.666 111.334C103.042 111.604 103.524 111.74 104.112 111.74C105.293 111.74 106.439 111.322 107.561 110.493L107.544 110.511ZM64.1918 134.06C64.1918 133.443 63.898 132.996 63.5571 132.773C63.1222 132.479 62.5405 132.45 62.1467 132.45H61.2182V138.252H61.8647V135.712H62.0292L63.7922 138.252H64.5738L62.7285 135.659C63.6041 135.6 64.1918 134.948 64.1918 134.06ZM61.8588 135.142V133.061H62.2525C62.5287 133.061 62.8284 133.079 63.087 133.226C63.4513 133.437 63.5454 133.755 63.5454 134.078C63.5454 134.754 63.0694 135.142 62.2643 135.142H61.8529H61.8588ZM99.904 135.048L98.4231 132.455H97.6768L99.5808 135.759V138.258H100.227V135.759L102.149 132.455H101.403L99.904 135.048ZM68.4347 133.132C67.706 132.514 66.8774 132.455 66.2956 132.455H65.1144V138.258H66.2897C67.324 138.258 67.8823 138.04 68.4112 137.587C68.8284 137.229 69.4279 136.576 69.4279 135.359C69.4279 134.313 68.9695 133.578 68.4347 133.132ZM67.9822 137.123C67.4181 137.593 66.7834 137.646 66.3191 137.646H65.755V133.061H66.3191C67.7883 133.061 68.7638 133.966 68.7638 135.359C68.7638 136.188 68.4171 136.759 67.9822 137.123ZM77.8784 125.378H73.0361C72.4837 125.354 72.3427 125.184 72.2193 124.661V123.585H77.8726V117.859C77.8726 117.501 78.043 115.849 76.3858 115.584C76.1918 115.537 75.9333 115.537 75.4749 115.537H70.468C70.086 115.537 68.7932 115.396 68.3583 116.736C68.2408 117.071 68.2173 117.524 68.2173 117.889V126.348C68.2173 126.853 68.2173 127.259 68.4817 127.712C69.0341 128.74 70.1566 128.599 70.468 128.599H77.8726V125.39L77.8784 125.378ZM72.2016 119.599C72.2016 119.358 72.2016 118.547 73.089 118.547C73.6649 118.547 73.8765 118.953 73.9294 119.123C73.9999 119.317 73.9999 119.458 73.9999 119.552V121.228H72.2016V119.599ZM50.4758 128.587H57.8803V125.378H53.038C52.4856 125.354 52.3445 125.184 52.2211 124.661V123.585H57.8744V117.859C57.8744 117.501 58.0448 115.849 56.3876 115.584C56.1937 115.537 55.9351 115.537 55.4768 115.537H50.4699C50.0879 115.537 48.7951 115.396 48.3602 116.736C48.2426 117.071 48.2191 117.524 48.2191 117.889V126.348C48.2191 126.853 48.2191 127.259 48.4836 127.712C49.036 128.74 50.1584 128.599 50.4699 128.599L50.4758 128.587ZM52.2035 119.599C52.2035 119.358 52.2035 118.547 53.0909 118.547C53.6668 118.547 53.8783 118.953 53.9312 119.123C54.0017 119.317 54.0017 119.458 54.0017 119.552V121.228H52.2035V119.599ZM156.566 172.176H158.288C158.271 172.541 158.159 172.823 158.053 173.005C157.724 173.587 157.054 173.981 156.278 173.981C155.179 173.981 153.922 173.182 153.922 171.594C153.922 170.248 154.897 169.196 156.296 169.196C156.989 169.196 157.424 169.455 157.706 169.684C157.9 169.843 158.088 170.048 158.253 170.284L158.729 169.849C158.564 169.625 158.318 169.361 158.059 169.161C157.495 168.726 156.843 168.585 156.284 168.585C154.551 168.585 153.258 169.896 153.258 171.589C153.258 173.282 154.545 174.592 156.267 174.592C157.595 174.592 158.253 173.781 158.423 173.546C158.788 173.052 158.982 172.353 158.982 171.712V171.571H156.561V172.182L156.566 172.176ZM159.951 132.45H156.114V133.061H158.87L155.703 138.258H159.857V137.646H156.778L159.945 132.45H159.951ZM151.865 172.235C151.865 172.723 151.865 173.252 151.407 173.646C151.172 173.846 150.772 173.975 150.449 173.975C150.126 173.975 149.726 173.846 149.491 173.646C149.033 173.252 149.033 172.723 149.033 172.235V168.679H148.386V172.412C148.386 172.899 148.439 173.37 148.75 173.805C149.097 174.281 149.708 174.587 150.449 174.587C151.189 174.587 151.795 174.281 152.147 173.805C152.459 173.37 152.512 172.899 152.512 172.412V168.679H151.865V172.235ZM142.95 174.481H143.661L144.355 172.847H146.823L147.499 174.481H148.21L145.606 168.397L142.938 174.481H142.95ZM144.613 172.235L145.606 169.913L146.582 172.235H144.619H144.613ZM149.238 152.907C147.828 153.941 146.905 155.464 146.641 157.192C146.376 158.92 146.799 160.649 147.834 162.06C148.868 163.47 150.39 164.393 152.118 164.658C152.453 164.711 152.794 164.734 153.123 164.734C154.504 164.734 155.849 164.299 156.984 163.464C159.893 161.325 160.527 157.222 158.388 154.306C156.249 151.396 152.147 150.767 149.232 152.901L149.238 152.907ZM156.643 162.994C155.356 163.935 153.787 164.317 152.212 164.082C150.637 163.841 149.25 163 148.31 161.713C147.369 160.431 146.982 158.856 147.223 157.28C147.464 155.705 148.304 154.318 149.585 153.377C150.872 152.436 152.441 152.048 154.016 152.289C155.591 152.531 156.978 153.371 157.918 154.653C159.863 157.304 159.287 161.043 156.643 162.988V162.994ZM154.016 136.13L153.546 135.736C153.381 135.959 153.199 136.171 152.888 136.5L151.677 134.942C152.053 134.631 152 134.701 152.147 134.566C152.606 134.166 152.688 133.784 152.688 133.514C152.688 132.932 152.271 132.35 151.46 132.35C150.649 132.35 150.196 132.967 150.196 133.578C150.196 133.972 150.378 134.319 150.772 134.825C150.649 134.901 150.102 135.242 149.797 135.548C149.603 135.742 149.273 136.124 149.273 136.747C149.273 137.67 150.002 138.357 150.954 138.357C151.612 138.357 152.318 137.946 152.823 137.446L153.452 138.258H154.251L153.275 136.994C153.634 136.629 153.857 136.353 154.016 136.135V136.13ZM151.448 132.908C151.753 132.908 152.077 133.102 152.077 133.508C152.077 133.708 152.018 133.919 151.683 134.178L151.301 134.472L151.042 134.113C150.931 133.954 150.807 133.79 150.807 133.537C150.807 133.173 151.095 132.902 151.448 132.902V132.908ZM150.942 137.764C150.343 137.764 149.914 137.311 149.914 136.735C149.914 136.282 150.155 136.047 150.325 135.9C150.49 135.753 150.719 135.559 151.142 135.301L152.429 136.964C152.212 137.17 151.559 137.764 150.942 137.764ZM161.08 170.478L161.644 170.689L162.367 168.679L161.955 168.514L161.074 170.478H161.08ZM150.431 154.535C149.456 155.252 148.821 156.304 148.633 157.498C148.451 158.691 148.745 159.89 149.456 160.866C149.538 160.978 149.626 161.084 149.72 161.184C150.602 162.183 151.847 162.718 153.117 162.718C154.045 162.718 154.986 162.436 155.791 161.842C157.8 160.367 158.241 157.521 156.76 155.511C155.285 153.5 152.441 153.06 150.431 154.541V154.535ZM151.918 161.724C151.119 161.601 150.414 161.172 149.932 160.519C148.944 159.173 149.232 157.269 150.584 156.281C151.125 155.887 151.753 155.693 152.376 155.693C153.311 155.693 154.233 156.122 154.827 156.928C155.309 157.58 155.503 158.38 155.379 159.185C155.256 159.99 154.827 160.69 154.175 161.172C153.522 161.654 152.723 161.848 151.924 161.724H151.918ZM155.444 161.366C154.921 161.748 154.327 161.995 153.704 162.089C153.992 161.977 154.269 161.836 154.527 161.648C155.309 161.078 155.814 160.237 155.961 159.279C156.108 158.321 155.873 157.368 155.303 156.587C154.122 154.976 151.853 154.629 150.243 155.811C149.996 155.993 149.779 156.205 149.591 156.434C149.867 155.881 150.273 155.393 150.784 155.017C152.535 153.73 155.009 154.112 156.29 155.864C157.577 157.615 157.195 160.084 155.444 161.372V161.366ZM133.601 158.474H131.685V159.114H133.601V158.474ZM131.802 154.847H128.341V155.458H129.751V160.655H130.398V155.458H131.808V154.847H131.802ZM128.893 173.176L124.368 168.432V174.481H125.015V170.001L129.54 174.745V168.679H128.899V173.176H128.893ZM134.899 168.585C133.23 168.585 131.879 169.854 131.879 171.589C131.879 173.323 133.219 174.592 134.899 174.592C136.58 174.592 137.92 173.311 137.92 171.589C137.92 169.866 136.574 168.585 134.899 168.585ZM134.899 173.981C133.595 173.981 132.543 172.917 132.543 171.589C132.543 170.26 133.595 169.196 134.899 169.196C136.204 169.196 137.256 170.26 137.256 171.589C137.256 172.917 136.204 173.981 134.899 173.981ZM138.696 174.487H139.342V171.618H141.275V171.007H139.342V169.29H141.34V168.679H138.696V174.481V174.487ZM162.837 132.361C161.168 132.361 159.816 133.631 159.816 135.365C159.816 137.099 161.156 138.369 162.837 138.369C164.517 138.369 165.857 137.088 165.857 135.365C165.857 133.643 164.512 132.361 162.837 132.361ZM162.837 137.758C161.532 137.758 160.48 136.694 160.48 135.365C160.48 134.037 161.532 132.973 162.837 132.973C164.141 132.973 165.193 134.037 165.193 135.365C165.193 136.694 164.141 137.758 162.837 137.758ZM140.77 159.35L136.245 154.606V160.655H136.891V156.175L141.416 160.919V154.853H140.776V159.35H140.77ZM131.885 126.271C131.908 127.424 132.002 128.429 133.395 128.57C133.565 128.593 133.8 128.617 134.182 128.593H138.137V125.337C137.826 125.36 137.491 125.384 137.179 125.384C136.556 125.384 136.245 125.266 136.151 124.955C136.08 124.737 136.08 124.355 136.08 124.355V120.258H138.043V116.972H136.08V112.704H131.885V116.972H130.662V120.258H131.885V126.271ZM145.483 132.461H144.431V138.263H145.078V135.742H145.642C146.964 135.742 147.475 134.93 147.475 134.113C147.475 133.749 147.369 133.231 146.946 132.867C146.553 132.526 146.065 132.455 145.483 132.455V132.461ZM145.606 135.13H145.078V133.067H145.554C145.971 133.067 146.835 133.155 146.835 134.078C146.835 134.748 146.37 135.13 145.606 135.13ZM96.4779 107.466C96.7718 107.466 97.0832 107.284 97.4123 106.919C97.6709 106.637 97.8061 106.478 97.8061 106.443C97.8061 106.42 97.7943 106.402 97.7649 106.402C97.7414 106.402 97.6885 106.449 97.6004 106.549C97.2008 107.113 96.8305 107.39 96.4897 107.39C96.2135 107.39 96.0783 107.207 96.0783 106.843C96.0783 106.714 96.1077 106.549 96.1723 106.349L96.2487 106.284C96.4427 106.167 96.5837 106.079 96.6777 106.02C97.283 105.632 97.5827 105.338 97.5827 105.126C97.5827 105.009 97.5181 104.95 97.3829 104.95C97.189 104.95 96.9657 105.079 96.7248 105.344C96.4779 105.603 96.2723 105.926 96.1077 106.314C95.902 106.478 95.6905 106.69 95.4613 106.955C95.8198 106.402 95.9961 105.961 95.9961 105.626C95.9961 105.179 95.8198 104.956 95.473 104.956C95.2321 104.956 94.7796 105.403 94.1097 106.296L93.9921 106.461C93.9921 106.461 93.9686 106.49 93.9686 106.514C93.9686 106.537 93.9745 106.549 93.9921 106.555C94.0215 106.555 94.0568 106.525 94.0979 106.461C94.7385 105.526 95.1792 105.056 95.4201 105.056C95.52 105.056 95.5729 105.115 95.5729 105.238C95.5729 105.45 95.3085 105.985 94.7737 106.855L93.7042 108.589C93.951 108.571 94.0862 108.565 94.1038 108.565C94.1449 108.565 94.2801 108.571 94.5093 108.589C94.9324 107.866 95.2262 107.39 95.3966 107.154C95.5671 106.919 95.7904 106.684 96.0666 106.443C96.0137 106.631 95.9902 106.784 95.9902 106.908C95.9902 107.29 96.1547 107.484 96.4838 107.484L96.4779 107.466ZM140.406 137.035L138.178 132.138L137.215 138.263H137.873L138.449 134.225L140.4 138.504L142.374 134.225L142.921 138.263H143.579L142.674 132.132L140.406 137.041V137.035ZM99.5925 97.6431C99.7982 97.8606 100.057 97.9723 100.357 97.9723C100.827 97.9723 101.367 97.6725 101.973 97.0788C101.978 97.3433 102.061 97.5608 102.231 97.7195C102.407 97.8841 102.643 97.9723 102.936 97.9723C103.459 97.9723 103.906 97.8312 104.288 97.5432C104.447 97.4256 104.564 97.2904 104.658 97.1552C104.705 97.3374 104.793 97.502 104.923 97.6431C105.128 97.8606 105.387 97.9723 105.687 97.9723C106.327 97.9723 107.103 97.4197 108.002 96.3087L108.284 95.956C108.36 95.856 108.402 95.7972 108.402 95.7855C108.402 95.762 108.396 95.7502 108.378 95.7443C108.343 95.7443 108.302 95.7796 108.249 95.8502C107.25 97.1905 106.409 97.8606 105.728 97.8606C105.322 97.8606 105.122 97.6725 105.122 97.3021C105.122 97.0023 105.269 96.6261 105.563 96.1794C106.521 95.9854 107.203 95.7855 107.608 95.5621C108.02 95.3446 108.219 95.0742 108.219 94.7626C108.219 94.6274 108.167 94.5157 108.055 94.4217C107.943 94.3276 107.808 94.2806 107.655 94.2806C107.297 94.2806 106.827 94.4393 106.257 94.7509C105.51 95.1565 105.023 95.615 104.787 96.1088C104.758 96.0206 104.735 95.9325 104.693 95.8325C104.464 95.2858 104.347 94.8861 104.347 94.6333C104.347 94.5334 104.358 94.4158 104.388 94.2806C104.929 93.7633 105.205 93.4223 105.205 93.246C105.205 93.1696 105.169 93.1343 105.099 93.1343C104.952 93.1343 104.799 93.2401 104.652 93.4576C104.5 93.6751 104.388 93.9338 104.311 94.2394C104.053 94.5686 103.841 94.8273 103.689 95.0154L103.166 95.6562C103.13 95.6385 103.095 95.6327 103.048 95.6327C102.801 95.6327 102.56 95.7855 102.331 96.0971C102.119 96.3792 102.008 96.6673 101.99 96.9612C101.391 97.5608 100.862 97.8665 100.404 97.8665C99.998 97.8665 99.7982 97.6784 99.7982 97.308C99.7982 97.0082 99.9451 96.632 100.239 96.1852C101.197 95.9912 101.879 95.7914 102.284 95.568C102.695 95.3505 102.895 95.0801 102.895 94.7685C102.895 94.6333 102.842 94.5216 102.731 94.4276C102.619 94.3335 102.484 94.2865 102.331 94.2865C101.973 94.2865 101.502 94.4452 100.932 94.7568C100.004 95.2623 99.475 95.8384 99.3399 96.4791C99.14 96.6438 98.9461 96.7319 98.7639 96.7319C98.4877 96.7319 98.3526 96.5497 98.3526 96.1852C98.3526 96.0559 98.382 95.8913 98.4466 95.6914L98.523 95.6268C98.7169 95.5092 98.858 95.421 98.952 95.3622C99.5573 94.9743 99.857 94.6803 99.857 94.4687C99.857 94.3511 99.7924 94.2924 99.6572 94.2924C99.4633 94.2924 99.24 94.4217 98.999 94.6862C98.7522 94.9449 98.5465 95.2682 98.382 95.6562C98.1763 95.8208 97.9647 96.0324 97.7355 96.2969C98.094 95.7443 98.2703 95.3035 98.2703 94.9684C98.2703 94.5216 98.094 94.2982 97.7473 94.2982C97.5063 94.2982 97.0538 94.745 96.3839 95.6385L96.2664 95.8031C96.2664 95.8031 96.2429 95.8325 96.2429 95.856C96.2429 95.8795 96.2487 95.8913 96.2664 95.8972C96.2958 95.8972 96.331 95.8678 96.3722 95.8031C97.0127 94.8685 97.4535 94.3982 97.6944 94.3982C97.7943 94.3982 97.8472 94.457 97.8472 94.5804C97.8472 94.792 97.5827 95.327 97.048 96.197L95.9784 97.9311C96.2253 97.9135 96.3604 97.9076 96.378 97.9076C96.4192 97.9076 96.5543 97.9135 96.7835 97.9311C97.2066 97.2081 97.5005 96.7319 97.6709 96.4968C97.8413 96.2617 98.0646 96.0265 98.3408 95.7855C98.2879 95.9736 98.2644 96.1264 98.2644 96.2499C98.2644 96.632 98.429 96.826 98.7581 96.826C98.9402 96.826 99.1283 96.7437 99.3281 96.6026C99.3163 96.679 99.3046 96.7554 99.3046 96.8377C99.3046 97.1669 99.4104 97.4432 99.6161 97.6607L99.5925 97.6431ZM106.715 94.8449C107.091 94.5275 107.391 94.3688 107.626 94.3688C107.779 94.3688 107.855 94.4393 107.855 94.5745C107.855 94.8332 107.638 95.1153 107.203 95.4034C106.768 95.6973 106.239 95.9266 105.61 96.0853C105.969 95.5739 106.339 95.1624 106.715 94.8449ZM102.266 96.7731C102.266 96.7731 102.308 96.7319 102.331 96.7084C102.443 96.5908 102.572 96.5085 102.725 96.4733C103.148 96.3792 103.359 96.2087 103.359 95.9501C103.359 95.8502 103.318 95.7679 103.236 95.6973C103.694 95.1389 104.047 94.7039 104.294 94.3923C104.276 94.5216 104.27 94.6862 104.27 94.8802C104.27 95.1212 104.27 95.3035 104.282 95.4328C104.294 95.5621 104.294 95.6914 104.294 95.8208C104.294 96.3087 104.129 96.7613 103.8 97.1846C103.471 97.6078 103.124 97.8194 102.76 97.8194C102.572 97.8194 102.419 97.7607 102.29 97.6431C102.167 97.5255 102.102 97.3786 102.102 97.2081C102.102 97.0552 102.161 96.9142 102.272 96.7731H102.266ZM101.379 94.8449C101.755 94.5275 102.055 94.3688 102.29 94.3688C102.443 94.3688 102.519 94.4393 102.519 94.5745C102.519 94.8332 102.302 95.1153 101.867 95.4034C101.432 95.6973 100.903 95.9266 100.274 96.0853C100.633 95.5739 101.003 95.1624 101.379 94.8449ZM98.905 83.3701C99.6337 83.3701 100.292 83.0821 100.88 82.506C101.038 82.3473 101.197 82.1533 101.35 81.924C101.502 81.6948 101.579 81.5302 101.579 81.4361C101.579 81.395 101.561 81.3715 101.52 81.3715C101.497 81.3715 101.479 81.395 101.467 81.4361C101.262 81.9417 100.909 82.3708 100.415 82.7294C99.9158 83.088 99.4221 83.2643 98.9344 83.2643C98.4819 83.2643 98.1116 83.1232 97.8296 82.8352C97.5475 82.5471 97.4006 82.1768 97.4006 81.73C97.4006 80.8365 97.8237 80.0135 98.6758 79.2493C99.5279 78.4851 100.445 78.103 101.444 78.103C101.79 78.103 102.084 78.1794 102.325 78.3323C102.566 78.4851 102.69 78.6732 102.69 78.8907C102.69 79.0553 102.625 79.267 102.49 79.5138C102.202 80.0547 102.061 80.4485 102.061 80.6954C102.061 80.9835 102.137 81.2127 102.302 81.3891C102.46 81.5654 102.666 81.6536 102.919 81.6536C103.312 81.6536 103.736 81.4008 104.176 80.8894C104.335 80.7072 104.417 80.5896 104.417 80.5426C104.417 80.5073 104.4 80.4897 104.364 80.4897C104.341 80.4897 104.306 80.5132 104.264 80.5661C103.8 81.2127 103.348 81.536 102.913 81.536C102.531 81.536 102.337 81.3773 102.337 81.054C102.337 80.9247 102.431 80.6719 102.619 80.3074C102.831 79.9018 102.93 79.555 102.93 79.2552C102.93 78.8613 102.801 78.5498 102.543 78.3205C102.284 78.0971 101.926 77.9796 101.473 77.9796C100.439 77.9796 99.4809 78.3734 98.5994 79.1553C97.7179 79.9371 97.2713 80.7895 97.2713 81.7006C97.2713 82.2062 97.4182 82.6059 97.7179 82.9116C98.0176 83.2173 98.4172 83.3701 98.9109 83.3701H98.905ZM131.638 138.263H132.349L133.042 136.629H135.51L136.186 138.263H136.897L134.294 132.179L131.626 138.263H131.638ZM133.301 136.018L134.294 133.696L135.27 136.018H133.307H133.301ZM93.046 104.944C92.6464 104.944 92.141 105.162 91.5239 105.603C90.6483 106.226 90.2076 106.866 90.2076 107.537C90.2076 107.836 90.3016 108.095 90.4838 108.307C90.666 108.518 90.8893 108.63 91.1537 108.63C91.6591 108.63 92.1998 108.224 92.7698 107.413C92.8756 107.466 92.9931 107.49 93.1283 107.49C93.4515 107.49 93.8041 107.301 94.1861 106.919C94.4446 106.667 94.568 106.502 94.568 106.431C94.568 106.414 94.5622 106.408 94.5445 106.408C94.521 106.408 94.4858 106.437 94.4388 106.496C94.2742 106.755 94.0626 106.972 93.7982 107.154C93.5338 107.337 93.3104 107.425 93.1106 107.425C93.0049 107.425 92.905 107.401 92.8168 107.348C93.3398 106.643 93.6043 106.043 93.6043 105.544C93.6043 105.144 93.4162 104.944 93.046 104.944ZM93.2634 105.938C93.1048 105.938 92.9402 106.049 92.7698 106.279C92.5994 106.502 92.5171 106.725 92.5171 106.937C92.5171 107.084 92.5817 107.231 92.7051 107.366C92.1469 108.142 91.6356 108.524 91.1655 108.524C90.8775 108.524 90.7365 108.377 90.7365 108.077C90.7365 107.56 91.0186 106.925 91.5886 106.167C92.1586 105.409 92.6405 105.032 93.0342 105.032C93.3516 105.032 93.5102 105.209 93.5102 105.561C93.5102 105.75 93.475 105.92 93.4045 106.073C93.381 105.985 93.3281 105.944 93.2634 105.944V105.938ZM166.092 171.571C166.439 171.077 166.551 170.719 166.551 170.325C166.551 169.325 165.787 168.591 164.758 168.591C164.036 168.591 163.63 168.902 163.383 169.184C163.16 169.443 162.972 169.801 162.948 170.383H163.589C163.595 170.09 163.665 169.872 163.783 169.696C164 169.366 164.341 169.184 164.747 169.184C165.434 169.184 165.904 169.66 165.904 170.313C165.904 170.548 165.846 170.824 165.581 171.201C165.44 171.406 165.052 171.871 164.905 172.047L162.79 174.493H166.539V173.899H164.088L165.299 172.535C165.534 172.265 165.846 171.906 166.092 171.571ZM174.995 154.994C174.995 153.747 173.985 152.736 172.739 152.736C171.493 152.736 170.476 153.747 170.476 154.994C170.476 155.752 170.858 156.416 171.428 156.828L170.794 159.643C170.659 160.237 170.8 160.849 171.182 161.325C171.564 161.801 172.128 162.071 172.733 162.071C173.338 162.071 173.92 161.795 174.302 161.307C174.684 160.819 174.813 160.196 174.666 159.602L173.985 156.869C174.59 156.463 174.995 155.775 174.995 154.994ZM174.214 159.561C174.396 160.302 174.008 161.019 173.368 161.313C173.321 161.336 173.274 161.348 173.227 161.366C173.174 161.383 173.121 161.407 173.068 161.419C172.962 161.442 172.85 161.46 172.739 161.46C172.739 161.46 172.709 161.46 172.698 161.46C172.604 161.46 172.51 161.448 172.416 161.425C172.363 161.413 172.316 161.395 172.269 161.378C172.216 161.36 172.169 161.348 172.116 161.325C171.481 161.037 171.088 160.337 171.252 159.602L171.828 157.063L172.069 155.993H173.326L173.597 157.086L174.214 159.567V159.561ZM110.605 94.6745C110.329 94.9331 109.935 95.421 109.424 96.1264C109.747 95.6327 109.912 95.2447 109.912 94.9684C109.912 94.7803 109.859 94.6216 109.753 94.4863C109.647 94.3511 109.524 94.2865 109.377 94.2865C109.148 94.2865 108.701 94.7332 108.031 95.6268L107.908 95.7914C107.908 95.7914 107.884 95.8208 107.884 95.8443C107.884 95.8678 107.902 95.8854 107.926 95.8854C107.949 95.8854 107.978 95.8502 108.02 95.7914C108.672 94.8567 109.113 94.3864 109.33 94.3864C109.442 94.3864 109.495 94.4511 109.495 94.5804C109.495 94.8097 109.207 95.3858 108.631 96.3087L107.614 97.9194C107.749 97.9017 107.89 97.8959 108.043 97.8959C108.084 97.8959 108.214 97.9017 108.425 97.9194C109.747 95.5621 110.723 94.3864 111.358 94.3864C111.546 94.3864 111.64 94.4746 111.64 94.6568C111.64 94.7979 111.463 95.133 111.111 95.6562C110.77 96.15 110.564 96.485 110.482 96.6496C110.4 96.8201 110.359 96.9965 110.359 97.1963C110.359 97.4197 110.423 97.6078 110.558 97.7548C110.693 97.9076 110.858 97.984 111.052 97.984C111.346 97.984 111.751 97.6725 112.274 97.0553L112.292 97.0376C112.28 97.0964 112.274 97.1552 112.274 97.2081C112.274 97.4315 112.345 97.6137 112.48 97.7607C112.615 97.9076 112.786 97.984 112.991 97.984C113.403 97.984 114.02 97.4138 114.837 96.2793L115.119 95.8972C115.16 95.8384 115.177 95.8031 115.183 95.7914C115.183 95.7679 115.171 95.7502 115.142 95.7502C115.119 95.7502 115.095 95.7737 115.066 95.8149C114.125 97.1963 113.461 97.8841 113.062 97.8841C112.856 97.8841 112.756 97.7842 112.756 97.5902C112.756 97.4138 112.844 97.1728 113.021 96.873L114.472 94.3923H115.324L115.377 94.2924H114.525L115.271 93.0285C115.142 93.0638 115.013 93.0814 114.895 93.0814C114.778 93.0814 114.654 93.0638 114.525 93.0285L113.761 94.2924H113.109L113.044 94.3923H113.708L112.615 96.2323C112.474 96.4733 112.38 96.6908 112.327 96.8848C111.787 97.549 111.381 97.89 111.111 97.89C110.934 97.89 110.84 97.8018 110.84 97.6196C110.84 97.4491 111.046 97.0611 111.452 96.4439C111.851 95.8443 112.051 95.3975 112.051 95.1095C112.051 94.8802 111.986 94.6862 111.857 94.5275C111.728 94.3688 111.563 94.2924 111.375 94.2924C111.14 94.2924 110.887 94.4217 110.611 94.6862L110.605 94.6745ZM146.817 115.578C146.623 115.531 146.365 115.531 145.906 115.531H140.899C140.517 115.531 139.224 115.39 138.79 116.731C138.672 117.066 138.643 117.518 138.643 117.883V126.342C138.643 126.847 138.643 127.253 138.907 127.706C139.46 128.734 140.582 128.593 140.893 128.593H148.298V125.384H143.456C142.903 125.36 142.762 125.19 142.639 124.666V123.591H148.292V117.865C148.292 117.506 148.463 115.855 146.805 115.59L146.817 115.578ZM144.419 121.233H142.621V119.605C142.621 119.364 142.621 118.553 143.509 118.553C144.084 118.553 144.302 118.958 144.349 119.129C144.419 119.323 144.419 119.464 144.419 119.558V121.233ZM170.412 171.559C170.758 171.065 170.87 170.707 170.87 170.313C170.87 169.314 170.106 168.579 169.078 168.579C168.355 168.579 167.949 168.89 167.703 169.172C167.479 169.431 167.291 169.79 167.268 170.372H167.908C167.914 170.078 167.985 169.86 168.102 169.684C168.32 169.355 168.66 169.172 169.066 169.172C169.754 169.172 170.224 169.649 170.224 170.301C170.224 170.536 170.165 170.813 169.9 171.189C169.759 171.395 169.372 171.859 169.225 172.035L167.109 174.481H170.858V173.887H168.408L169.618 172.523C169.853 172.253 170.165 171.894 170.412 171.559ZM114.989 107.154C114.731 107.331 114.507 107.419 114.313 107.419C114.208 107.419 114.108 107.396 114.02 107.343C114.543 106.637 114.807 106.038 114.807 105.538C114.807 105.138 114.619 104.938 114.249 104.938C113.849 104.938 113.344 105.156 112.727 105.597C111.851 106.22 111.41 106.861 111.41 107.531C111.41 107.831 111.504 108.089 111.687 108.301C111.869 108.512 112.092 108.624 112.357 108.624C112.862 108.624 113.403 108.218 113.973 107.407C114.078 107.46 114.196 107.484 114.331 107.484C114.519 107.484 114.719 107.407 114.931 107.278C114.837 107.484 114.789 107.678 114.789 107.848C114.789 108.066 114.854 108.248 114.983 108.401C115.113 108.554 115.277 108.624 115.465 108.624C115.653 108.624 115.841 108.524 116.047 108.33C116.235 108.154 116.529 107.813 116.929 107.301L117.058 107.125C116.887 107.431 116.805 107.666 116.805 107.836C116.805 108.054 116.87 108.242 117.005 108.395C117.14 108.548 117.299 108.624 117.493 108.624C117.798 108.624 118.21 108.313 118.733 107.695C119.361 106.949 119.679 106.531 119.679 106.431C119.679 106.408 119.667 106.39 119.638 106.39C119.614 106.39 119.597 106.414 119.573 106.455L119.456 106.596L119.256 106.878C118.474 107.977 117.91 108.524 117.557 108.524C117.381 108.524 117.287 108.43 117.287 108.242C117.287 108.013 117.534 107.495 118.028 106.684L119.068 104.985C118.868 105.015 118.715 105.032 118.603 105.032C118.509 105.032 118.398 105.015 118.263 104.985L117.622 106.067C116.652 107.707 115.947 108.524 115.512 108.524C115.348 108.524 115.265 108.424 115.265 108.23C115.265 108.036 115.342 107.801 115.501 107.537L117.052 104.979C116.84 105.009 116.694 105.026 116.611 105.026C116.529 105.026 116.411 105.009 116.265 104.979L115.077 106.972C115.042 107.031 115.013 107.084 114.983 107.143L114.989 107.154ZM113.967 106.267C113.796 106.49 113.714 106.714 113.714 106.925C113.714 107.072 113.779 107.219 113.902 107.354C113.344 108.13 112.833 108.512 112.362 108.512C112.074 108.512 111.933 108.365 111.933 108.066C111.933 107.548 112.216 106.913 112.786 106.155C113.356 105.397 113.837 105.021 114.231 105.021C114.549 105.021 114.707 105.197 114.707 105.55C114.707 105.738 114.672 105.908 114.601 106.061C114.578 105.973 114.525 105.932 114.46 105.932C114.302 105.932 114.137 106.043 113.967 106.273V106.267ZM94.6385 86.9149C95.1204 87.2382 95.7022 87.3969 96.3898 87.3969C97.5945 87.3969 98.8756 86.8443 100.233 85.7392C100.815 85.263 101.638 84.4694 102.701 83.3466H105.211C104.223 84.975 103.559 85.9743 103.213 86.3447C102.866 86.715 102.36 86.9795 101.685 87.1382C101.373 87.0971 101.097 87.0736 100.856 87.0736C100.515 87.0736 100.345 87.1265 100.345 87.2323C100.345 87.3264 100.468 87.3675 100.721 87.3675C101.079 87.3675 101.403 87.3205 101.679 87.2323C102.137 87.3264 102.519 87.3675 102.836 87.3675C103.389 87.3675 103.853 87.2617 104.235 87.0442C104.617 86.8267 105.04 86.4387 105.504 85.8685C106.004 85.2571 106.257 84.9221 106.257 84.8574C106.257 84.8398 106.239 84.8339 106.21 84.8339C106.186 84.8339 106.157 84.8633 106.116 84.9279C105.769 85.4864 105.334 86.0096 104.805 86.5092C104.264 87.0207 103.589 87.2793 102.789 87.2793C102.537 87.2793 102.237 87.2558 101.896 87.2029C103.536 86.8208 104.882 85.5746 105.933 83.4701C106.621 82.1004 107.232 81.1069 107.767 80.4897C108.302 79.8783 108.919 79.4668 109.618 79.2493C109.93 79.2493 110.312 79.2963 110.776 79.3904C111.028 79.4433 111.175 79.4668 111.211 79.4668C111.305 79.4668 111.346 79.4257 111.346 79.3493C111.346 79.1553 111.046 79.0553 110.441 79.0553C110.17 79.0553 109.883 79.0847 109.577 79.1494C108.243 79.1553 106.979 79.4903 105.781 80.1428C104.582 80.7954 103.348 81.83 102.078 83.2467C101.638 83.2349 101.214 83.2349 100.797 83.2349L100.721 83.3525H101.984L101.79 83.5524C101.42 83.9168 100.927 84.4283 100.304 85.0749C99.9921 85.41 99.7042 85.6804 99.4515 85.8802C98.3291 86.7973 97.3065 87.2558 96.3722 87.2558C95.7199 87.2558 95.1733 87.1088 94.7267 86.8149C94.2801 86.521 94.0568 86.1624 94.0568 85.7392C94.0568 85.6275 94.0803 85.5158 94.1214 85.4041C94.1626 85.2924 94.2096 85.2395 94.2507 85.2395C94.2918 85.2395 94.3095 85.263 94.3095 85.3042C94.3095 85.3335 94.3095 85.3571 94.2977 85.3747L94.286 85.504C94.286 85.698 94.3859 85.7979 94.5915 85.7979C94.7208 85.7979 94.8325 85.745 94.9324 85.6451C95.0323 85.5452 95.0793 85.4217 95.0793 85.2748C95.0793 84.9985 94.9383 84.8633 94.6562 84.8633C94.4505 84.8633 94.2683 84.9456 94.1273 85.116C93.9804 85.2865 93.9099 85.4923 93.9099 85.7274C93.9099 86.1859 94.1508 86.5798 94.6268 86.9031L94.6385 86.9149ZM106.157 80.2487C107.126 79.6549 108.178 79.3257 109.312 79.2728C108.737 79.4198 108.067 79.8783 107.291 80.6425C106.503 81.4126 105.834 82.2826 105.275 83.2526H102.807C104.071 81.8476 105.187 80.8483 106.157 80.2545V80.2487Z" fill="#00C2FF"/>
</svg>
